AmstelvarA2-Roman_opsz144_wght800_wdth85.ufo
<glyph name="exclam" format="2">
  <advance width="161"/>
  <unicode hex="0021"/>
  <outline>
    <contour>
      <point x="-122" y="179" type="qcurve" smooth="yes"/>
      <point x="-122" y="261"/>
      <point x="-8" y="382"/>
      <point x="80" y="382" type="qcurve" smooth="yes"/>
      <point x="169" y="382"/>
      <point x="283" y="261"/>
      <point x="283" y="179" type="qcurve" smooth="yes"/>
      <point x="283" y="99"/>
      <point x="169" y="-22"/>
      <point x="80" y="-22" type="qcurve" smooth="yes"/>
      <point x="-8" y="-22"/>
      <point x="-122" y="99"/>
    </contour>
    <contour>
      <point x="-97" y="1346" type="line" smooth="yes"/>
      <point x="-104" y="1414"/>
      <point x="-27" y="1546"/>
      <point x="77" y="1547" type="qcurve" smooth="yes"/>
      <point x="181" y="1548"/>
      <point x="265" y="1416"/>
      <point x="258" y="1347" type="qcurve" smooth="yes"/>
      <point x="237" y="1108" type="line"/>
      <point x="118" y="800" type="line"/>
      <point x="100" y="507" type="line"/>
      <point x="60" y="507" type="line"/>
      <point x="41" y="800" type="line"/>
      <point x="-76" y="1108" type="line"/>
    </contour>
  </outline>
</glyph>
<glyph name="quotedbl" format="2">
  <advance width="382"/>
  <unicode hex="0022"/>
  <outline>
    <contour>
      <point x="-52" y="964" type="line"/>
      <point x="-217" y="1372" type="line"/>
      <point x="-217" y="1438"/>
      <point x="-125" y="1558"/>
      <point x="-31" y="1558" type="qcurve" smooth="yes"/>
      <point x="64" y="1558"/>
      <point x="155" y="1438"/>
      <point x="155" y="1372" type="qcurve"/>
      <point x="-12" y="964" type="line"/>
    </contour>
    <contour>
      <point x="393" y="964" type="line"/>
      <point x="228" y="1372" type="line"/>
      <point x="228" y="1438"/>
      <point x="319" y="1558"/>
      <point x="414" y="1558" type="qcurve" smooth="yes"/>
      <point x="508" y="1558"/>
      <point x="600" y="1438"/>
      <point x="600" y="1372" type="qcurve"/>
      <point x="433" y="964" type="line"/>
    </contour>
  </outline>
</glyph>
<glyph name="numbersign" format="2">
  <advance width="856"/>
  <unicode hex="0023"/>
  <outline>
    <contour>
      <point x="-57" y="483" type="line"/>
      <point x="-57" y="638" type="line"/>
      <point x="817" y="638" type="line"/>
      <point x="817" y="483" type="line"/>
    </contour>
    <contour>
      <point x="38" y="843" type="line"/>
      <point x="38" y="998" type="line"/>
      <point x="912" y="998" type="line"/>
      <point x="912" y="843" type="line"/>
    </contour>
    <contour>
      <point x="1" y="-8" type="line"/>
      <point x="564" y="1524" type="line"/>
      <point x="605" y="1513" type="line"/>
      <point x="44" y="-19" type="line"/>
    </contour>
    <contour>
      <point x="268" y="-8" type="line"/>
      <point x="831" y="1524" type="line"/>
      <point x="873" y="1513" type="line"/>
      <point x="311" y="-19" type="line"/>
    </contour>
  </outline>
</glyph>
<glyph name="dollar" format="2">
  <advance width="669"/>
  <unicode hex="0024"/>
  <outline>
    <contour>
      <point x="-31" y="274" type="qcurve"/>
      <point x="25" y="308" type="line"/>
      <point x="54" y="211"/>
      <point x="212" y="51"/>
      <point x="314" y="51" type="qcurve" smooth="yes"/>
      <point x="430" y="51"/>
      <point x="512" y="209"/>
      <point x="512" y="327" type="qcurve" smooth="yes"/>
      <point x="512" y="471"/>
      <point x="282" y="586"/>
      <point x="228" y="642" type="qcurve" smooth="yes"/>
      <point x="148" y="708"/>
      <point x="-30" y="921"/>
      <point x="-30" y="1099" type="qcurve" smooth="yes"/>
      <point x="-30" y="1280"/>
      <point x="184" y="1501"/>
      <point x="333" y="1501" type="qcurve" smooth="yes"/>
      <point x="424" y="1501"/>
      <point x="582" y="1438"/>
      <point x="646" y="1370" type="qcurve"/>
      <point x="573" y="1318" type="line"/>
      <point x="534" y="1373"/>
      <point x="418" y="1447"/>
      <point x="344" y="1447" type="qcurve" smooth="yes"/>
      <point x="233" y="1447"/>
      <point x="158" y="1318"/>
      <point x="158" y="1208" type="qcurve" smooth="yes"/>
      <point x="158" y="1108"/>
      <point x="254" y="989"/>
      <point x="356" y="917" type="qcurve" smooth="yes"/>
      <point x="482" y="837"/>
      <point x="701" y="618"/>
      <point x="701" y="447" type="qcurve" smooth="yes"/>
      <point x="701" y="251"/>
      <point x="481" y="1"/>
      <point x="338" y="1" type="qcurve" smooth="yes"/>
      <point x="203" y="1"/>
      <point x="21" y="150"/>
    </contour>
    <contour>
      <point x="289" y="-190" type="line"/>
      <point x="289" y="22" type="line"/>
      <point x="296" y="22" type="line"/>
      <point x="296" y="790" type="line"/>
      <point x="348" y="748" type="line"/>
      <point x="348" y="22" type="line"/>
      <point x="357" y="22" type="line"/>
      <point x="357" y="-166" type="line"/>
    </contour>
    <contour>
      <point x="288" y="1632" type="line"/>
      <point x="356" y="1649" type="line"/>
      <point x="356" y="1468" type="line"/>
      <point x="348" y="1468" type="line"/>
      <point x="348" y="748" type="line"/>
      <point x="296" y="790" type="line"/>
      <point x="296" y="1468" type="line"/>
      <point x="288" y="1468" type="line"/>
    </contour>
  </outline>
</glyph>
<glyph name="ampersand" format="2">
  <advance width="1089"/>
  <unicode hex="0026"/>
  <outline>
    <contour>
      <point x="387" y="-28" type="qcurve" smooth="yes"/>
      <point x="174" y="-28"/>
      <point x="-42" y="219"/>
      <point x="-36" y="369" type="qcurve" smooth="yes"/>
      <point x="-30" y="493"/>
      <point x="233" y="789"/>
      <point x="407" y="847" type="qcurve"/>
      <point x="535" y="939"/>
      <point x="669" y="1110"/>
      <point x="669" y="1225" type="qcurve" smooth="yes"/>
      <point x="669" y="1334"/>
      <point x="599" y="1471"/>
      <point x="557" y="1471" type="qcurve" smooth="yes"/>
      <point x="540" y="1471"/>
      <point x="493" y="1338"/>
      <point x="493" y="1206" type="qcurve" smooth="yes"/>
      <point x="493" y="1096"/>
      <point x="595" y="935"/>
      <point x="607" y="901" type="qcurve"/>
      <point x="859" y="270" type="line" smooth="yes"/>
      <point x="890" y="195"/>
      <point x="981" y="25"/>
      <point x="974" y="25" type="qcurve" smooth="yes"/>
      <point x="997" y="25"/>
      <point x="1057" y="90"/>
      <point x="1075" y="136" type="qcurve"/>
      <point x="1097" y="113" type="line"/>
      <point x="1062" y="37"/>
      <point x="964" y="-40"/>
      <point x="851" y="-41" type="qcurve" smooth="yes"/>
      <point x="731" y="-41"/>
      <point x="563" y="84"/>
      <point x="511" y="217" type="qcurve" smooth="yes"/>
      <point x="321" y="792" type="line"/>
      <point x="258" y="840"/>
      <point x="174" y="1057"/>
      <point x="175" y="1166" type="qcurve" smooth="yes"/>
      <point x="178" y="1307"/>
      <point x="355" y="1516"/>
      <point x="473" y="1516" type="qcurve" smooth="yes"/>
      <point x="625" y="1516"/>
      <point x="731" y="1357"/>
      <point x="731" y="1226" type="qcurve" smooth="yes"/>
      <point x="731" y="1111"/>
      <point x="590" y="938"/>
      <point x="495" y="889" type="qcurve"/>
      <point x="408" y="771"/>
      <point x="338" y="553"/>
      <point x="331" y="403" type="qcurve" smooth="yes"/>
      <point x="324" y="238"/>
      <point x="417" y="89"/>
      <point x="509" y="89" type="qcurve" smooth="yes"/>
      <point x="686" y="89"/>
      <point x="979" y="567"/>
      <point x="1053" y="867" type="qcurve"/>
      <point x="1073" y="860" type="line"/>
      <point x="992" y="523"/>
      <point x="714" y="-28"/>
    </contour>
    <contour>
      <point x="689" y="784" type="line"/>
      <point x="702" y="882"/>
      <point x="762" y="1008"/>
      <point x="804" y="1008" type="qcurve" smooth="yes"/>
      <point x="836" y="1008"/>
      <point x="941" y="941"/>
      <point x="968" y="941" type="qcurve" smooth="yes"/>
      <point x="988" y="941"/>
      <point x="1018" y="943"/>
      <point x="1038" y="961" type="qcurve"/>
      <point x="1079" y="906" type="line"/>
      <point x="1073" y="824"/>
      <point x="1000" y="762"/>
      <point x="980" y="762" type="qcurve" smooth="yes"/>
      <point x="948" y="762"/>
      <point x="863" y="825"/>
      <point x="835" y="825" type="qcurve" smooth="yes"/>
      <point x="793" y="825"/>
      <point x="729" y="800"/>
      <point x="696" y="766" type="qcurve"/>
    </contour>
  </outline>
</glyph>
<glyph name="quotesingle" format="2">
  <advance width="103"/>
  <unicode hex="0027"/>
  <outline>
    <contour>
      <point x="34" y="964" type="line"/>
      <point x="-135" y="1372" type="line"/>
      <point x="-135" y="1438"/>
      <point x="-43" y="1558"/>
      <point x="51" y="1558" type="qcurve" smooth="yes"/>
      <point x="146" y="1558"/>
      <point x="237" y="1438"/>
      <point x="237" y="1372" type="qcurve"/>
      <point x="66" y="964" type="line"/>
    </contour>
  </outline>
</glyph>
<glyph name="parenleft" format="2">
  <advance width="744"/>
  <unicode hex="0028"/>
  <outline>
    <contour>
      <point x="68" y="521" type="qcurve" smooth="yes"/>
      <point x="68" y="816"/>
      <point x="472" y="1389"/>
      <point x="697" y="1526" type="qcurve"/>
      <point x="724" y="1496" type="line"/>
      <point x="587" y="1343"/>
      <point x="409" y="839"/>
      <point x="409" y="522" type="qcurve" smooth="yes"/>
      <point x="409" y="204"/>
      <point x="585" y="-301"/>
      <point x="724" y="-454" type="qcurve"/>
      <point x="697" y="-485" type="line"/>
      <point x="472" y="-348"/>
      <point x="68" y="213"/>
    </contour>
  </outline>
</glyph>
<glyph name="parenright" format="2">
  <advance width="744"/>
  <unicode hex="0029"/>
  <outline>
    <contour>
      <point x="676" y="521" type="qcurve" smooth="yes"/>
      <point x="676" y="213"/>
      <point x="273" y="-348"/>
      <point x="47" y="-485" type="qcurve"/>
      <point x="20" y="-461" type="line"/>
      <point x="159" y="-308"/>
      <point x="335" y="202"/>
      <point x="335" y="522" type="qcurve" smooth="yes"/>
      <point x="335" y="842"/>
      <point x="157" y="1350"/>
      <point x="20" y="1503" type="qcurve"/>
      <point x="47" y="1526" type="line"/>
      <point x="273" y="1389"/>
      <point x="676" y="816"/>
    </contour>
  </outline>
</glyph>
<glyph name="asterisk" format="2">
  <advance width="791"/>
  <unicode hex="002A"/>
  <outline>
    <contour>
      <point x="395" y="664" type="qcurve" smooth="yes"/>
      <point x="324" y="664"/>
      <point x="265" y="761"/>
      <point x="283" y="821" type="qcurve" smooth="yes"/>
      <point x="387" y="1096" type="line"/>
      <point x="386" y="1097" type="line"/>
      <point x="198" y="868" type="line" smooth="yes"/>
      <point x="167" y="829"/>
      <point x="43" y="822"/>
      <point x="6" y="888" type="qcurve" smooth="yes"/>
      <point x="-32" y="951"/>
      <point x="36" y="1054"/>
      <point x="87" y="1061" type="qcurve" smooth="yes"/>
      <point x="378" y="1109" type="line"/>
      <point x="377" y="1112" type="line"/>
      <point x="88" y="1161" type="line" smooth="yes"/>
      <point x="38" y="1167"/>
      <point x="-30" y="1270"/>
      <point x="8" y="1335" type="qcurve" smooth="yes"/>
      <point x="44" y="1399"/>
      <point x="164" y="1390"/>
      <point x="200" y="1353" type="qcurve" smooth="yes"/>
      <point x="385" y="1125" type="line"/>
      <point x="386" y="1126" type="line"/>
      <point x="282" y="1408" type="line" smooth="yes"/>
      <point x="259" y="1466"/>
      <point x="326" y="1558"/>
      <point x="395" y="1558" type="qcurve" smooth="yes"/>
      <point x="465" y="1558"/>
      <point x="525" y="1465"/>
      <point x="507" y="1408" type="qcurve" smooth="yes"/>
      <point x="402" y="1126" type="line"/>
      <point x="404" y="1125" type="line"/>
      <point x="593" y="1353" type="line" smooth="yes"/>
      <point x="624" y="1392"/>
      <point x="747" y="1399"/>
      <point x="784" y="1334" type="qcurve" smooth="yes"/>
      <point x="822" y="1270"/>
      <point x="755" y="1167"/>
      <point x="703" y="1160" type="qcurve" smooth="yes"/>
      <point x="411" y="1113" type="line"/>
      <point x="412" y="1110" type="line"/>
      <point x="700" y="1058" type="line" smooth="yes"/>
      <point x="751" y="1050"/>
      <point x="818" y="949"/>
      <point x="781" y="883" type="qcurve" smooth="yes"/>
      <point x="744" y="819"/>
      <point x="620" y="825"/>
      <point x="589" y="865" type="qcurve" smooth="yes"/>
      <point x="404" y="1097" type="line"/>
      <point x="403" y="1096" type="line"/>
      <point x="506" y="821" type="line" smooth="yes"/>
      <point x="529" y="764"/>
      <point x="469" y="664"/>
    </contour>
  </outline>
</glyph>
<glyph name="plus" format="2">
  <advance width="593"/>
  <unicode hex="002B"/>
  <outline>
    <contour>
      <point x="-53" y="512" type="line"/>
      <point x="-53" y="746" type="line"/>
      <point x="646" y="746" type="line"/>
      <point x="646" y="512" type="line"/>
    </contour>
    <contour>
      <point x="173" y="284" type="line"/>
      <point x="173" y="980" type="line"/>
      <point x="420" y="980" type="line"/>
      <point x="420" y="284" type="line"/>
    </contour>
  </outline>
</glyph>
<glyph name="comma" format="2">
  <advance width="198"/>
  <unicode hex="002C"/>
  <outline>
    <contour>
      <point x="-20" y="-252" type="line"/>
      <point x="29" y="-221"/>
      <point x="143" y="-104"/>
      <point x="175" y="-9" type="qcurve"/>
      <point x="49" y="-18"/>
      <point x="-94" y="77"/>
      <point x="-94" y="177" type="qcurve" smooth="yes"/>
      <point x="-94" y="260"/>
      <point x="20" y="382"/>
      <point x="110" y="382" type="qcurve" smooth="yes"/>
      <point x="194" y="382"/>
      <point x="314" y="274"/>
      <point x="314" y="164" type="qcurve" smooth="yes"/>
      <point x="314" y="0"/>
      <point x="97" y="-223"/>
      <point x="0" y="-277" type="qcurve"/>
    </contour>
  </outline>
</glyph>
<glyph name="hyphen" format="2">
  <advance width="392"/>
  <unicode hex="002D"/>
  <outline>
    <contour>
      <point x="-53" y="515" type="line"/>
      <point x="-53" y="749" type="line"/>
      <point x="196" y="743" type="line"/>
      <point x="445" y="749" type="line"/>
      <point x="445" y="515" type="line"/>
      <point x="196" y="521" type="line"/>
    </contour>
  </outline>
</glyph>
<glyph name="period" format="2">
  <advance width="177"/>
  <unicode hex="002E"/>
  <outline>
    <contour>
      <point x="-114" y="179" type="qcurve" smooth="yes"/>
      <point x="-114" y="261"/>
      <point x="0" y="382"/>
      <point x="89" y="382" type="qcurve" smooth="yes"/>
      <point x="177" y="382"/>
      <point x="291" y="261"/>
      <point x="291" y="179" type="qcurve" smooth="yes"/>
      <point x="291" y="99"/>
      <point x="177" y="-22"/>
      <point x="89" y="-22" type="qcurve"/>
      <point x="0" y="-22"/>
      <point x="-114" y="99"/>
    </contour>
  </outline>
</glyph>
<glyph name="slash" format="2">
  <advance width="393"/>
  <unicode hex="002F"/>
  <outline>
    <contour>
      <point x="-22" y="-143" type="line"/>
      <point x="335" y="1554" type="line"/>
      <point x="398" y="1558" type="line"/>
      <point x="41" y="-139" type="line"/>
    </contour>
  </outline>
</glyph>
<glyph name="zero" format="2">
  <advance width="1106"/>
  <unicode hex="0030"/>
  <outline>
    <contour>
      <point x="-49" y="749" type="qcurve" smooth="yes"/>
      <point x="-49" y="1096"/>
      <point x="292" y="1528"/>
      <point x="554" y="1528" type="qcurve" smooth="yes"/>
      <point x="822" y="1528"/>
      <point x="1154" y="1102"/>
      <point x="1154" y="757" type="qcurve" smooth="yes"/>
      <point x="1154" y="433"/>
      <point x="827" y="-23"/>
      <point x="559" y="-23" type="qcurve" smooth="yes"/>
      <point x="288" y="-23"/>
      <point x="-49" y="400"/>
    </contour>
    <contour>
      <point x="325" y="775" type="qcurve" smooth="yes"/>
      <point x="326" y="454"/>
      <point x="450" y="24"/>
      <point x="552" y="24" type="qcurve" smooth="yes"/>
      <point x="662" y="24"/>
      <point x="778" y="418"/>
      <point x="780" y="749" type="qcurve" smooth="yes"/>
      <point x="782" y="1065"/>
      <point x="657" y="1474"/>
      <point x="555" y="1474" type="qcurve" smooth="yes"/>
      <point x="444" y="1474"/>
      <point x="324" y="1101"/>
    </contour>
  </outline>
</glyph>
<glyph name="one" format="2">
  <advance width="794"/>
  <unicode hex="0031"/>
  <outline>
    <contour>
      <point x="9" y="0" type="line"/>
      <point x="9" y="42" type="line"/>
      <point x="205" y="77" type="line"/>
      <point x="205" y="756" type="line"/>
      <point x="203" y="1419" type="line"/>
      <point x="7" y="1451" type="line"/>
      <point x="7" y="1499" type="line"/>
      <point x="548" y="1521" type="line"/>
      <point x="580" y="1486" type="line"/>
      <point x="574" y="756" type="line"/>
      <point x="574" y="77" type="line"/>
      <point x="770" y="42" type="line"/>
      <point x="770" y="0" type="line"/>
    </contour>
  </outline>
</glyph>
<glyph name="two" format="2">
  <advance width="915"/>
  <unicode hex="0032"/>
  <outline>
    <contour>
      <point x="9" y="1" type="line"/>
      <point x="9" y="211" type="line"/>
      <point x="35" y="345"/>
      <point x="151" y="593"/>
      <point x="274" y="729" type="qcurve" smooth="yes"/>
      <point x="408" y="878"/>
      <point x="484" y="1030"/>
      <point x="484" y="1180" type="qcurve" smooth="yes"/>
      <point x="484" y="1324"/>
      <point x="397" y="1474"/>
      <point x="325" y="1474" type="qcurve" smooth="yes"/>
      <point x="227" y="1474"/>
      <point x="91" y="1371"/>
      <point x="32" y="1264" type="qcurve"/>
      <point x="-1" y="1300" type="line"/>
      <point x="63" y="1407"/>
      <point x="270" y="1528"/>
      <point x="428" y="1528" type="qcurve" smooth="yes"/>
      <point x="659" y="1528"/>
      <point x="861" y="1334"/>
      <point x="861" y="1168" type="qcurve" smooth="yes"/>
      <point x="861" y="979"/>
      <point x="660" y="725"/>
      <point x="494" y="629" type="qcurve" smooth="yes"/>
      <point x="382" y="545"/>
      <point x="213" y="409"/>
      <point x="176" y="342" type="qcurve"/>
      <point x="186" y="328" type="line"/>
      <point x="905" y="328" type="line"/>
      <point x="905" y="1" type="line"/>
    </contour>
  </outline>
</glyph>
<glyph name="three" format="2">
  <advance width="828"/>
  <unicode hex="0033"/>
  <outline>
    <contour>
      <point x="-4" y="143" type="qcurve"/>
      <point x="26" y="186" type="line"/>
      <point x="70" y="112"/>
      <point x="224" y="29"/>
      <point x="301" y="29" type="qcurve" smooth="yes"/>
      <point x="388" y="29"/>
      <point x="499" y="203"/>
      <point x="499" y="384" type="qcurve" smooth="yes"/>
      <point x="499" y="584"/>
      <point x="339" y="767"/>
      <point x="225" y="769" type="qcurve" smooth="yes"/>
      <point x="182" y="769" type="line"/>
      <point x="181" y="812" type="line"/>
      <point x="246" y="817" type="line" smooth="yes"/>
      <point x="360" y="826"/>
      <point x="477" y="1033"/>
      <point x="477" y="1206" type="qcurve" smooth="yes"/>
      <point x="477" y="1337"/>
      <point x="392" y="1477"/>
      <point x="321" y="1477" type="qcurve" smooth="yes"/>
      <point x="239" y="1477"/>
      <point x="118" y="1376"/>
      <point x="85" y="1302" type="qcurve"/>
      <point x="72" y="1346" type="line"/>
      <point x="132" y="1428"/>
      <point x="321" y="1526"/>
      <point x="458" y="1526" type="qcurve" smooth="yes"/>
      <point x="636" y="1526"/>
      <point x="842" y="1337"/>
      <point x="842" y="1189" type="qcurve" smooth="yes"/>
      <point x="842" y="1031"/>
      <point x="669" y="847"/>
      <point x="510" y="803" type="qcurve"/>
      <point x="510" y="796" type="line"/>
      <point x="669" y="769"/>
      <point x="876" y="555"/>
      <point x="876" y="382" type="qcurve" smooth="yes"/>
      <point x="876" y="190"/>
      <point x="620" y="-22"/>
      <point x="413" y="-22" type="qcurve" smooth="yes"/>
      <point x="281" y="-22"/>
      <point x="74" y="56"/>
    </contour>
  </outline>
</glyph>
<glyph name="four" format="2">
  <advance width="899"/>
  <unicode hex="0034"/>
  <outline>
    <contour>
      <point x="-24" y="556" type="line"/>
      <point x="485" y="1554" type="line"/>
      <point x="610" y="1517" type="line"/>
      <point x="777" y="1501" type="line"/>
      <point x="771" y="520" type="line"/>
      <point x="771" y="77" type="line"/>
      <point x="944" y="42" type="line"/>
      <point x="944" y="0" type="line"/>
      <point x="251" y="0" type="line"/>
      <point x="251" y="42" type="line"/>
      <point x="432" y="77" type="line"/>
      <point x="441" y="518" type="line"/>
      <point x="441" y="1346" type="line"/>
      <point x="36" y="573" type="line"/>
      <point x="42" y="563" type="line"/>
      <point x="916" y="540" type="line"/>
      <point x="916" y="500" type="line"/>
      <point x="-4" y="496" type="line"/>
    </contour>
  </outline>
</glyph>
<glyph name="five" format="2">
  <advance width="870"/>
  <unicode hex="0035"/>
  <outline>
    <contour>
      <point x="-2" y="143" type="qcurve"/>
      <point x="27" y="187" type="line"/>
      <point x="74" y="124"/>
      <point x="234" y="32"/>
      <point x="314" y="32" type="qcurve" smooth="yes"/>
      <point x="418" y="32"/>
      <point x="550" y="211"/>
      <point x="550" y="403" type="qcurve" smooth="yes"/>
      <point x="550" y="594"/>
      <point x="353" y="824"/>
      <point x="221" y="824" type="qcurve" smooth="yes"/>
      <point x="147" y="824" type="line"/>
      <point x="122" y="853" type="line"/>
      <point x="190" y="1473" type="line"/>
      <point x="217" y="1506" type="line"/>
      <point x="835" y="1506" type="line"/>
      <point x="804" y="1173" type="line"/>
      <point x="214" y="1173" type="line"/>
      <point x="204" y="1162" type="line"/>
      <point x="168" y="873" type="line"/>
      <point x="320" y="913" type="line"/>
      <point x="596" y="913"/>
      <point x="914" y="705"/>
      <point x="914" y="488" type="qcurve" smooth="yes"/>
      <point x="914" y="261"/>
      <point x="619" y="-23"/>
      <point x="409" y="-23" type="qcurve" smooth="yes"/>
      <point x="238" y="-23"/>
      <point x="52" y="72"/>
    </contour>
  </outline>
</glyph>
<glyph name="six" format="2">
  <advance width="1015"/>
  <unicode hex="0036"/>
  <outline>
    <contour>
      <point x="-48" y="621" type="qcurve" smooth="yes"/>
      <point x="-48" y="952"/>
      <point x="362" y="1468"/>
      <point x="647" y="1587" type="qcurve"/>
      <point x="672" y="1563" type="line"/>
      <point x="509" y="1456"/>
      <point x="325" y="1011"/>
      <point x="325" y="618" type="qcurve" smooth="yes"/>
      <point x="325" y="325"/>
      <point x="437" y="23"/>
      <point x="520" y="23" type="qcurve" smooth="yes"/>
      <point x="585" y="23"/>
      <point x="669" y="260"/>
      <point x="669" y="457" type="qcurve" smooth="yes"/>
      <point x="669" y="652"/>
      <point x="575" y="846"/>
      <point x="493" y="846" type="qcurve" smooth="yes"/>
      <point x="483" y="846"/>
      <point x="431" y="828"/>
      <point x="398" y="805" type="qcurve"/>
      <point x="402" y="836" type="line"/>
      <point x="448" y="876"/>
      <point x="581" y="930"/>
      <point x="672" y="930" type="qcurve" smooth="yes"/>
      <point x="838" y="930"/>
      <point x="1041" y="689"/>
      <point x="1041" y="513" type="qcurve" smooth="yes"/>
      <point x="1041" y="258"/>
      <point x="768" y="-23"/>
      <point x="523" y="-23" type="qcurve" smooth="yes"/>
      <point x="246" y="-23"/>
      <point x="-48" y="336"/>
    </contour>
  </outline>
</glyph>
<glyph name="eight" format="2">
  <advance width="713"/>
  <unicode hex="0038"/>
  <outline>
    <contour>
      <point x="7" y="388" type="qcurve" smooth="yes"/>
      <point x="7" y="575"/>
      <point x="199" y="788"/>
      <point x="294" y="835" type="qcurve"/>
      <point x="292" y="808" type="line"/>
      <point x="221" y="758"/>
      <point x="69" y="563"/>
      <point x="69" y="391" type="qcurve" smooth="yes"/>
      <point x="69" y="247"/>
      <point x="208" y="22"/>
      <point x="297" y="22" type="qcurve" smooth="yes"/>
      <point x="414" y="22"/>
      <point x="480" y="191"/>
      <point x="480" y="315" type="qcurve" smooth="yes"/>
      <point x="480" y="430"/>
      <point x="375" y="571"/>
      <point x="267" y="667" type="qcurve" smooth="yes"/>
      <point x="149" y="773"/>
      <point x="34" y="979"/>
      <point x="34" y="1139" type="qcurve" smooth="yes"/>
      <point x="34" y="1309"/>
      <point x="236" y="1537"/>
      <point x="383" y="1537" type="qcurve" smooth="yes"/>
      <point x="521" y="1537"/>
      <point x="639" y="1356"/>
      <point x="639" y="1226" type="qcurve" smooth="yes"/>
      <point x="639" y="1097"/>
      <point x="508" y="910"/>
      <point x="404" y="830" type="qcurve"/>
      <point x="399" y="856" type="line"/>
      <point x="477" y="927"/>
      <point x="575" y="1099"/>
      <point x="575" y="1218" type="qcurve" smooth="yes"/>
      <point x="574" y="1331"/>
      <point x="480" y="1491"/>
      <point x="406" y="1491" type="qcurve" smooth="yes"/>
      <point x="357" y="1491"/>
      <point x="304" y="1351"/>
      <point x="304" y="1241" type="qcurve" smooth="yes"/>
      <point x="304" y="1136"/>
      <point x="337" y="998"/>
      <point x="465" y="916" type="qcurve" smooth="yes"/>
      <point x="600" y="834"/>
      <point x="719" y="610"/>
      <point x="719" y="431" type="qcurve" smooth="yes"/>
      <point x="719" y="233"/>
      <point x="495" y="-23"/>
      <point x="314" y="-23" type="qcurve" smooth="yes"/>
      <point x="178" y="-23"/>
      <point x="7" y="223"/>
    </contour>
  </outline>
</glyph>
<glyph name="nine" format="2">
  <advance width="1023"/>
  <unicode hex="0039"/>
  <outline>
    <contour>
      <point x="-27" y="1007" type="qcurve" smooth="yes"/>
      <point x="-27" y="1241"/>
      <point x="234" y="1527"/>
      <point x="487" y="1527" type="qcurve" smooth="yes"/>
      <point x="784" y="1527"/>
      <point x="1070" y="1173"/>
      <point x="1070" y="877" type="qcurve" smooth="yes"/>
      <point x="1070" y="549"/>
      <point x="650" y="37"/>
      <point x="368" y="-83" type="qcurve"/>
      <point x="343" y="-59" type="line"/>
      <point x="506" y="48"/>
      <point x="692" y="490"/>
      <point x="692" y="880" type="qcurve" smooth="yes"/>
      <point x="692" y="1173"/>
      <point x="576" y="1480"/>
      <point x="498" y="1480" type="qcurve" smooth="yes"/>
      <point x="426" y="1480"/>
      <point x="348" y="1234"/>
      <point x="348" y="1041" type="qcurve" smooth="yes"/>
      <point x="348" y="846"/>
      <point x="418" y="653"/>
      <point x="487" y="653" type="qcurve" smooth="yes"/>
      <point x="525" y="653"/>
      <point x="587" y="666"/>
      <point x="619" y="692" type="qcurve"/>
      <point x="613" y="662" type="line"/>
      <point x="563" y="610"/>
      <point x="436" y="570"/>
      <point x="382" y="569" type="qcurve" smooth="yes"/>
      <point x="181" y="568"/>
      <point x="-27" y="810"/>
    </contour>
  </outline>
</glyph>
<glyph name="colon" format="2">
  <advance width="167"/>
  <unicode hex="003A"/>
  <outline>
    <contour>
      <point x="-114" y="175" type="qcurve" smooth="yes"/>
      <point x="-114" y="255"/>
      <point x="-3" y="373"/>
      <point x="84" y="373" type="qcurve" smooth="yes"/>
      <point x="170" y="373"/>
      <point x="281" y="255"/>
      <point x="281" y="175" type="qcurve" smooth="yes"/>
      <point x="281" y="97"/>
      <point x="170" y="-21"/>
      <point x="84" y="-21" type="qcurve" smooth="yes"/>
      <point x="-3" y="-21"/>
      <point x="-114" y="97"/>
    </contour>
    <contour>
      <point x="-114" y="841" type="qcurve" smooth="yes"/>
      <point x="-114" y="921"/>
      <point x="-3" y="1039"/>
      <point x="84" y="1039" type="qcurve" smooth="yes"/>
      <point x="170" y="1039"/>
      <point x="281" y="921"/>
      <point x="281" y="841" type="qcurve" smooth="yes"/>
      <point x="281" y="763"/>
      <point x="170" y="646"/>
      <point x="84" y="646" type="qcurve" smooth="yes"/>
      <point x="-3" y="646"/>
      <point x="-114" y="763"/>
    </contour>
  </outline>
</glyph>
<glyph name="semicolon" format="2">
  <advance width="115"/>
  <unicode hex="003B"/>
  <outline>
    <contour>
      <point x="-67" y="-251" type="line"/>
      <point x="-14" y="-218"/>
      <point x="96" y="-105"/>
      <point x="127" y="-9" type="qcurve"/>
      <point x="1" y="-18"/>
      <point x="-141" y="81"/>
      <point x="-141" y="175" type="qcurve" smooth="yes"/>
      <point x="-141" y="257"/>
      <point x="-26" y="378"/>
      <point x="63" y="378" type="qcurve" smooth="yes"/>
      <point x="148" y="378"/>
      <point x="268" y="271"/>
      <point x="268" y="163" type="qcurve" smooth="yes"/>
      <point x="268" y="0"/>
      <point x="51" y="-222"/>
      <point x="-45" y="-277" type="qcurve"/>
    </contour>
    <contour>
      <point x="-134" y="841" type="qcurve" smooth="yes"/>
      <point x="-134" y="921"/>
      <point x="-23" y="1039"/>
      <point x="63" y="1039" type="qcurve" smooth="yes"/>
      <point x="150" y="1039"/>
      <point x="261" y="921"/>
      <point x="261" y="841" type="qcurve" smooth="yes"/>
      <point x="261" y="763"/>
      <point x="150" y="646"/>
      <point x="63" y="646" type="qcurve" smooth="yes"/>
      <point x="-23" y="646"/>
      <point x="-134" y="763"/>
    </contour>
  </outline>
</glyph>
<glyph name="less" format="2">
  <advance width="219"/>
  <unicode hex="003C"/>
  <outline>
    <contour>
      <point x="-21" y="634" type="qcurve"/>
      <point x="-18" y="638"/>
      <point x="263" y="1013"/>
      <point x="268" y="1052" type="qcurve" smooth="yes"/>
      <point x="274" y="1092"/>
      <point x="325" y="1097"/>
      <point x="338" y="1058" type="qcurve" smooth="yes"/>
      <point x="370" y="965"/>
      <point x="278" y="637"/>
      <point x="275" y="637" type="qcurve"/>
      <point x="278" y="637"/>
      <point x="387" y="303"/>
      <point x="356" y="211" type="qcurve" smooth="yes"/>
      <point x="343" y="173"/>
      <point x="293" y="176"/>
      <point x="287" y="216" type="qcurve" smooth="yes"/>
      <point x="280" y="258"/>
      <point x="-19" y="630"/>
    </contour>
  </outline>
</glyph>
<glyph name="equal" format="2">
  <advance width="437"/>
  <unicode hex="003D"/>
  <outline>
    <contour>
      <point x="-82" y="289" type="line"/>
      <point x="-82" y="551" type="line"/>
      <point x="217" y="545" type="line"/>
      <point x="518" y="551" type="line"/>
      <point x="518" y="289" type="line"/>
      <point x="217" y="295" type="line"/>
    </contour>
    <contour>
      <point x="-82" y="691" type="line"/>
      <point x="-82" y="953" type="line"/>
      <point x="217" y="947" type="line"/>
      <point x="518" y="953" type="line"/>
      <point x="518" y="691" type="line"/>
      <point x="217" y="697" type="line"/>
    </contour>
  </outline>
</glyph>
<glyph name="greater" format="2">
  <advance width="219"/>
  <unicode hex="003E"/>
  <outline>
    <contour>
      <point x="-138" y="214" type="qcurve" smooth="yes"/>
      <point x="-172" y="301"/>
      <point x="-61" y="637"/>
      <point x="-58" y="637" type="qcurve"/>
      <point x="-61" y="637"/>
      <point x="-151" y="961"/>
      <point x="-122" y="1057" type="qcurve" smooth="yes"/>
      <point x="-108" y="1096"/>
      <point x="-57" y="1089"/>
      <point x="-51" y="1050" type="qcurve" smooth="yes"/>
      <point x="-45" y="1012"/>
      <point x="235" y="638"/>
      <point x="238" y="634" type="qcurve"/>
      <point x="237" y="630"/>
      <point x="-64" y="260"/>
      <point x="-70" y="217" type="qcurve" smooth="yes"/>
      <point x="-76" y="176"/>
      <point x="-125" y="176"/>
    </contour>
  </outline>
</glyph>
<glyph name="question" format="2">
  <advance width="886"/>
  <unicode hex="003F"/>
  <outline>
    <contour>
      <point x="213" y="179" type="qcurve" smooth="yes"/>
      <point x="213" y="261"/>
      <point x="327" y="382"/>
      <point x="416" y="382" type="qcurve" smooth="yes"/>
      <point x="505" y="382"/>
      <point x="618" y="261"/>
      <point x="618" y="179" type="qcurve" smooth="yes"/>
      <point x="618" y="99"/>
      <point x="505" y="-22"/>
      <point x="416" y="-22" type="qcurve" smooth="yes"/>
      <point x="327" y="-22"/>
      <point x="213" y="99"/>
    </contour>
    <contour>
      <point x="-11" y="1207" type="qcurve" smooth="yes"/>
      <point x="-11" y="1349"/>
      <point x="192" y="1540"/>
      <point x="407" y="1540" type="qcurve" smooth="yes"/>
      <point x="658" y="1540"/>
      <point x="886" y="1338"/>
      <point x="886" y="1163" type="qcurve" smooth="yes"/>
      <point x="886" y="1011"/>
      <point x="723" y="868"/>
      <point x="654" y="822" type="qcurve" smooth="yes"/>
      <point x="591" y="778"/>
      <point x="427" y="632"/>
      <point x="426" y="566" type="qcurve" smooth="yes"/>
      <point x="426" y="495" type="line"/>
      <point x="384" y="495" type="line"/>
      <point x="380" y="553" type="line" smooth="yes"/>
      <point x="371" y="627"/>
      <point x="399" y="761"/>
      <point x="464" y="827" type="qcurve" smooth="yes"/>
      <point x="518" y="881"/>
      <point x="561" y="1011"/>
      <point x="561" y="1175" type="qcurve" smooth="yes"/>
      <point x="561" y="1343"/>
      <point x="462" y="1494"/>
      <point x="380" y="1494" type="qcurve" smooth="yes"/>
      <point x="304" y="1494"/>
      <point x="220" y="1398"/>
      <point x="220" y="1315" type="qcurve" smooth="yes"/>
      <point x="220" y="1254"/>
      <point x="356" y="1182"/>
      <point x="358" y="1119" type="qcurve" smooth="yes"/>
      <point x="362" y="1068"/>
      <point x="277" y="985"/>
      <point x="195" y="985" type="qcurve" smooth="yes"/>
      <point x="103" y="985"/>
      <point x="-11" y="1105"/>
    </contour>
  </outline>
</glyph>
<glyph name="at" format="2">
  <advance width="1228"/>
  <unicode hex="0040"/>
  <outline>
    <contour>
      <point x="-53" y="732" type="qcurve" smooth="yes"/>
      <point x="-53" y="1061"/>
      <point x="317" y="1520"/>
      <point x="629" y="1520" type="qcurve" smooth="yes"/>
      <point x="938" y="1520"/>
      <point x="1260" y="1155"/>
      <point x="1260" y="877" type="qcurve" smooth="yes"/>
      <point x="1260" y="630"/>
      <point x="1057" y="349"/>
      <point x="905" y="349" type="qcurve" smooth="yes"/>
      <point x="795" y="349"/>
      <point x="683" y="407"/>
      <point x="664" y="492" type="qcurve"/>
      <point x="652" y="421"/>
      <point x="586" y="317"/>
      <point x="516" y="317" type="qcurve" smooth="yes"/>
      <point x="427" y="317"/>
      <point x="295" y="443"/>
      <point x="295" y="544" type="qcurve" smooth="yes"/>
      <point x="295" y="662"/>
      <point x="476" y="802"/>
      <point x="686" y="852" type="qcurve"/>
      <point x="690" y="817" type="line"/>
      <point x="630" y="783"/>
      <point x="577" y="667"/>
      <point x="577" y="540" type="qcurve" smooth="yes"/>
      <point x="577" y="418"/>
      <point x="584" y="381"/>
      <point x="599" y="381" type="qcurve" smooth="yes"/>
      <point x="616" y="381"/>
      <point x="634" y="453"/>
      <point x="633" y="532" type="qcurve"/>
      <point x="633" y="909" type="line" smooth="yes"/>
      <point x="633" y="1087"/>
      <point x="612" y="1170"/>
      <point x="590" y="1170" type="qcurve" smooth="yes"/>
      <point x="572" y="1170"/>
      <point x="526" y="1129"/>
      <point x="530" y="1082" type="qcurve"/>
      <point x="563" y="1051"/>
      <point x="599" y="987"/>
      <point x="602" y="970" type="qcurve" smooth="yes"/>
      <point x="611" y="927"/>
      <point x="552" y="858"/>
      <point x="467" y="858" type="qcurve" smooth="yes"/>
      <point x="404" y="858"/>
      <point x="328" y="933"/>
      <point x="328" y="995" type="qcurve" smooth="yes"/>
      <point x="328" y="1084"/>
      <point x="440" y="1213"/>
      <point x="599" y="1213" type="qcurve" smooth="yes"/>
      <point x="776" y="1213"/>
      <point x="921" y="1042"/>
      <point x="914" y="854" type="qcurve" smooth="yes"/>
      <point x="915" y="447" type="line" smooth="yes"/>
      <point x="915" y="426"/>
      <point x="928" y="395"/>
      <point x="980" y="395" type="qcurve" smooth="yes"/>
      <point x="1019" y="395"/>
      <point x="1202" y="640"/>
      <point x="1202" y="874" type="qcurve" smooth="yes"/>
      <point x="1202" y="1122"/>
      <point x="891" y="1464"/>
      <point x="630" y="1464" type="qcurve" smooth="yes"/>
      <point x="356" y="1464"/>
      <point x="7" y="1042"/>
      <point x="7" y="738" type="qcurve" smooth="yes"/>
      <point x="7" y="440"/>
      <point x="334" y="23"/>
      <point x="599" y="23" type="qcurve" smooth="yes"/>
      <point x="688" y="23"/>
      <point x="867" y="103"/>
      <point x="899" y="144" type="qcurve"/>
      <point x="927" y="108" type="line"/>
      <point x="887" y="57"/>
      <point x="702" y="-30"/>
      <point x="597" y="-30" type="qcurve" smooth="yes"/>
      <point x="310" y="-30"/>
      <point x="-53" y="399"/>
    </contour>
  </outline>
</glyph>
<glyph name="A" format="2">
  <advance width="1200"/>
  <unicode hex="0041"/>
  <anchor x="493" y="0" name="bottom"/>
  <anchor x="1202" y="0" name="ogonek"/>
  <anchor x="183" y="1500" name="tonos"/>
  <anchor x="511" y="1500" name="top"/>
  <outline>
    <contour>
      <point x="49" y="0" type="line"/>
      <point x="49" y="44" type="line"/>
      <point x="141" y="79" type="line"/>
      <point x="248" y="539" type="line"/>
      <point x="457" y="1508" type="line"/>
      <point x="711" y="1508" type="line"/>
      <point x="937" y="567" type="line"/>
      <point x="1070" y="79" type="line"/>
      <point x="1155" y="44" type="line"/>
      <point x="1155" y="0" type="line"/>
      <point x="548" y="0" type="line"/>
      <point x="548" y="44" type="line"/>
      <point x="677" y="75" type="line"/>
      <point x="574" y="513" type="line"/>
      <point x="446" y="1046" type="line"/>
      <point x="424" y="1160" type="line"/>
      <point x="417" y="1160" type="line"/>
      <point x="395" y="1046" type="line"/>
      <point x="307" y="517" type="line"/>
      <point x="207" y="74" type="line"/>
      <point x="332" y="44" type="line"/>
      <point x="332" y="0" type="line"/>
    </contour>
    <contour>
      <point x="444" y="524" type="line"/>
      <point x="611" y="524" type="line"/>
      <point x="617" y="479" type="line"/>
      <point x="444" y="479" type="line"/>
    </contour>
    <contour>
      <point x="282" y="479" type="line"/>
      <point x="285" y="523" type="line"/>
      <point x="444" y="524" type="line"/>
      <point x="444" y="479" type="line"/>
    </contour>
  </outline>
</glyph>
<glyph name="B" format="2">
  <advance width="1153"/>
  <unicode hex="0042"/>
  <anchor x="627" y="0" name="bottom"/>
  <anchor x="627" y="1500" name="top"/>
  <outline>
    <contour>
      <point x="26" y="0" type="line"/>
      <point x="26" y="44" type="line"/>
      <point x="152" y="80" type="line"/>
      <point x="154" y="784" type="line"/>
      <point x="152" y="1416" type="line"/>
      <point x="26" y="1450" type="line"/>
      <point x="26" y="1500" type="line"/>
      <point x="685" y="1500" type="line" smooth="yes"/>
      <point x="905" y="1500"/>
      <point x="1116" y="1315"/>
      <point x="1116" y="1172" type="qcurve" smooth="yes"/>
      <point x="1116" y="1037"/>
      <point x="969" y="857"/>
      <point x="831" y="830" type="qcurve"/>
      <point x="831" y="820" type="line"/>
      <point x="988" y="798"/>
      <point x="1195" y="602"/>
      <point x="1195" y="433" type="qcurve" smooth="yes"/>
      <point x="1195" y="246"/>
      <point x="929" y="0"/>
      <point x="698" y="0" type="qcurve" smooth="yes"/>
    </contour>
    <contour>
      <point x="530" y="72" type="line"/>
      <point x="563" y="48" type="line"/>
      <point x="620" y="48" type="line" smooth="yes"/>
      <point x="715" y="48"/>
      <point x="805" y="229"/>
      <point x="805" y="426" type="qcurve" smooth="yes"/>
      <point x="805" y="593"/>
      <point x="727" y="772"/>
      <point x="653" y="772" type="qcurve" smooth="yes"/>
      <point x="534" y="772" type="line"/>
      <point x="530" y="756" type="line"/>
    </contour>
    <contour>
      <point x="529" y="836" type="line"/>
      <point x="538" y="819" type="line"/>
      <point x="614" y="819" type="line" smooth="yes"/>
      <point x="687" y="819"/>
      <point x="761" y="987"/>
      <point x="761" y="1155" type="qcurve" smooth="yes"/>
      <point x="761" y="1307"/>
      <point x="689" y="1446"/>
      <point x="619" y="1446" type="qcurve" smooth="yes"/>
      <point x="561" y="1446" type="line"/>
      <point x="532" y="1425" type="line"/>
    </contour>
  </outline>
</glyph>
<glyph name="C" format="2">
  <advance width="1010"/>
  <unicode hex="0043"/>
  <anchor x="540" y="0" name="bottom"/>
  <anchor x="550" y="1500" name="top"/>
  <outline>
    <contour>
      <point x="-54" y="700" type="qcurve" smooth="yes"/>
      <point x="-54" y="1064"/>
      <point x="260" y="1520"/>
      <point x="553" y="1520" type="qcurve" smooth="yes"/>
      <point x="641" y="1520"/>
      <point x="803" y="1476"/>
      <point x="863" y="1422" type="qcurve"/>
      <point x="918" y="1536" type="line"/>
      <point x="964" y="1536" type="line"/>
      <point x="964" y="1034" type="line"/>
      <point x="909" y="1034" type="line"/>
      <point x="872" y="1274" type="line" smooth="yes"/>
      <point x="851" y="1371"/>
      <point x="732" y="1467"/>
      <point x="642" y="1467" type="qcurve" smooth="yes"/>
      <point x="501" y="1467"/>
      <point x="337" y="1098"/>
      <point x="338" y="740" type="qcurve" smooth="yes"/>
      <point x="339" y="401"/>
      <point x="495" y="29"/>
      <point x="651" y="29" type="qcurve" smooth="yes"/>
      <point x="739" y="29"/>
      <point x="924" y="161"/>
      <point x="987" y="279" type="qcurve"/>
      <point x="1027" y="245" type="line"/>
      <point x="945" y="108"/>
      <point x="686" y="-30"/>
      <point x="541" y="-30" type="qcurve" smooth="yes"/>
      <point x="264" y="-30"/>
      <point x="-54" y="371"/>
    </contour>
  </outline>
</glyph>
<glyph name="E" format="2">
  <advance width="1002"/>
  <unicode hex="0045"/>
  <anchor x="508" y="0" name="bottom"/>
  <anchor x="740" y="0" name="ogonek"/>
  <anchor x="481" y="1501" name="top"/>
  <anchor x="-96" y="1500" name="tonos"/>
  <outline>
    <contour>
      <point x="27" y="0" type="line"/>
      <point x="27" y="44" type="line"/>
      <point x="153" y="81" type="line"/>
      <point x="155" y="783" type="line"/>
      <point x="153" y="1416" type="line"/>
      <point x="27" y="1450" type="line"/>
      <point x="27" y="1500" type="line"/>
      <point x="896" y="1500" type="line"/>
      <point x="896" y="1148" type="line"/>
      <point x="844" y="1148" type="line"/>
      <point x="809" y="1451" type="line"/>
      <point x="547" y="1451" type="line"/>
      <point x="524" y="1431" type="line"/>
      <point x="522" y="783" type="line"/>
      <point x="524" y="96" type="line"/>
      <point x="554" y="45" type="line"/>
      <point x="872" y="45" type="line"/>
      <point x="948" y="382" type="line"/>
      <point x="1000" y="382" type="line"/>
      <point x="960" y="0" type="line"/>
    </contour>
    <contour>
      <point x="443" y="765" type="line"/>
      <point x="443" y="805" type="line"/>
      <point x="755" y="809" type="line"/>
      <point x="790" y="1008" type="line"/>
      <point x="842" y="1008" type="line"/>
      <point x="842" y="564" type="line"/>
      <point x="790" y="564" type="line"/>
      <point x="755" y="761" type="line"/>
    </contour>
  </outline>
</glyph>
<glyph name="F" format="2">
  <advance width="866"/>
  <unicode hex="0046"/>
  <anchor x="435" y="0" name="bottom"/>
  <anchor x="479" y="1500" name="top"/>
  <outline>
    <contour>
      <point x="26" y="0" type="line"/>
      <point x="26" y="44" type="line"/>
      <point x="152" y="81" type="line"/>
      <point x="154" y="760" type="line"/>
      <point x="152" y="1416" type="line"/>
      <point x="26" y="1450" type="line"/>
      <point x="26" y="1500" type="line"/>
      <point x="865" y="1500" type="line"/>
      <point x="865" y="1114" type="line"/>
      <point x="813" y="1114" type="line"/>
      <point x="778" y="1451" type="line"/>
      <point x="560" y="1451" type="line"/>
      <point x="530" y="1431" type="line"/>
      <point x="528" y="760" type="line"/>
      <point x="530" y="76" type="line"/>
      <point x="669" y="44" type="line"/>
      <point x="669" y="0" type="line"/>
    </contour>
    <contour>
      <point x="440" y="738" type="line"/>
      <point x="440" y="781" type="line"/>
      <point x="723" y="784" type="line"/>
      <point x="758" y="1038" type="line"/>
      <point x="810" y="1038" type="line"/>
      <point x="810" y="471" type="line"/>
      <point x="758" y="471" type="line"/>
      <point x="723" y="736" type="line"/>
    </contour>
  </outline>
</glyph>
<glyph name="G" format="2">
  <advance width="1420"/>
  <unicode hex="0047"/>
  <anchor x="660" y="0" name="bottom"/>
  <anchor x="662" y="1500" name="top"/>
  <outline>
    <contour>
      <point x="-53" y="744" type="qcurve" smooth="yes"/>
      <point x="-53" y="1080"/>
      <point x="316" y="1522"/>
      <point x="641" y="1522" type="qcurve" smooth="yes"/>
      <point x="743" y="1522"/>
      <point x="925" y="1479"/>
      <point x="979" y="1427" type="qcurve"/>
      <point x="1047" y="1502" type="line"/>
      <point x="1096" y="1502" type="line"/>
      <point x="1096" y="1117" type="line"/>
      <point x="1042" y="1117" type="line"/>
      <point x="1001" y="1273" type="line" smooth="yes"/>
      <point x="974" y="1375"/>
      <point x="798" y="1466"/>
      <point x="686" y="1466" type="qcurve" smooth="yes"/>
      <point x="505" y="1466"/>
      <point x="338" y="1096"/>
      <point x="339" y="768" type="qcurve" smooth="yes"/>
      <point x="340" y="434"/>
      <point x="508" y="20"/>
      <point x="667" y="20" type="qcurve" smooth="yes"/>
      <point x="743" y="20"/>
      <point x="868" y="130"/>
      <point x="892" y="216" type="qcurve"/>
      <point x="892" y="579" type="line"/>
      <point x="772" y="614" type="line"/>
      <point x="772" y="658" type="line"/>
      <point x="1346" y="658" type="line"/>
      <point x="1346" y="614" type="line"/>
      <point x="1266" y="579" type="line"/>
      <point x="1266" y="219" type="line"/>
      <point x="1174" y="110"/>
      <point x="854" y="-32"/>
      <point x="636" y="-32" type="qcurve" smooth="yes"/>
      <point x="290" y="-32"/>
      <point x="-53" y="393"/>
    </contour>
  </outline>
</glyph>
<glyph name="J" format="2">
  <advance width="642"/>
  <unicode hex="004A"/>
  <anchor x="267" y="-208" name="bottom"/>
  <anchor x="310" y="1500" name="top"/>
  <outline>
    <contour>
      <point x="-74" y="-204" type="qcurve"/>
      <point x="-74" y="-152" type="line"/>
      <point x="-49" y="-155"/>
      <point x="-6" y="-156"/>
      <point x="25" y="-152" type="qcurve" smooth="yes"/>
      <point x="82" y="-144"/>
      <point x="137" y="-61"/>
      <point x="137" y="33" type="qcurve" smooth="yes"/>
      <point x="135" y="834" type="line"/>
      <point x="133" y="1417" type="line"/>
      <point x="10" y="1451" type="line"/>
      <point x="10" y="1500" type="line"/>
      <point x="623" y="1500" type="line"/>
      <point x="623" y="1449" type="line"/>
      <point x="508" y="1415" type="line"/>
      <point x="506" y="834" type="line"/>
      <point x="518" y="189" type="line" smooth="yes"/>
      <point x="522" y="-29"/>
      <point x="297" y="-199"/>
      <point x="103" y="-207" type="qcurve" smooth="yes"/>
      <point x="31" y="-210"/>
      <point x="-49" y="-206"/>
    </contour>
  </outline>
</glyph>
<glyph name="K" format="2">
  <advance width="1451"/>
  <unicode hex="004B"/>
  <anchor x="751" y="0" name="bottom"/>
  <anchor x="709" y="1500" name="top"/>
  <outline>
    <contour>
      <point x="27" y="0" type="line"/>
      <point x="27" y="44" type="line"/>
      <point x="153" y="79" type="line"/>
      <point x="155" y="754" type="line"/>
      <point x="153" y="1416" type="line"/>
      <point x="27" y="1450" type="line"/>
      <point x="27" y="1500" type="line"/>
      <point x="651" y="1500" type="line"/>
      <point x="651" y="1450" type="line"/>
      <point x="531" y="1416" type="line"/>
      <point x="529" y="754" type="line"/>
      <point x="531" y="79" type="line"/>
      <point x="657" y="44" type="line"/>
      <point x="657" y="0" type="line"/>
    </contour>
    <contour>
      <point x="469" y="441" type="line"/>
      <point x="469" y="548" type="line"/>
      <point x="1121" y="1402" type="line"/>
      <point x="973" y="1450" type="line"/>
      <point x="973" y="1500" type="line"/>
      <point x="1241" y="1500" type="line"/>
      <point x="1241" y="1450" type="line"/>
      <point x="1194" y="1402" type="line"/>
      <point x="779" y="887" type="line"/>
      <point x="754" y="862" type="line"/>
    </contour>
    <contour>
      <point x="681" y="856" type="line"/>
      <point x="986" y="1159" type="line"/>
      <point x="1447" y="79" type="line"/>
      <point x="1502" y="44" type="line"/>
      <point x="1502" y="0" type="line"/>
      <point x="827" y="0" type="line"/>
      <point x="827" y="44" type="line"/>
      <point x="969" y="79" type="line"/>
    </contour>
  </outline>
</glyph>
<glyph name="L" format="2">
  <advance width="1055"/>
  <unicode hex="004C"/>
  <anchor x="364" y="0" name="bottom"/>
  <anchor x="658" y="750" name="centerright"/>
  <anchor x="424" y="1500" name="top"/>
  <anchor x="514" y="1001" name="topright"/>
  <anchor x="343" y="750" name="center"/>
  <outline>
    <contour>
      <point x="34" y="0" type="line"/>
      <point x="34" y="44" type="line"/>
      <point x="160" y="76" type="line"/>
      <point x="162" y="754" type="line"/>
      <point x="160" y="1416" type="line"/>
      <point x="34" y="1450" type="line"/>
      <point x="34" y="1500" type="line"/>
      <point x="678" y="1500" type="line"/>
      <point x="678" y="1450" type="line"/>
      <point x="539" y="1416" type="line"/>
      <point x="537" y="754" type="line"/>
      <point x="539" y="72" type="line"/>
      <point x="579" y="45" type="line"/>
      <point x="885" y="45" type="line"/>
      <point x="971" y="463" type="line"/>
      <point x="1029" y="463" type="line"/>
      <point x="978" y="0" type="line"/>
    </contour>
  </outline>
</glyph>
<glyph name="M" format="2">
  <advance width="1603"/>
  <unicode hex="004D"/>
  <anchor x="787" y="0" name="bottom"/>
  <anchor x="787" y="1500" name="top"/>
  <outline>
    <contour>
      <point x="26" y="0" type="line"/>
      <point x="26" y="44" type="line"/>
      <point x="152" y="79" type="line"/>
      <point x="153" y="754" type="line"/>
      <point x="152" y="1416" type="line"/>
      <point x="26" y="1450" type="line"/>
      <point x="26" y="1500" type="line"/>
      <point x="550" y="1500" type="line"/>
      <point x="699" y="801" type="line"/>
      <point x="783" y="388" type="line"/>
      <point x="800" y="274" type="line"/>
      <point x="810" y="274" type="line"/>
      <point x="829" y="387" type="line"/>
      <point x="914" y="779" type="line"/>
      <point x="1078" y="1500" type="line"/>
      <point x="1577" y="1500" type="line"/>
      <point x="1577" y="1450" type="line"/>
      <point x="1451" y="1416" type="line"/>
      <point x="1449" y="754" type="line"/>
      <point x="1451" y="79" type="line"/>
      <point x="1577" y="44" type="line"/>
      <point x="1577" y="0" type="line"/>
      <point x="928" y="0" type="line"/>
      <point x="928" y="44" type="line"/>
      <point x="1072" y="79" type="line"/>
      <point x="1074" y="754" type="line"/>
      <point x="1072" y="1210" type="line"/>
      <point x="1077" y="1330" type="line"/>
      <point x="1067" y="1331" type="line"/>
      <point x="1048" y="1224" type="line"/>
      <point x="939" y="743" type="line"/>
      <point x="761" y="-8" type="line"/>
      <point x="495" y="-8" type="line"/>
      <point x="333" y="741" type="line"/>
      <point x="226" y="1228" type="line"/>
      <point x="208" y="1334" type="line"/>
      <point x="198" y="1333" type="line"/>
      <point x="203" y="1214" type="line"/>
      <point x="202" y="754" type="line"/>
      <point x="203" y="79" type="line"/>
      <point x="335" y="44" type="line"/>
      <point x="335" y="0" type="line"/>
    </contour>
  </outline>
</glyph>
<glyph name="N" format="2">
  <advance width="1242"/>
  <unicode hex="004E"/>
  <anchor x="599" y="0" name="bottom"/>
  <anchor x="600" y="1500" name="top"/>
  <outline>
    <contour>
      <point x="26" y="0" type="line"/>
      <point x="26" y="44" type="line"/>
      <point x="152" y="79" type="line"/>
      <point x="153" y="754" type="line"/>
      <point x="152" y="1416" type="line"/>
      <point x="26" y="1450" type="line"/>
      <point x="26" y="1500" type="line"/>
      <point x="565" y="1500" type="line"/>
      <point x="830" y="833" type="line"/>
      <point x="966" y="528" type="line"/>
      <point x="1005" y="423" type="line"/>
      <point x="1014" y="426" type="line"/>
      <point x="1010" y="546" type="line"/>
      <point x="1010" y="754" type="line"/>
      <point x="1009" y="1416" type="line"/>
      <point x="871" y="1450" type="line"/>
      <point x="871" y="1500" type="line"/>
      <point x="1185" y="1500" type="line"/>
      <point x="1185" y="1450" type="line"/>
      <point x="1059" y="1416" type="line"/>
      <point x="1058" y="754" type="line"/>
      <point x="1057" y="0" type="line"/>
      <point x="757" y="0" type="line"/>
      <point x="444" y="762" type="line"/>
      <point x="244" y="1218" type="line"/>
      <point x="206" y="1321" type="line"/>
      <point x="197" y="1318" type="line"/>
      <point x="202" y="1199" type="line"/>
      <point x="201" y="754" type="line"/>
      <point x="202" y="79" type="line"/>
      <point x="334" y="44" type="line"/>
      <point x="334" y="0" type="line"/>
    </contour>
  </outline>
</glyph>
<glyph name="O" format="2">
  <advance width="1256"/>
  <unicode hex="004F"/>
  <anchor x="627" y="0" name="bottom"/>
  <anchor x="634" y="750" name="center"/>
  <anchor x="826" y="0" name="ogonek"/>
  <anchor x="627" y="1500" name="top"/>
  <anchor x="787" y="1500" name="topright"/>
  <anchor x="39" y="1500" name="tonos"/>
  <outline>
    <contour>
      <point x="-53" y="737" type="qcurve" smooth="yes"/>
      <point x="-53" y="1069"/>
      <point x="323" y="1522"/>
      <point x="627" y="1522" type="qcurve" smooth="yes"/>
      <point x="933" y="1522"/>
      <point x="1309" y="1098"/>
      <point x="1309" y="752" type="qcurve" smooth="yes"/>
      <point x="1309" y="422"/>
      <point x="936" y="-33"/>
      <point x="631" y="-33" type="qcurve" smooth="yes"/>
      <point x="334" y="-33"/>
      <point x="-53" y="395"/>
    </contour>
    <contour>
      <point x="340" y="771" type="qcurve" smooth="yes"/>
      <point x="340" y="443"/>
      <point x="501" y="21"/>
      <point x="630" y="21" type="qcurve" smooth="yes"/>
      <point x="771" y="21"/>
      <point x="918" y="398"/>
      <point x="918" y="745" type="qcurve" smooth="yes"/>
      <point x="918" y="1056"/>
      <point x="760" y="1465"/>
      <point x="630" y="1465" type="qcurve" smooth="yes"/>
      <point x="489" y="1465"/>
      <point x="340" y="1092"/>
    </contour>
  </outline>
</glyph>
<glyph name="P" format="2">
  <advance width="1198"/>
  <unicode hex="0050"/>
  <anchor x="532" y="0" name="bottom"/>
  <anchor x="532" y="1500" name="top"/>
  <outline>
    <contour>
      <point x="26" y="0" type="line"/>
      <point x="26" y="44" type="line"/>
      <point x="152" y="81" type="line"/>
      <point x="153" y="754" type="line"/>
      <point x="152" y="1416" type="line"/>
      <point x="26" y="1450" type="line"/>
      <point x="26" y="1500" type="line"/>
      <point x="707" y="1500" type="line" smooth="yes"/>
      <point x="960" y="1500"/>
      <point x="1224" y="1284"/>
      <point x="1224" y="1072" type="qcurve" smooth="yes"/>
      <point x="1224" y="866"/>
      <point x="945" y="599"/>
      <point x="692" y="599" type="qcurve" smooth="yes"/>
      <point x="595" y="599"/>
      <point x="496" y="615"/>
      <point x="448" y="628" type="qcurve"/>
      <point x="452" y="675" type="line"/>
      <point x="501" y="659"/>
      <point x="592" y="647"/>
      <point x="614" y="647" type="qcurve" smooth="yes"/>
      <point x="723" y="647"/>
      <point x="814" y="873"/>
      <point x="814" y="1072" type="qcurve" smooth="yes"/>
      <point x="814" y="1261"/>
      <point x="728" y="1451"/>
      <point x="645" y="1451" type="qcurve" smooth="yes"/>
      <point x="565" y="1451" type="line"/>
      <point x="531" y="1429" type="line"/>
      <point x="528" y="764" type="line"/>
      <point x="530" y="76" type="line"/>
      <point x="669" y="44" type="line"/>
      <point x="669" y="0" type="line"/>
    </contour>
  </outline>
</glyph>
<glyph name="Q" format="2">
  <advance width="1522"/>
  <unicode hex="0051"/>
  <anchor x="761" y="0" name="bottom"/>
  <anchor x="819" y="1487" name="top"/>
  <outline>
    <contour>
      <point x="80" y="746" type="qcurve" smooth="yes"/>
      <point x="80" y="1090"/>
      <point x="472" y="1522"/>
      <point x="761" y="1522" type="qcurve" smooth="yes"/>
      <point x="1052" y="1522"/>
      <point x="1442" y="1119"/>
      <point x="1442" y="754" type="qcurve" smooth="yes"/>
      <point x="1442" y="384"/>
      <point x="1036" y="-20"/>
      <point x="761" y="-20" type="qcurve" smooth="yes"/>
      <point x="462" y="-20"/>
      <point x="80" y="399"/>
    </contour>
    <contour>
      <point x="473" y="772" type="qcurve" smooth="yes"/>
      <point x="475" y="437"/>
      <point x="630" y="28"/>
      <point x="759" y="28" type="qcurve" smooth="yes"/>
      <point x="898" y="28"/>
      <point x="1049" y="423"/>
      <point x="1051" y="747" type="qcurve" smooth="yes"/>
      <point x="1053" y="1060"/>
      <point x="893" y="1465"/>
      <point x="763" y="1465" type="qcurve" smooth="yes"/>
      <point x="622" y="1465"/>
      <point x="471" y="1095"/>
    </contour>
    <contour>
      <point x="486" y="66" type="qcurve" identifier="jWZBD98qkQ"/>
      <point x="1222" y="-205" type="line" identifier="7ZXZEQkAbx"/>
      <point x="1249" y="-221"/>
      <point x="1318" y="-154"/>
      <point x="1341" y="-71" type="qcurve"/>
      <point x="1384" y="-104" type="line"/>
      <point x="1324" y="-312"/>
      <point x="1182" y="-505"/>
      <point x="1098" y="-493" type="qcurve" identifier="bSft9tBggp"/>
      <point x="373" y="-222" type="line" identifier="aDYWDNvZlZ"/>
      <point x="328" y="-209"/>
      <point x="264" y="-232"/>
      <point x="231" y="-295" type="qcurve"/>
      <point x="191" y="-252" type="line"/>
      <point x="249" y="-103"/>
      <point x="389" y="66"/>
    </contour>
    <contour>
      <point x="567" y="-108" type="line"/>
      <point x="653" y="251" type="line"/>
      <point x="708" y="227" type="line"/>
      <point x="618" y="-124" type="line"/>
    </contour>
  </outline>
</glyph>
<glyph name="R" format="2">
  <advance width="1328"/>
  <unicode hex="0052"/>
  <anchor x="649" y="0" name="bottom"/>
  <anchor x="628" y="1500" name="top"/>
  <outline>
    <contour>
      <point x="26" y="0" type="line"/>
      <point x="26" y="44" type="line"/>
      <point x="151" y="80" type="line"/>
      <point x="153" y="794" type="line"/>
      <point x="151" y="1416" type="line"/>
      <point x="26" y="1450" type="line"/>
      <point x="26" y="1500" type="line"/>
      <point x="673" y="1500" type="line" smooth="yes"/>
      <point x="936" y="1500"/>
      <point x="1190" y="1315"/>
      <point x="1190" y="1149" type="qcurve" smooth="yes"/>
      <point x="1190" y="966"/>
      <point x="879" y="736"/>
      <point x="671" y="736" type="qcurve" smooth="yes"/>
      <point x="634" y="736"/>
      <point x="513" y="739"/>
      <point x="481" y="741" type="qcurve"/>
      <point x="481" y="782" type="line"/>
      <point x="629" y="782" type="line" smooth="yes"/>
      <point x="715" y="782"/>
      <point x="794" y="976"/>
      <point x="794" y="1137" type="qcurve" smooth="yes"/>
      <point x="794" y="1285"/>
      <point x="726" y="1451"/>
      <point x="650" y="1451" type="qcurve" smooth="yes"/>
      <point x="560" y="1451" type="line"/>
      <point x="531" y="1433" type="line"/>
      <point x="527" y="794" type="line"/>
      <point x="529" y="80" type="line"/>
      <point x="660" y="44" type="line"/>
      <point x="660" y="0" type="line"/>
    </contour>
    <contour>
      <point x="631" y="752" type="line"/>
      <point x="991" y="818" type="line"/>
      <point x="1226" y="259" type="line" smooth="yes"/>
      <point x="1262" y="148"/>
      <point x="1299" y="64"/>
      <point x="1332" y="44" type="qcurve"/>
      <point x="1332" y="0" type="line"/>
      <point x="922" y="0" type="line"/>
      <point x="893" y="20" type="line"/>
    </contour>
  </outline>
</glyph>
<glyph name="S" format="2">
  <advance width="951"/>
  <unicode hex="0053"/>
  <anchor x="437" y="0" name="bottom"/>
  <anchor x="476" y="1500" name="top"/>
  <outline>
    <contour>
      <point x="-11" y="-36" type="line"/>
      <point x="-11" y="485" type="line"/>
      <point x="44" y="485" type="line"/>
      <point x="64" y="308" type="line" smooth="yes"/>
      <point x="93" y="149"/>
      <point x="330" y="31"/>
      <point x="440" y="31" type="qcurve" smooth="yes"/>
      <point x="579" y="31"/>
      <point x="667" y="164"/>
      <point x="667" y="287" type="qcurve" smooth="yes"/>
      <point x="667" y="429"/>
      <point x="562" y="548"/>
      <point x="375" y="604" type="qcurve" smooth="yes"/>
      <point x="198" y="650"/>
      <point x="10" y="887"/>
      <point x="10" y="1058" type="qcurve" smooth="yes"/>
      <point x="10" y="1258"/>
      <point x="238" y="1520"/>
      <point x="474" y="1520" type="qcurve" smooth="yes"/>
      <point x="542" y="1520"/>
      <point x="679" y="1493"/>
      <point x="779" y="1421" type="qcurve"/>
      <point x="794" y="1523" type="line"/>
      <point x="843" y="1523" type="line"/>
      <point x="843" y="1058" type="line"/>
      <point x="790" y="1058" type="line"/>
      <point x="766" y="1282" type="line" smooth="yes"/>
      <point x="748" y="1393"/>
      <point x="569" y="1465"/>
      <point x="488" y="1465" type="qcurve" smooth="yes"/>
      <point x="380" y="1465"/>
      <point x="314" y="1347"/>
      <point x="314" y="1235" type="qcurve" smooth="yes"/>
      <point x="314" y="1113"/>
      <point x="390" y="1002"/>
      <point x="552" y="954" type="qcurve" smooth="yes"/>
      <point x="748" y="898"/>
      <point x="967" y="662"/>
      <point x="967" y="471" type="qcurve" smooth="yes"/>
      <point x="967" y="238"/>
      <point x="716" y="-20"/>
      <point x="486" y="-20" type="qcurve" smooth="yes"/>
      <point x="375" y="-20"/>
      <point x="182" y="32"/>
      <point x="79" y="113" type="qcurve"/>
      <point x="38" y="-36" type="line"/>
    </contour>
  </outline>
</glyph>
<glyph name="T" format="2">
  <advance width="993"/>
  <unicode hex="0054"/>
  <anchor x="492" y="0" name="bottom"/>
  <anchor x="492" y="750" name="center"/>
  <anchor x="492" y="1500" name="top"/>
  <outline>
    <contour>
      <point x="9" y="1117" type="line"/>
      <point x="9" y="1500" type="line"/>
      <point x="983" y="1500" type="line"/>
      <point x="983" y="1116" type="line"/>
      <point x="931" y="1116" type="line"/>
      <point x="896" y="1451" type="line"/>
      <point x="704" y="1451" type="line"/>
      <point x="685" y="1431" type="line"/>
      <point x="683" y="754" type="line"/>
      <point x="685" y="80" type="line"/>
      <point x="817" y="44" type="line"/>
      <point x="817" y="0" type="line"/>
      <point x="174" y="0" type="line"/>
      <point x="174" y="44" type="line"/>
      <point x="307" y="80" type="line"/>
      <point x="309" y="754" type="line"/>
      <point x="307" y="1431" type="line"/>
      <point x="298" y="1451" type="line"/>
      <point x="96" y="1451" type="line"/>
      <point x="61" y="1117" type="line"/>
    </contour>
  </outline>
</glyph>
<glyph name="U" format="2">
  <advance width="1216"/>
  <unicode hex="0055"/>
  <anchor x="648" y="0" name="bottom"/>
  <anchor x="796" y="0" name="ogonek"/>
  <anchor x="655" y="1500" name="top"/>
  <anchor x="1685" y="1500" name="topright"/>
  <outline>
    <contour>
      <point x="39" y="1450" type="line"/>
      <point x="39" y="1500" type="line"/>
      <point x="663" y="1500" type="line"/>
      <point x="663" y="1450" type="line"/>
      <point x="535" y="1416" type="line"/>
      <point x="533" y="794" type="line"/>
      <point x="534" y="474" type="line" smooth="yes"/>
      <point x="536" y="236"/>
      <point x="630" y="28"/>
      <point x="698" y="28" type="qcurve" smooth="yes"/>
      <point x="802" y="28"/>
      <point x="944" y="255"/>
      <point x="944" y="494" type="qcurve" smooth="yes"/>
      <point x="945" y="794" type="line"/>
      <point x="944" y="1416" type="line"/>
      <point x="812" y="1450" type="line"/>
      <point x="812" y="1500" type="line"/>
      <point x="1128" y="1500" type="line"/>
      <point x="1128" y="1450" type="line"/>
      <point x="1002" y="1416" type="line"/>
      <point x="1001" y="794" type="line"/>
      <point x="1002" y="493" type="line" smooth="yes"/>
      <point x="1003" y="223"/>
      <point x="769" y="-31"/>
      <point x="591" y="-31" type="qcurve" smooth="yes"/>
      <point x="396" y="-31"/>
      <point x="155" y="232"/>
      <point x="157" y="481" type="qcurve" smooth="yes"/>
      <point x="161" y="794" type="line"/>
      <point x="159" y="1416" type="line"/>
    </contour>
  </outline>
</glyph>
<glyph name="V" format="2">
  <advance width="1157"/>
  <unicode hex="0056"/>
  <anchor x="671" y="0" name="bottom"/>
  <anchor x="681" y="1500" name="top"/>
  <outline>
    <contour>
      <point x="36" y="1450" type="line"/>
      <point x="36" y="1500" type="line"/>
      <point x="630" y="1500" type="line"/>
      <point x="630" y="1450" type="line"/>
      <point x="504" y="1409" type="line"/>
      <point x="632" y="851" type="line"/>
      <point x="716" y="466" type="line"/>
      <point x="742" y="352" type="line"/>
      <point x="752" y="352" type="line"/>
      <point x="781" y="466" type="line"/>
      <point x="867" y="841" type="line"/>
      <point x="994" y="1416" type="line"/>
      <point x="858" y="1450" type="line"/>
      <point x="858" y="1500" type="line"/>
      <point x="1137" y="1506" type="line"/>
      <point x="1137" y="1456" type="line"/>
      <point x="1053" y="1411" type="line"/>
      <point x="904" y="799" type="line"/>
      <point x="715" y="-12" type="line"/>
      <point x="462" y="-12" type="line"/>
      <point x="273" y="791" type="line"/>
      <point x="113" y="1411" type="line"/>
    </contour>
  </outline>
</glyph>
<glyph name="W" format="2">
  <advance width="1787"/>
  <unicode hex="0057"/>
  <anchor x="905" y="0" name="bottom"/>
  <anchor x="905" y="1500" name="top"/>
  <outline>
    <contour>
      <point x="444" y="-12" type="line"/>
      <point x="275" y="741" type="line"/>
      <point x="115" y="1410" type="line"/>
      <point x="36" y="1450" type="line"/>
      <point x="36" y="1500" type="line"/>
      <point x="644" y="1500" type="line"/>
      <point x="644" y="1450" type="line"/>
      <point x="509" y="1408" type="line"/>
      <point x="644" y="803" type="line"/>
      <point x="723" y="426" type="line"/>
      <point x="741" y="312" type="line"/>
      <point x="751" y="312" type="line"/>
      <point x="769" y="426" type="line"/>
      <point x="807" y="645" type="line"/>
      <point x="872" y="1067" type="line"/>
      <point x="775" y="1414" type="line"/>
      <point x="693" y="1453" type="line"/>
      <point x="693" y="1500" type="line"/>
      <point x="1288" y="1500" type="line"/>
      <point x="1288" y="1453" type="line"/>
      <point x="1168" y="1412" type="line"/>
      <point x="1289" y="801" type="line"/>
      <point x="1358" y="426" type="line"/>
      <point x="1373" y="312" type="line"/>
      <point x="1383" y="312" type="line"/>
      <point x="1402" y="426" type="line"/>
      <point x="1474" y="792" type="line"/>
      <point x="1607" y="1411" type="line"/>
      <point x="1468" y="1450" type="line"/>
      <point x="1468" y="1500" type="line"/>
      <point x="1763" y="1500" type="line"/>
      <point x="1763" y="1450" type="line"/>
      <point x="1671" y="1406" type="line"/>
      <point x="1532" y="772" type="line"/>
      <point x="1362" y="-12" type="line"/>
      <point x="1109" y="-12" type="line"/>
      <point x="910" y="854" type="line"/>
      <point x="890" y="968" type="line"/>
      <point x="880" y="968" type="line"/>
      <point x="863" y="854" type="line"/>
      <point x="695" y="-12" type="line"/>
    </contour>
  </outline>
</glyph>
<glyph name="X" format="2">
  <advance width="1179"/>
  <unicode hex="0058"/>
  <anchor x="597" y="0" name="bottom"/>
  <anchor x="609" y="1500" name="top"/>
  <outline>
    <contour>
      <point x="8" y="0" type="line"/>
      <point x="8" y="44" type="line"/>
      <point x="73" y="79" type="line"/>
      <point x="397" y="795" type="line"/>
      <point x="107" y="1419" type="line"/>
      <point x="54" y="1450" type="line"/>
      <point x="54" y="1500" type="line"/>
      <point x="730" y="1500" type="line"/>
      <point x="730" y="1450" type="line"/>
      <point x="582" y="1417" type="line"/>
      <point x="749" y="1087" type="line"/>
      <point x="790" y="981" type="line"/>
      <point x="800" y="981" type="line"/>
      <point x="841" y="1089" type="line"/>
      <point x="1016" y="1424" type="line"/>
      <point x="868" y="1450" type="line"/>
      <point x="868" y="1500" type="line"/>
      <point x="1145" y="1500" type="line"/>
      <point x="1145" y="1450" type="line"/>
      <point x="1079" y="1419" type="line"/>
      <point x="824" y="870" type="line"/>
      <point x="1185" y="79" type="line"/>
      <point x="1249" y="44" type="line"/>
      <point x="1249" y="0" type="line"/>
      <point x="567" y="0" type="line"/>
      <point x="567" y="44" type="line"/>
      <point x="710" y="79" type="line"/>
      <point x="470" y="583" type="line"/>
      <point x="432" y="686" type="line"/>
      <point x="422" y="686" type="line"/>
      <point x="382" y="582" type="line"/>
      <point x="135" y="74" type="line"/>
      <point x="279" y="44" type="line"/>
      <point x="279" y="0" type="line"/>
    </contour>
  </outline>
</glyph>
<glyph name="Y" format="2">
  <advance width="1311"/>
  <unicode hex="0059"/>
  <anchor x="661" y="0" name="bottom"/>
  <anchor x="665" y="1500" name="top"/>
  <anchor x="-24" y="1500" name="tonos"/>
  <outline>
    <contour>
      <point x="335" y="0" type="line"/>
      <point x="335" y="44" type="line"/>
      <point x="469" y="79" type="line"/>
      <point x="471" y="647" type="line"/>
      <point x="343" y="1019" type="line"/>
      <point x="171" y="1423" type="line"/>
      <point x="110" y="1450" type="line"/>
      <point x="110" y="1500" type="line"/>
      <point x="710" y="1500" type="line"/>
      <point x="710" y="1450" type="line"/>
      <point x="580" y="1414" type="line"/>
      <point x="699" y="1085" type="line"/>
      <point x="816" y="778" type="line"/>
      <point x="826" y="778" type="line"/>
      <point x="923" y="1045" type="line"/>
      <point x="1066" y="1421" type="line"/>
      <point x="919" y="1450" type="line"/>
      <point x="919" y="1500" type="line"/>
      <point x="1199" y="1500" type="line"/>
      <point x="1199" y="1450" type="line"/>
      <point x="1135" y="1422" type="line"/>
      <point x="986" y="1043" type="line"/>
      <point x="845" y="652" type="line"/>
      <point x="847" y="79" type="line"/>
      <point x="979" y="44" type="line"/>
      <point x="979" y="0" type="line"/>
    </contour>
  </outline>
</glyph>
<glyph name="Z" format="2">
  <advance width="1030"/>
  <unicode hex="005A"/>
  <anchor x="498" y="0" name="bottom"/>
  <anchor x="498" y="1500" name="top"/>
  <outline>
    <contour>
      <point x="13" y="0" type="line"/>
      <point x="-17" y="92" type="line"/>
      <point x="585" y="1443" type="line"/>
      <point x="576" y="1451" type="line"/>
      <point x="152" y="1451" type="line"/>
      <point x="116" y="1123" type="line"/>
      <point x="59" y="1123" type="line"/>
      <point x="59" y="1500" type="line"/>
      <point x="984" y="1500" type="line"/>
      <point x="984" y="1409" type="line"/>
      <point x="378" y="51" type="line"/>
      <point x="386" y="45" type="line"/>
      <point x="885" y="45" type="line"/>
      <point x="961" y="319" type="line"/>
      <point x="1013" y="319" type="line"/>
      <point x="973" y="0" type="line"/>
    </contour>
  </outline>
</glyph>
<glyph name="bracketleft" format="2">
  <advance width="386"/>
  <unicode hex="005B"/>
  <outline>
    <contour>
      <point x="-54" y="508" type="line"/>
      <point x="-66" y="1429" type="line"/>
      <point x="-85" y="1449" type="line"/>
      <point x="-85" y="1500" type="line"/>
      <point x="426" y="1500" type="line"/>
      <point x="426" y="1448" type="line"/>
      <point x="268" y="1429" type="line"/>
      <point x="256" y="508" type="line"/>
      <point x="268" y="-409" type="line"/>
      <point x="426" y="-428" type="line"/>
      <point x="426" y="-480" type="line"/>
      <point x="-85" y="-480" type="line"/>
      <point x="-85" y="-429" type="line"/>
      <point x="-66" y="-409" type="line"/>
    </contour>
  </outline>
</glyph>
<glyph name="backslash" format="2">
  <advance width="397"/>
  <unicode hex="005C"/>
  <outline>
    <contour>
      <point x="-6" y="1558" type="line"/>
      <point x="57" y="1554" type="line"/>
      <point x="418" y="-164" type="line"/>
      <point x="356" y="-160" type="line"/>
    </contour>
  </outline>
</glyph>
<glyph name="bracketright" format="2">
  <advance width="292"/>
  <unicode hex="005D"/>
  <outline>
    <contour>
      <point x="-39" y="-480" type="line"/>
      <point x="-39" y="-428" type="line"/>
      <point x="118" y="-409" type="line"/>
      <point x="130" y="508" type="line"/>
      <point x="118" y="1429" type="line"/>
      <point x="-39" y="1448" type="line"/>
      <point x="-39" y="1500" type="line"/>
      <point x="472" y="1500" type="line"/>
      <point x="472" y="1449" type="line"/>
      <point x="453" y="1429" type="line"/>
      <point x="441" y="508" type="line"/>
      <point x="453" y="-409" type="line"/>
      <point x="472" y="-429" type="line"/>
      <point x="472" y="-480" type="line"/>
    </contour>
  </outline>
</glyph>
<glyph name="asciicircum" format="2">
  <advance width="507"/>
  <unicode hex="005E"/>
  <outline>
    <contour>
      <point x="-67" y="856" type="line"/>
      <point x="-66" y="896"/>
      <point x="222" y="1500"/>
      <point x="236" y="1524" type="qcurve"/>
      <point x="255" y="1501"/>
      <point x="567" y="911"/>
      <point x="574" y="872" type="qcurve"/>
      <point x="515" y="860" type="line"/>
      <point x="486" y="922"/>
      <point x="272" y="1130"/>
      <point x="238" y="1150" type="qcurve"/>
      <point x="209" y="1129"/>
      <point x="4" y="924"/>
      <point x="-4" y="854" type="qcurve"/>
    </contour>
  </outline>
</glyph>
<glyph name="underscore" format="2">
  <advance width="1041"/>
  <unicode hex="005F"/>
  <outline>
    <contour>
      <point x="-20" y="-480" type="line"/>
      <point x="-20" y="-423" type="line"/>
      <point x="525" y="-417" type="line"/>
      <point x="1061" y="-423" type="line"/>
      <point x="1061" y="-480" type="line"/>
      <point x="525" y="-496" type="line"/>
    </contour>
  </outline>
</glyph>
<glyph name="a" format="2">
  <advance width="1031"/>
  <unicode hex="0061"/>
  <anchor x="462" y="0" name="bottom"/>
  <anchor x="1011" y="0" name="ogonek"/>
  <anchor x="478" y="953" name="top"/>
  <outline>
    <contour>
      <point x="-55" y="218" type="qcurve" smooth="yes"/>
      <point x="-55" y="351"/>
      <point x="248" y="538"/>
      <point x="632" y="576" type="qcurve"/>
      <point x="632" y="541" type="line"/>
      <point x="472" y="500"/>
      <point x="303" y="364"/>
      <point x="305" y="215" type="qcurve" smooth="yes"/>
      <point x="306" y="117"/>
      <point x="358" y="43"/>
      <point x="402" y="43" type="qcurve" smooth="yes"/>
      <point x="446" y="43"/>
      <point x="548" y="134"/>
      <point x="564" y="187" type="qcurve"/>
      <point x="566" y="667" type="line" smooth="yes"/>
      <point x="567" y="825"/>
      <point x="500" y="926"/>
      <point x="449" y="926" type="qcurve" smooth="yes"/>
      <point x="408" y="926"/>
      <point x="333" y="860"/>
      <point x="303" y="784" type="qcurve"/>
      <point x="337" y="760"/>
      <point x="375" y="712"/>
      <point x="382" y="682" type="qcurve" smooth="yes"/>
      <point x="393" y="634"/>
      <point x="292" y="557"/>
      <point x="207" y="557" type="qcurve" smooth="yes"/>
      <point x="115" y="557"/>
      <point x="1" y="638"/>
      <point x="1" y="710" type="qcurve" smooth="yes"/>
      <point x="1" y="829"/>
      <point x="276" y="974"/>
      <point x="484" y="974" type="qcurve" smooth="yes"/>
      <point x="696" y="974"/>
      <point x="922" y="841"/>
      <point x="918" y="698" type="qcurve" smooth="yes"/>
      <point x="918" y="81" type="line"/>
      <point x="1026" y="46" type="line"/>
      <point x="1026" y="0" type="line"/>
      <point x="643" y="0" type="line"/>
      <point x="591" y="60" type="line"/>
      <point x="582" y="141" type="line"/>
      <point x="535" y="73"/>
      <point x="381" y="-15"/>
      <point x="262" y="-15" type="qcurve" smooth="yes"/>
      <point x="97" y="-15"/>
      <point x="-55" y="124"/>
    </contour>
  </outline>
</glyph>
<glyph name="b" format="2">
  <advance width="1197"/>
  <unicode hex="0062"/>
  <anchor x="678" y="0" name="bottom"/>
  <anchor x="678" y="1511" name="top"/>
  <outline>
    <contour>
      <point x="155" y="0" type="line"/>
      <point x="166" y="427" type="line"/>
      <point x="155" y="1394" type="line"/>
      <point x="38" y="1424" type="line"/>
      <point x="38" y="1478" type="line"/>
      <point x="454" y="1512" type="line"/>
      <point x="485" y="1512" type="line"/>
      <point x="513" y="1480" type="line"/>
      <point x="511" y="819" type="line"/>
      <point x="558" y="886"/>
      <point x="721" y="969"/>
      <point x="833" y="969" type="qcurve" smooth="yes"/>
      <point x="1008" y="969"/>
      <point x="1236" y="717"/>
      <point x="1236" y="503" type="qcurve" smooth="yes"/>
      <point x="1236" y="271"/>
      <point x="1001" y="-12"/>
      <point x="788" y="-12" type="qcurve" smooth="yes"/>
      <point x="702" y="-12"/>
      <point x="556" y="45"/>
      <point x="513" y="83" type="qcurve"/>
      <point x="426" y="0" type="line"/>
    </contour>
    <contour>
      <point x="501" y="485" type="line"/>
      <point x="510" y="142" type="line"/>
      <point x="539" y="97"/>
      <point x="624" y="34"/>
      <point x="683" y="34" type="qcurve" smooth="yes"/>
      <point x="767" y="34"/>
      <point x="863" y="278"/>
      <point x="863" y="489" type="qcurve" smooth="yes"/>
      <point x="863" y="691"/>
      <point x="768" y="914"/>
      <point x="698" y="914" type="qcurve" smooth="yes"/>
      <point x="643" y="914"/>
      <point x="541" y="834"/>
      <point x="510" y="766" type="qcurve"/>
    </contour>
  </outline>
</glyph>
<glyph name="c" format="2">
  <advance width="781"/>
  <unicode hex="0063"/>
  <guideline x="551" y="1022" angle="0.0" identifier="uY5wl0yAtZ"/>
  <anchor x="413" y="0" name="bottom"/>
  <anchor x="384" y="953" name="top"/>
  <outline>
    <contour>
      <point x="-39" y="466" type="qcurve" smooth="yes"/>
      <point x="-39" y="687"/>
      <point x="198" y="974"/>
      <point x="389" y="974" type="qcurve" smooth="yes"/>
      <point x="469" y="974"/>
      <point x="603" y="934"/>
      <point x="629" y="908" type="qcurve"/>
      <point x="646" y="958" type="line"/>
      <point x="722" y="958" type="line"/>
      <point x="736" y="675" type="line"/>
      <point x="679" y="675" type="line"/>
      <point x="670" y="732" type="line" smooth="yes"/>
      <point x="656" y="817"/>
      <point x="581" y="928"/>
      <point x="512" y="928" type="qcurve" smooth="yes"/>
      <point x="432" y="928"/>
      <point x="334" y="708"/>
      <point x="334" y="483" type="qcurve" smooth="yes"/>
      <point x="334" y="264"/>
      <point x="446" y="33"/>
      <point x="549" y="33" type="qcurve" smooth="yes"/>
      <point x="631" y="33"/>
      <point x="755" y="129"/>
      <point x="789" y="194" type="qcurve"/>
      <point x="812" y="168" type="line"/>
      <point x="762" y="94"/>
      <point x="571" y="-22"/>
      <point x="418" y="-22" type="qcurve" smooth="yes"/>
      <point x="214" y="-22"/>
      <point x="-39" y="240"/>
    </contour>
  </outline>
</glyph>
<glyph name="d" format="2">
  <advance width="1157"/>
  <unicode hex="0064"/>
  <anchor x="482" y="0" name="bottom"/>
  <anchor x="877" y="1190" name="center"/>
  <anchor x="482" y="1512" name="top"/>
  <anchor x="1038" y="1000" name="topright"/>
  <outline>
    <contour>
      <point x="-43" y="454" type="qcurve" smooth="yes"/>
      <point x="-43" y="686"/>
      <point x="207" y="969"/>
      <point x="412" y="969" type="qcurve" smooth="yes"/>
      <point x="486" y="969"/>
      <point x="631" y="927"/>
      <point x="678" y="893" type="qcurve"/>
      <point x="670" y="1394" type="line"/>
      <point x="552" y="1424" type="line"/>
      <point x="552" y="1478" type="line"/>
      <point x="970" y="1512" type="line"/>
      <point x="1001" y="1512" type="line"/>
      <point x="1029" y="1480" type="line"/>
      <point x="1026" y="538" type="line"/>
      <point x="1035" y="81" type="line"/>
      <point x="1139" y="46" type="line"/>
      <point x="1139" y="0" type="line"/>
      <point x="750" y="0" type="line"/>
      <point x="699" y="60" type="line"/>
      <point x="681" y="142" type="line"/>
      <point x="635" y="79"/>
      <point x="490" y="-9"/>
      <point x="370" y="-9" type="qcurve" smooth="yes"/>
      <point x="186" y="-9"/>
      <point x="-43" y="244"/>
    </contour>
    <contour>
      <point x="329" y="468" type="qcurve" smooth="yes"/>
      <point x="329" y="267"/>
      <point x="426" y="46"/>
      <point x="506" y="46" type="qcurve" smooth="yes"/>
      <point x="565" y="46"/>
      <point x="655" y="134"/>
      <point x="680" y="191" type="qcurve"/>
      <point x="686" y="492" type="line"/>
      <point x="686" y="790" type="line"/>
      <point x="662" y="851"/>
      <point x="579" y="926"/>
      <point x="525" y="926" type="qcurve" smooth="yes"/>
      <point x="435" y="926"/>
      <point x="329" y="661"/>
    </contour>
  </outline>
</glyph>
<glyph name="e" format="2">
  <advance width="961"/>
  <unicode hex="0065"/>
  <anchor x="535" y="0" name="bottom"/>
  <anchor x="658" y="0" name="ogonek"/>
  <anchor x="507" y="953" name="top"/>
  <outline>
    <contour>
      <point x="-38" y="473" type="qcurve" smooth="yes"/>
      <point x="-38" y="683"/>
      <point x="247" y="976"/>
      <point x="503" y="976" type="qcurve" smooth="yes"/>
      <point x="726" y="976"/>
      <point x="989" y="755"/>
      <point x="1007" y="561" type="qcurve"/>
      <point x="1007" y="526" type="line"/>
      <point x="233" y="526" type="line"/>
      <point x="233" y="566" type="line"/>
      <point x="660" y="566" type="line"/>
      <point x="646" y="743"/>
      <point x="565" y="928"/>
      <point x="501" y="928" type="qcurve" smooth="yes"/>
      <point x="421" y="928"/>
      <point x="333" y="702"/>
      <point x="334" y="488" type="qcurve" smooth="yes"/>
      <point x="334" y="272"/>
      <point x="464" y="32"/>
      <point x="619" y="32" type="qcurve" smooth="yes"/>
      <point x="713" y="32"/>
      <point x="874" y="112"/>
      <point x="940" y="187" type="qcurve"/>
      <point x="975" y="157" type="line"/>
      <point x="920" y="81"/>
      <point x="695" y="-23"/>
      <point x="540" y="-23" type="qcurve" smooth="yes"/>
      <point x="239" y="-23"/>
      <point x="-38" y="242"/>
    </contour>
  </outline>
</glyph>
<glyph name="f" format="2">
  <advance width="694"/>
  <unicode hex="0066"/>
  <anchor x="404" y="0" name="bottom"/>
  <anchor x="404" y="1515" name="top"/>
  <outline>
    <contour>
      <point x="20" y="0" type="line"/>
      <point x="20" y="46" type="line"/>
      <point x="138" y="81" type="line"/>
      <point x="140" y="527" type="line"/>
      <point x="137" y="882" type="line"/>
      <point x="50" y="880" type="line"/>
      <point x="50" y="925" type="line"/>
      <point x="139" y="931" type="line"/>
      <point x="142" y="1243" type="line" smooth="yes"/>
      <point x="144" y="1378"/>
      <point x="310" y="1517"/>
      <point x="436" y="1517" type="qcurve" smooth="yes"/>
      <point x="484" y="1517"/>
      <point x="578" y="1510"/>
      <point x="621" y="1497" type="qcurve" smooth="yes"/>
      <point x="638" y="1492" type="line"/>
      <point x="627" y="1451" type="line"/>
      <point x="614" y="1457" type="line" smooth="yes"/>
      <point x="603" y="1460"/>
      <point x="581" y="1466"/>
      <point x="570" y="1466" type="qcurve" smooth="yes"/>
      <point x="528" y="1466"/>
      <point x="482" y="1366"/>
      <point x="484" y="1277" type="qcurve" smooth="yes"/>
      <point x="487" y="932" type="line"/>
      <point x="613" y="932" type="line"/>
      <point x="613" y="885" type="line"/>
      <point x="487" y="885" type="line"/>
      <point x="489" y="527" type="line"/>
      <point x="496" y="81" type="line"/>
      <point x="629" y="46" type="line"/>
      <point x="629" y="0" type="line"/>
    </contour>
  </outline>
</glyph>
<glyph name="g" format="2">
  <advance width="1240"/>
  <unicode hex="0067"/>
  <anchor x="696" y="-416" name="bottom"/>
  <anchor x="656" y="953" name="top"/>
  <outline>
    <contour>
      <point x="6" y="-272" type="qcurve" smooth="yes"/>
      <point x="6" y="-195"/>
      <point x="212" y="-113"/>
      <point x="413" y="-96" type="qcurve"/>
      <point x="428" y="-108" type="line"/>
      <point x="391" y="-132"/>
      <point x="345" y="-195"/>
      <point x="345" y="-256" type="qcurve" smooth="yes"/>
      <point x="345" y="-343"/>
      <point x="483" y="-452"/>
      <point x="648" y="-452" type="qcurve" smooth="yes"/>
      <point x="784" y="-452"/>
      <point x="965" y="-363"/>
      <point x="965" y="-279" type="qcurve" smooth="yes"/>
      <point x="965" y="-212"/>
      <point x="820" y="-173"/>
      <point x="629" y="-162" type="qcurve" smooth="yes"/>
      <point x="382" y="-147"/>
      <point x="76" y="-48"/>
      <point x="76" y="72" type="qcurve" smooth="yes"/>
      <point x="76" y="170"/>
      <point x="329" y="259"/>
      <point x="487" y="282" type="qcurve"/>
      <point x="505" y="256" type="line"/>
      <point x="448" y="237"/>
      <point x="374" y="194"/>
      <point x="374" y="158" type="qcurve" smooth="yes"/>
      <point x="374" y="119"/>
      <point x="505" y="90"/>
      <point x="670" y="85" type="qcurve" smooth="yes"/>
      <point x="1037" y="74"/>
      <point x="1245" y="-49"/>
      <point x="1245" y="-164" type="qcurve" smooth="yes"/>
      <point x="1245" y="-295"/>
      <point x="951" y="-498"/>
      <point x="628" y="-498" type="qcurve" smooth="yes"/>
      <point x="318" y="-498"/>
      <point x="6" y="-361"/>
    </contour>
    <contour>
      <point x="63" y="587" type="qcurve" smooth="yes"/>
      <point x="63" y="755"/>
      <point x="361" y="975"/>
      <point x="602" y="975" type="qcurve" smooth="yes"/>
      <point x="845" y="975"/>
      <point x="1143" y="771"/>
      <point x="1143" y="591" type="qcurve" smooth="yes"/>
      <point x="1143" y="423"/>
      <point x="847" y="180"/>
      <point x="606" y="180" type="qcurve" smooth="yes"/>
      <point x="365" y="180"/>
      <point x="63" y="404"/>
    </contour>
    <contour>
      <point x="418" y="594" type="qcurve" smooth="yes"/>
      <point x="418" y="416"/>
      <point x="521" y="223"/>
      <point x="609" y="223" type="qcurve" smooth="yes"/>
      <point x="693" y="223"/>
      <point x="790" y="401"/>
      <point x="790" y="583" type="qcurve" smooth="yes"/>
      <point x="790" y="743"/>
      <point x="688" y="927"/>
      <point x="598" y="927" type="qcurve" smooth="yes"/>
      <point x="517" y="927"/>
      <point x="418" y="761"/>
    </contour>
    <contour>
      <point x="820" y="920" type="line"/>
      <point x="699" y="953" type="line"/>
      <point x="1214" y="953" type="line"/>
      <point x="1214" y="861" type="line"/>
    </contour>
  </outline>
</glyph>
<glyph name="h" format="2">
  <advance width="1237"/>
  <unicode hex="0068"/>
  <anchor x="624" y="0" name="bottom"/>
  <anchor x="335" y="1202" name="center"/>
  <anchor x="411" y="1534" name="top"/>
  <outline>
    <contour>
      <point x="38" y="0" type="line"/>
      <point x="38" y="46" type="line"/>
      <point x="138" y="81" type="line"/>
      <point x="140" y="479" type="line"/>
      <point x="138" y="1394" type="line"/>
      <point x="21" y="1424" type="line"/>
      <point x="21" y="1484" type="line"/>
      <point x="435" y="1512" type="line"/>
      <point x="467" y="1512" type="line"/>
      <point x="495" y="1480" type="line"/>
      <point x="494" y="805" type="line"/>
      <point x="542" y="872"/>
      <point x="706" y="974"/>
      <point x="810" y="974" type="qcurve" smooth="yes"/>
      <point x="964" y="974"/>
      <point x="1130" y="825"/>
      <point x="1130" y="695" type="qcurve" smooth="yes"/>
      <point x="1130" y="621"/>
      <point x="1125" y="479"/>
      <point x="1125" y="479" type="qcurve"/>
      <point x="1130" y="81" type="line"/>
      <point x="1234" y="46" type="line"/>
      <point x="1234" y="0" type="line"/>
      <point x="662" y="0" type="line"/>
      <point x="662" y="46" type="line"/>
      <point x="774" y="81" type="line"/>
      <point x="776" y="479" type="line"/>
      <point x="776" y="726" type="line" smooth="yes"/>
      <point x="776" y="811"/>
      <point x="722" y="901"/>
      <point x="672" y="901" type="qcurve" smooth="yes"/>
      <point x="619" y="901"/>
      <point x="522" y="817"/>
      <point x="493" y="748" type="qcurve"/>
      <point x="493" y="541" type="line"/>
      <point x="495" y="81" type="line"/>
      <point x="592" y="46" type="line"/>
      <point x="592" y="0" type="line"/>
    </contour>
  </outline>
</glyph>
<glyph name="k" format="2">
  <advance width="1369"/>
  <unicode hex="006B"/>
  <anchor x="715" y="0" name="bottom"/>
  <anchor x="685" y="1512" name="top"/>
  <outline>
    <contour>
      <point x="38" y="0" type="line"/>
      <point x="38" y="46" type="line"/>
      <point x="138" y="81" type="line"/>
      <point x="140" y="527" type="line"/>
      <point x="138" y="1394" type="line"/>
      <point x="21" y="1424" type="line"/>
      <point x="21" y="1484" type="line"/>
      <point x="435" y="1512" type="line"/>
      <point x="467" y="1512" type="line"/>
      <point x="495" y="1480" type="line"/>
      <point x="493" y="507" type="line"/>
      <point x="495" y="81" type="line"/>
      <point x="592" y="46" type="line"/>
      <point x="592" y="0" type="line"/>
    </contour>
    <contour>
      <point x="451" y="403" type="line"/>
      <point x="446" y="445" type="line"/>
      <point x="988" y="871" type="line"/>
      <point x="841" y="901" type="line"/>
      <point x="841" y="953" type="line"/>
      <point x="1118" y="953" type="line"/>
      <point x="1118" y="901" type="line"/>
      <point x="1051" y="866" type="line"/>
    </contour>
    <contour>
      <point x="586" y="552" type="line"/>
      <point x="862" y="733" type="line"/>
      <point x="1278" y="81" type="line"/>
      <point x="1336" y="46" type="line"/>
      <point x="1336" y="0" type="line"/>
      <point x="856" y="0" type="line"/>
      <point x="848" y="45" type="line"/>
      <point x="879" y="76" type="line"/>
    </contour>
  </outline>
</glyph>
<glyph name="l" format="2">
  <advance width="633"/>
  <unicode hex="006C"/>
  <anchor x="329" y="0" name="bottom"/>
  <anchor x="329" y="730" name="center"/>
  <anchor x="329" y="1512" name="top"/>
  <anchor x="474" y="980" name="topright"/>
  <anchor x="853" y="668" name="centerright"/>
  <outline>
    <contour>
      <point x="44" y="0" type="line"/>
      <point x="44" y="46" type="line"/>
      <point x="158" y="81" type="line"/>
      <point x="160" y="527" type="line"/>
      <point x="158" y="1394" type="line"/>
      <point x="27" y="1424" type="line"/>
      <point x="27" y="1478" type="line"/>
      <point x="455" y="1513" type="line"/>
      <point x="487" y="1513" type="line"/>
      <point x="515" y="1481" type="line"/>
      <point x="513" y="527" type="line"/>
      <point x="515" y="81" type="line"/>
      <point x="626" y="46" type="line"/>
      <point x="626" y="0" type="line"/>
    </contour>
  </outline>
</glyph>
<glyph name="m" format="2">
  <advance width="1797"/>
  <unicode hex="006D"/>
  <anchor x="888" y="0" name="bottom"/>
  <anchor x="888" y="953" name="top"/>
  <outline>
    <contour>
      <point x="-5" y="0" type="line"/>
      <point x="-5" y="46" type="line"/>
      <point x="99" y="81" type="line"/>
      <point x="101" y="476" type="line"/>
      <point x="99" y="835" type="line"/>
      <point x="-5" y="865" type="line"/>
      <point x="-5" y="919" type="line"/>
      <point x="396" y="954" type="line"/>
      <point x="431" y="927" type="line"/>
      <point x="455" y="807" type="line"/>
      <point x="510" y="882"/>
      <point x="692" y="975"/>
      <point x="791" y="975" type="qcurve" smooth="yes"/>
      <point x="908" y="975"/>
      <point x="1046" y="880"/>
      <point x="1081" y="794" type="qcurve"/>
      <point x="1133" y="874"/>
      <point x="1307" y="975"/>
      <point x="1405" y="975" type="qcurve" smooth="yes"/>
      <point x="1547" y="975"/>
      <point x="1690" y="826"/>
      <point x="1690" y="696" type="qcurve" smooth="yes"/>
      <point x="1690" y="627"/>
      <point x="1686" y="504"/>
      <point x="1686" y="476" type="qcurve" smooth="yes"/>
      <point x="1690" y="81" type="line"/>
      <point x="1794" y="46" type="line"/>
      <point x="1794" y="0" type="line"/>
      <point x="1223" y="0" type="line"/>
      <point x="1223" y="46" type="line"/>
      <point x="1335" y="81" type="line"/>
      <point x="1336" y="476" type="line"/>
      <point x="1336" y="728" type="line" smooth="yes"/>
      <point x="1336" y="806"/>
      <point x="1279" y="903"/>
      <point x="1229" y="903" type="qcurve" smooth="yes"/>
      <point x="1180" y="903"/>
      <point x="1099" y="824"/>
      <point x="1072" y="757" type="qcurve"/>
      <point x="1069" y="682"/>
      <point x="1070" y="500"/>
      <point x="1070" y="476" type="qcurve" smooth="yes"/>
      <point x="1072" y="81" type="line"/>
      <point x="1173" y="46" type="line"/>
      <point x="1173" y="0" type="line"/>
      <point x="608" y="0" type="line"/>
      <point x="608" y="46" type="line"/>
      <point x="719" y="81" type="line"/>
      <point x="721" y="476" type="line"/>
      <point x="721" y="728" type="line" smooth="yes"/>
      <point x="721" y="806"/>
      <point x="659" y="903"/>
      <point x="614" y="903" type="qcurve" smooth="yes"/>
      <point x="565" y="903"/>
      <point x="480" y="820"/>
      <point x="455" y="749" type="qcurve"/>
      <point x="454" y="476" type="line"/>
      <point x="456" y="81" type="line"/>
      <point x="553" y="46" type="line"/>
      <point x="553" y="0" type="line"/>
    </contour>
  </outline>
</glyph>
<glyph name="n" format="2">
  <advance width="1197"/>
  <unicode hex="006E"/>
  <anchor x="580" y="-48" name="bottom"/>
  <anchor x="623" y="952" name="top"/>
  <outline>
    <contour>
      <point x="-6" y="0" type="line"/>
      <point x="-6" y="46" type="line"/>
      <point x="98" y="81" type="line"/>
      <point x="100" y="476" type="line"/>
      <point x="98" y="835" type="line"/>
      <point x="-6" y="865" type="line"/>
      <point x="-6" y="924" type="line"/>
      <point x="395" y="953" type="line"/>
      <point x="430" y="926" type="line"/>
      <point x="455" y="806" type="line"/>
      <point x="507" y="882"/>
      <point x="668" y="973"/>
      <point x="771" y="973" type="qcurve" smooth="yes"/>
      <point x="925" y="973"/>
      <point x="1091" y="824"/>
      <point x="1091" y="694" type="qcurve" smooth="yes"/>
      <point x="1091" y="628"/>
      <point x="1086" y="498"/>
      <point x="1086" y="476" type="qcurve" smooth="yes"/>
      <point x="1091" y="81" type="line"/>
      <point x="1195" y="46" type="line"/>
      <point x="1195" y="0" type="line"/>
      <point x="622" y="0" type="line"/>
      <point x="622" y="46" type="line"/>
      <point x="734" y="81" type="line"/>
      <point x="736" y="476" type="line"/>
      <point x="736" y="726" type="line" smooth="yes"/>
      <point x="736" y="809"/>
      <point x="680" y="901"/>
      <point x="632" y="901" type="qcurve" smooth="yes"/>
      <point x="577" y="901"/>
      <point x="482" y="819"/>
      <point x="454" y="749" type="qcurve"/>
      <point x="453" y="476" type="line"/>
      <point x="455" y="81" type="line"/>
      <point x="552" y="46" type="line"/>
      <point x="552" y="0" type="line"/>
    </contour>
  </outline>
</glyph>
<glyph name="o" format="2">
  <advance width="1056"/>
  <unicode hex="006F"/>
  <anchor x="530" y="0" name="bottom"/>
  <anchor x="530" y="475" name="center"/>
  <anchor x="693" y="0" name="ogonek"/>
  <anchor x="530" y="953" name="top"/>
  <anchor x="742" y="953" name="topright"/>
  <anchor x="530" y="953" name="GRKtop"/>
  <outline>
    <contour>
      <point x="-39" y="475" type="qcurve" smooth="yes"/>
      <point x="-39" y="684"/>
      <point x="274" y="976"/>
      <point x="528" y="976" type="qcurve" smooth="yes"/>
      <point x="781" y="976"/>
      <point x="1096" y="704"/>
      <point x="1096" y="481" type="qcurve" smooth="yes"/>
      <point x="1096" y="274"/>
      <point x="787" y="-24"/>
      <point x="534" y="-24" type="qcurve" smooth="yes"/>
      <point x="279" y="-24"/>
      <point x="-39" y="251"/>
    </contour>
    <contour>
      <point x="332" y="495" type="qcurve" smooth="yes"/>
      <point x="333" y="296"/>
      <point x="439" y="22"/>
      <point x="526" y="22" type="qcurve" smooth="yes"/>
      <point x="620" y="22"/>
      <point x="721" y="273"/>
      <point x="721" y="481" type="qcurve" smooth="yes"/>
      <point x="721" y="676"/>
      <point x="616" y="928"/>
      <point x="528" y="928" type="qcurve" smooth="yes"/>
      <point x="433" y="928"/>
      <point x="331" y="699"/>
    </contour>
  </outline>
</glyph>
<glyph name="p" format="2">
  <advance width="1154"/>
  <unicode hex="0070"/>
  <anchor x="698" y="0" name="bottom"/>
  <anchor x="698" y="953" name="top"/>
  <outline>
    <contour>
      <point x="15" y="-460" type="line"/>
      <point x="15" y="-414" type="line"/>
      <point x="116" y="-379" type="line"/>
      <point x="118" y="403" type="line"/>
      <point x="116" y="835" type="line"/>
      <point x="12" y="865" type="line"/>
      <point x="12" y="924" type="line"/>
      <point x="423" y="954" type="line"/>
      <point x="458" y="927" type="line"/>
      <point x="472" y="815" type="line"/>
      <point x="521" y="883"/>
      <point x="679" y="971"/>
      <point x="779" y="971" type="qcurve" smooth="yes"/>
      <point x="966" y="971"/>
      <point x="1198" y="719"/>
      <point x="1198" y="507" type="qcurve" smooth="yes"/>
      <point x="1198" y="273"/>
      <point x="955" y="-13"/>
      <point x="751" y="-13" type="qcurve" smooth="yes"/>
      <point x="656" y="-13"/>
      <point x="513" y="49"/>
      <point x="471" y="89" type="qcurve"/>
      <point x="473" y="-379" type="line"/>
      <point x="579" y="-414" type="line"/>
      <point x="579" y="-460" type="line"/>
    </contour>
    <contour>
      <point x="471" y="151" type="line"/>
      <point x="504" y="103"/>
      <point x="589" y="33"/>
      <point x="648" y="33" type="qcurve" smooth="yes"/>
      <point x="728" y="33"/>
      <point x="822" y="285"/>
      <point x="822" y="482" type="qcurve" smooth="yes"/>
      <point x="822" y="673"/>
      <point x="729" y="913"/>
      <point x="638" y="913" type="qcurve" smooth="yes"/>
      <point x="595" y="913"/>
      <point x="502" y="825"/>
      <point x="472" y="761" type="qcurve"/>
      <point x="469" y="403" type="line"/>
    </contour>
  </outline>
</glyph>
<glyph name="q" format="2">
  <advance width="1170"/>
  <unicode hex="0071"/>
  <anchor x="446" y="0" name="bottom"/>
  <anchor x="446" y="953" name="top"/>
  <outline>
    <contour>
      <point x="-42" y="454" type="qcurve" smooth="yes"/>
      <point x="-42" y="687"/>
      <point x="211" y="971"/>
      <point x="418" y="971" type="qcurve" smooth="yes"/>
      <point x="495" y="971"/>
      <point x="652" y="924"/>
      <point x="698" y="887" type="qcurve"/>
      <point x="755" y="961" type="line"/>
      <point x="1143" y="924" type="line"/>
      <point x="1143" y="871" type="line"/>
      <point x="1038" y="837" type="line"/>
      <point x="1031" y="407" type="line"/>
      <point x="1033" y="-379" type="line"/>
      <point x="1140" y="-414" type="line"/>
      <point x="1140" y="-460" type="line"/>
      <point x="555" y="-460" type="line"/>
      <point x="555" y="-414" type="line"/>
      <point x="676" y="-379" type="line"/>
      <point x="675" y="124" type="line"/>
      <point x="625" y="63"/>
      <point x="465" y="-11"/>
      <point x="361" y="-11" type="qcurve" smooth="yes"/>
      <point x="189" y="-11"/>
      <point x="-42" y="240"/>
    </contour>
    <contour>
      <point x="331" y="468" type="qcurve" smooth="yes"/>
      <point x="331" y="266"/>
      <point x="431" y="44"/>
      <point x="501" y="44" type="qcurve" smooth="yes"/>
      <point x="553" y="44"/>
      <point x="652" y="116"/>
      <point x="683" y="176" type="qcurve"/>
      <point x="685" y="805" type="line"/>
      <point x="661" y="861"/>
      <point x="576" y="926"/>
      <point x="526" y="926" type="qcurve" smooth="yes"/>
      <point x="439" y="926"/>
      <point x="331" y="662"/>
    </contour>
  </outline>
</glyph>
<glyph name="r" format="2">
  <advance width="754"/>
  <unicode hex="0072"/>
  <anchor x="386" y="0" name="bottom"/>
  <anchor x="440" y="953" name="top"/>
  <outline>
    <contour>
      <point x="-5" y="0" type="line"/>
      <point x="-5" y="46" type="line"/>
      <point x="99" y="81" type="line"/>
      <point x="101" y="480" type="line"/>
      <point x="99" y="835" type="line"/>
      <point x="-5" y="865" type="line"/>
      <point x="-5" y="919" type="line"/>
      <point x="396" y="954" type="line"/>
      <point x="431" y="927" type="line"/>
      <point x="456" y="813" type="line"/>
      <point x="494" y="865"/>
      <point x="612" y="954"/>
      <point x="692" y="954" type="qcurve" smooth="yes"/>
      <point x="739" y="954" type="line"/>
      <point x="739" y="760" type="line"/>
      <point x="674" y="760" type="line"/>
      <point x="652" y="893" type="line"/>
      <point x="588" y="894"/>
      <point x="493" y="823"/>
      <point x="454" y="754" type="qcurve"/>
      <point x="454" y="480" type="line"/>
      <point x="456" y="81" type="line"/>
      <point x="567" y="46" type="line"/>
      <point x="567" y="0" type="line"/>
    </contour>
  </outline>
</glyph>
<glyph name="s" format="2">
  <advance width="676"/>
  <unicode hex="0073"/>
  <anchor x="308" y="0" name="bottom"/>
  <anchor x="339" y="953" name="top"/>
  <outline>
    <contour>
      <point x="-15" y="0" type="line"/>
      <point x="-15" y="308" type="line"/>
      <point x="47" y="308" type="line"/>
      <point x="59" y="216" type="line" smooth="yes"/>
      <point x="71" y="130"/>
      <point x="159" y="24"/>
      <point x="241" y="24" type="qcurve" smooth="yes"/>
      <point x="313" y="24"/>
      <point x="404" y="107"/>
      <point x="404" y="189" type="qcurve" smooth="yes"/>
      <point x="404" y="267"/>
      <point x="307" y="344"/>
      <point x="184" y="393" type="qcurve" smooth="yes"/>
      <point x="79" y="438"/>
      <point x="-3" y="578"/>
      <point x="-3" y="675" type="qcurve" smooth="yes"/>
      <point x="-3" y="813"/>
      <point x="188" y="976"/>
      <point x="336" y="976" type="qcurve" smooth="yes"/>
      <point x="415" y="976"/>
      <point x="536" y="941"/>
      <point x="569" y="912" type="qcurve"/>
      <point x="597" y="953" type="line"/>
      <point x="638" y="953" type="line"/>
      <point x="638" y="688" type="line"/>
      <point x="575" y="688" type="line"/>
      <point x="569" y="776" type="line" smooth="yes"/>
      <point x="564" y="832"/>
      <point x="497" y="928"/>
      <point x="450" y="928" type="qcurve" smooth="yes"/>
      <point x="385" y="928"/>
      <point x="286" y="864"/>
      <point x="286" y="796" type="qcurve" smooth="yes"/>
      <point x="286" y="739"/>
      <point x="366" y="662"/>
      <point x="462" y="615" type="qcurve" smooth="yes"/>
      <point x="557" y="562"/>
      <point x="700" y="442"/>
      <point x="700" y="303" type="qcurve" smooth="yes"/>
      <point x="700" y="155"/>
      <point x="490" y="-22"/>
      <point x="338" y="-22" type="qcurve" smooth="yes"/>
      <point x="238" y="-22"/>
      <point x="132" y="23"/>
      <point x="77" y="73" type="qcurve"/>
      <point x="38" y="0" type="line"/>
    </contour>
  </outline>
</glyph>
<glyph name="t" format="2">
  <advance width="512"/>
  <unicode hex="0074"/>
  <anchor x="285" y="0" name="bottom"/>
  <anchor x="275" y="622" name="center"/>
  <anchor x="285" y="1179" name="top"/>
  <anchor x="611" y="1000" name="topright"/>
  <outline>
    <contour>
      <point x="-4" y="887" type="line"/>
      <point x="-4" y="919" type="line"/>
      <point x="123" y="944"/>
      <point x="230" y="1043"/>
      <point x="263" y="1180" type="qcurve"/>
      <point x="418" y="1180" type="line"/>
      <point x="451" y="1140" type="line"/>
      <point x="445" y="930" type="line"/>
      <point x="550" y="931" type="line"/>
      <point x="550" y="884" type="line"/>
      <point x="444" y="887" type="line"/>
      <point x="434" y="488" type="line"/>
      <point x="438" y="171" type="line" smooth="yes"/>
      <point x="439" y="103"/>
      <point x="468" y="63"/>
      <point x="510" y="64" type="qcurve" smooth="yes"/>
      <point x="547" y="64" type="line"/>
      <point x="547" y="29" type="line"/>
      <point x="279" y="-9" type="line"/>
      <point x="165" y="-9"/>
      <point x="80" y="72"/>
      <point x="80" y="162" type="qcurve" smooth="yes"/>
      <point x="80" y="488" type="line"/>
      <point x="80" y="882" type="line"/>
    </contour>
  </outline>
</glyph>
<glyph name="u" format="2">
  <advance width="1215"/>
  <unicode hex="0075"/>
  <anchor x="579" y="0" name="bottom"/>
  <anchor x="1116" y="20" name="ogonek"/>
  <anchor x="579" y="952" name="top"/>
  <anchor x="1083" y="952" name="topright"/>
  <outline>
    <contour>
      <point x="12" y="868" type="line"/>
      <point x="12" y="922" type="line"/>
      <point x="414" y="956" type="line"/>
      <point x="449" y="956" type="line"/>
      <point x="474" y="920" type="line"/>
      <point x="472" y="478" type="line"/>
      <point x="472" y="251" type="line" smooth="yes"/>
      <point x="472" y="172"/>
      <point x="530" y="42"/>
      <point x="585" y="42" type="qcurve" smooth="yes"/>
      <point x="628" y="42"/>
      <point x="720" y="124"/>
      <point x="752" y="199" type="qcurve"/>
      <point x="753" y="478" type="line"/>
      <point x="751" y="838" type="line"/>
      <point x="654" y="868" type="line"/>
      <point x="654" y="922" type="line"/>
      <point x="1048" y="956" type="line"/>
      <point x="1083" y="956" type="line"/>
      <point x="1108" y="920" type="line"/>
      <point x="1106" y="479" type="line"/>
      <point x="1108" y="112" type="line"/>
      <point x="1212" y="82" type="line"/>
      <point x="1212" y="34" type="line"/>
      <point x="811" y="0" type="line"/>
      <point x="776" y="27" type="line"/>
      <point x="752" y="147" type="line"/>
      <point x="697" y="72"/>
      <point x="513" y="-21"/>
      <point x="415" y="-21" type="qcurve" smooth="yes"/>
      <point x="264" y="-21"/>
      <point x="116" y="128"/>
      <point x="116" y="258" type="qcurve" smooth="yes"/>
      <point x="116" y="332"/>
      <point x="120" y="454"/>
      <point x="120" y="479" type="qcurve" smooth="yes"/>
      <point x="115" y="838" type="line"/>
    </contour>
  </outline>
</glyph>
<glyph name="w" format="2">
  <advance width="1391"/>
  <unicode hex="0077"/>
  <anchor x="679" y="0" name="bottom"/>
  <anchor x="679" y="952" name="top"/>
  <outline>
    <contour>
      <point x="340" y="-9" type="line"/>
      <point x="216" y="457" type="line"/>
      <point x="101" y="866" type="line"/>
      <point x="33" y="901" type="line"/>
      <point x="33" y="953" type="line"/>
      <point x="568" y="953" type="line"/>
      <point x="568" y="901" type="line"/>
      <point x="461" y="864" type="line"/>
      <point x="547" y="505" type="line"/>
      <point x="583" y="334" type="line"/>
      <point x="606" y="228" type="line"/>
      <point x="616" y="228" type="line"/>
      <point x="640" y="334" type="line"/>
      <point x="667" y="457" type="line"/>
      <point x="672" y="508" type="line"/>
      <point x="559" y="866" type="line"/>
      <point x="492" y="901" type="line"/>
      <point x="492" y="953" type="line"/>
      <point x="1021" y="953" type="line"/>
      <point x="1021" y="901" type="line"/>
      <point x="915" y="864" type="line"/>
      <point x="1011" y="457" type="line"/>
      <point x="1037" y="334" type="line"/>
      <point x="1062" y="228" type="line"/>
      <point x="1072" y="228" type="line"/>
      <point x="1099" y="334" type="line"/>
      <point x="1130" y="488" type="line"/>
      <point x="1227" y="871" type="line"/>
      <point x="1118" y="901" type="line"/>
      <point x="1118" y="953" type="line"/>
      <point x="1377" y="953" type="line"/>
      <point x="1377" y="901" type="line"/>
      <point x="1280" y="866" type="line"/>
      <point x="1177" y="460" type="line"/>
      <point x="1052" y="-9" type="line"/>
      <point x="800" y="-9" type="line"/>
      <point x="714" y="317" type="line"/>
      <point x="694" y="422" type="line"/>
      <point x="684" y="422" type="line"/>
      <point x="665" y="317" type="line"/>
      <point x="591" y="-9" type="line"/>
    </contour>
  </outline>
</glyph>
<glyph name="x" format="2">
  <advance width="1064"/>
  <unicode hex="0078"/>
  <anchor x="518" y="0" name="bottom"/>
  <anchor x="518" y="952" name="top"/>
  <outline>
    <contour>
      <point x="81" y="0" type="line"/>
      <point x="81" y="46" type="line"/>
      <point x="167" y="81" type="line"/>
      <point x="367" y="435" type="line"/>
      <point x="101" y="866" type="line"/>
      <point x="48" y="901" type="line"/>
      <point x="48" y="953" type="line"/>
      <point x="604" y="953" type="line"/>
      <point x="604" y="901" type="line"/>
      <point x="487" y="864" type="line"/>
      <point x="602" y="682" type="line"/>
      <point x="660" y="574" type="line"/>
      <point x="670" y="574" type="line"/>
      <point x="719" y="682" type="line"/>
      <point x="830" y="871" type="line"/>
      <point x="707" y="901" type="line"/>
      <point x="707" y="953" type="line"/>
      <point x="953" y="953" type="line"/>
      <point x="953" y="901" type="line"/>
      <point x="877" y="866" type="line"/>
      <point x="686" y="517" type="line"/>
      <point x="953" y="81" type="line"/>
      <point x="1016" y="46" type="line"/>
      <point x="1016" y="0" type="line"/>
      <point x="455" y="0" type="line"/>
      <point x="455" y="46" type="line"/>
      <point x="569" y="83" type="line"/>
      <point x="445" y="281" type="line"/>
      <point x="395" y="378" type="line"/>
      <point x="385" y="378" type="line"/>
      <point x="337" y="281" type="line"/>
      <point x="220" y="76" type="line"/>
      <point x="332" y="46" type="line"/>
      <point x="332" y="0" type="line"/>
    </contour>
  </outline>
</glyph>
<glyph name="y" format="2">
  <advance width="933"/>
  <unicode hex="0079"/>
  <anchor x="869" y="0" name="bottom"/>
  <anchor x="566" y="953" name="top"/>
  <outline>
    <contour>
      <point x="25" y="901" type="line"/>
      <point x="25" y="953" type="line"/>
      <point x="567" y="953" type="line"/>
      <point x="567" y="901" type="line"/>
      <point x="460" y="864" type="line"/>
      <point x="543" y="506" type="line"/>
      <point x="587" y="324" type="line"/>
      <point x="612" y="218" type="line"/>
      <point x="622" y="218" type="line"/>
      <point x="646" y="324" type="line"/>
      <point x="690" y="512" type="line"/>
      <point x="772" y="871" type="line"/>
      <point x="663" y="901" type="line"/>
      <point x="663" y="953" type="line"/>
      <point x="919" y="953" type="line"/>
      <point x="919" y="901" type="line"/>
      <point x="829" y="866" type="line"/>
      <point x="727" y="470" type="line"/>
      <point x="531" y="-268" type="line" smooth="yes"/>
      <point x="502" y="-382"/>
      <point x="383" y="-474"/>
      <point x="313" y="-474" type="qcurve"/>
      <point x="216" y="-453" type="line"/>
      <point x="216" y="-411" type="line"/>
      <point x="300" y="-411" type="line" smooth="yes"/>
      <point x="364" y="-411"/>
      <point x="468" y="-350"/>
      <point x="510" y="-176" type="qcurve" smooth="yes"/>
      <point x="545" y="-5" type="line"/>
      <point x="347" y="-5" type="line"/>
      <point x="219" y="432" type="line"/>
      <point x="93" y="866" type="line"/>
    </contour>
  </outline>
</glyph>
<glyph name="z" format="2">
  <advance width="764"/>
  <unicode hex="007A"/>
  <anchor x="471" y="0" name="bottom"/>
  <anchor x="471" y="953" name="top"/>
  <outline>
    <contour>
      <point x="-10" y="0" type="line"/>
      <point x="-10" y="90" type="line"/>
      <point x="424" y="904" type="line"/>
      <point x="112" y="904" type="line"/>
      <point x="85" y="764" type="line"/>
      <point x="22" y="764" type="line"/>
      <point x="22" y="953" type="line"/>
      <point x="759" y="953" type="line"/>
      <point x="759" y="864" type="line"/>
      <point x="312" y="48" type="line"/>
      <point x="680" y="48" type="line"/>
      <point x="707" y="188" type="line"/>
      <point x="770" y="188" type="line"/>
      <point x="770" y="0" type="line"/>
    </contour>
  </outline>
</glyph>
<glyph name="braceleft" format="2">
  <advance width="616"/>
  <unicode hex="007B"/>
  <outline>
    <contour>
      <point x="-40" y="512" type="line"/>
      <point x="-40" y="553" type="line"/>
      <point x="31" y="568" type="line" smooth="yes"/>
      <point x="87" y="578"/>
      <point x="139" y="660"/>
      <point x="139" y="716" type="qcurve" smooth="yes"/>
      <point x="139" y="834"/>
      <point x="10" y="1066"/>
      <point x="10" y="1184" type="qcurve" smooth="yes"/>
      <point x="10" y="1343"/>
      <point x="214" y="1510"/>
      <point x="399" y="1510" type="qcurve" smooth="yes"/>
      <point x="527" y="1510"/>
      <point x="569" y="1503"/>
      <point x="606" y="1500" type="qcurve"/>
      <point x="606" y="1450" type="line"/>
      <point x="554" y="1452"/>
      <point x="531" y="1452"/>
      <point x="482" y="1452" type="qcurve" smooth="yes"/>
      <point x="400" y="1452"/>
      <point x="334" y="1348"/>
      <point x="334" y="1240" type="qcurve" smooth="yes"/>
      <point x="334" y="1127"/>
      <point x="425" y="894"/>
      <point x="425" y="792" type="qcurve" smooth="yes"/>
      <point x="425" y="697"/>
      <point x="360" y="571"/>
      <point x="309" y="550" type="qcurve"/>
      <point x="372" y="516"/>
      <point x="425" y="384"/>
      <point x="425" y="314" type="qcurve" smooth="yes"/>
      <point x="425" y="223"/>
      <point x="304" y="-109"/>
      <point x="304" y="-223" type="qcurve" smooth="yes"/>
      <point x="304" y="-331"/>
      <point x="375" y="-437"/>
      <point x="457" y="-437" type="qcurve" smooth="yes"/>
      <point x="506" y="-437"/>
      <point x="549" y="-437"/>
      <point x="601" y="-435" type="qcurve"/>
      <point x="601" y="-484" type="line"/>
      <point x="564" y="-487"/>
      <point x="502" y="-495"/>
      <point x="374" y="-495" type="qcurve" smooth="yes"/>
      <point x="189" y="-495"/>
      <point x="-20" y="-327"/>
      <point x="-20" y="-168" type="qcurve" smooth="yes"/>
      <point x="-20" y="-50"/>
      <point x="138" y="246"/>
      <point x="138" y="364" type="qcurve"/>
      <point x="138" y="512" type="line"/>
    </contour>
  </outline>
</glyph>
<glyph name="bar" format="2">
  <advance width="148"/>
  <unicode hex="007C"/>
  <outline>
    <contour>
      <point x="23" y="-540" type="line"/>
      <point x="40" y="-58" type="line"/>
      <point x="43" y="250" type="line"/>
      <point x="41" y="830" type="line"/>
      <point x="39" y="1138" type="line"/>
      <point x="21" y="1511" type="line"/>
      <point x="123" y="1550" type="line"/>
      <point x="103" y="1138" type="line"/>
      <point x="99" y="830" type="line"/>
      <point x="99" y="250" type="line"/>
      <point x="103" y="-58" type="line"/>
      <point x="121" y="-501" type="line"/>
    </contour>
  </outline>
</glyph>
<glyph name="braceright" format="2">
  <advance width="616"/>
  <unicode hex="007D"/>
  <outline>
    <contour>
      <point x="15" y="-484" type="qcurve"/>
      <point x="15" y="-434" type="line"/>
      <point x="67" y="-437"/>
      <point x="118" y="-437"/>
      <point x="164" y="-437" type="qcurve" smooth="yes"/>
      <point x="250" y="-437"/>
      <point x="315" y="-331"/>
      <point x="315" y="-222" type="qcurve" smooth="yes"/>
      <point x="315" y="-109"/>
      <point x="190" y="223"/>
      <point x="190" y="314" type="qcurve" smooth="yes"/>
      <point x="190" y="384"/>
      <point x="243" y="516"/>
      <point x="306" y="550" type="qcurve"/>
      <point x="255" y="571"/>
      <point x="190" y="697"/>
      <point x="190" y="792" type="qcurve" smooth="yes"/>
      <point x="190" y="883"/>
      <point x="281" y="1121"/>
      <point x="281" y="1236" type="qcurve" smooth="yes"/>
      <point x="281" y="1346"/>
      <point x="208" y="1452"/>
      <point x="128" y="1452" type="qcurve" smooth="yes"/>
      <point x="77" y="1452"/>
      <point x="62" y="1452"/>
      <point x="10" y="1450" type="qcurve"/>
      <point x="10" y="1500" type="line"/>
      <point x="48" y="1503"/>
      <point x="83" y="1510"/>
      <point x="208" y="1510" type="qcurve" smooth="yes"/>
      <point x="393" y="1510"/>
      <point x="599" y="1343"/>
      <point x="599" y="1184" type="qcurve" smooth="yes"/>
      <point x="599" y="1066"/>
      <point x="477" y="834"/>
      <point x="477" y="716" type="qcurve" smooth="yes"/>
      <point x="477" y="660"/>
      <point x="529" y="578"/>
      <point x="585" y="568" type="qcurve" smooth="yes"/>
      <point x="655" y="553" type="line"/>
      <point x="655" y="512" type="line"/>
      <point x="478" y="512" type="line"/>
      <point x="478" y="364" type="line"/>
      <point x="478" y="246"/>
      <point x="648" y="-50"/>
      <point x="648" y="-168" type="qcurve" smooth="yes"/>
      <point x="648" y="-327"/>
      <point x="433" y="-495"/>
      <point x="251" y="-495" type="qcurve" smooth="yes"/>
      <point x="124" y="-495"/>
      <point x="52" y="-487"/>
    </contour>
  </outline>
</glyph>
<glyph name="asciitilde" format="2">
  <advance width="726"/>
  <unicode hex="007E"/>
  <outline>
    <contour>
      <point x="3" y="601" type="line"/>
      <point x="50" y="694"/>
      <point x="209" y="857"/>
      <point x="274" y="857" type="qcurve"/>
      <point x="600" y="704" type="line"/>
      <point x="630" y="697"/>
      <point x="660" y="731"/>
      <point x="680" y="785" type="qcurve"/>
      <point x="723" y="761" type="line"/>
      <point x="687" y="657"/>
      <point x="560" y="477"/>
      <point x="464" y="477" type="qcurve"/>
      <point x="121" y="638" type="line"/>
      <point x="106" y="647"/>
      <point x="78" y="628"/>
      <point x="41" y="571" type="qcurve"/>
    </contour>
  </outline>
</glyph>
<glyph name="exclamdown" format="2">
  <advance width="166"/>
  <unicode hex="00A1"/>
  <outline>
    <contour>
      <point x="286" y="1147" type="qcurve" smooth="yes"/>
      <point x="286" y="1065"/>
      <point x="172" y="944"/>
      <point x="83" y="944" type="qcurve" smooth="yes"/>
      <point x="-6" y="944"/>
      <point x="-119" y="1065"/>
      <point x="-119" y="1147" type="qcurve" smooth="yes"/>
      <point x="-119" y="1227"/>
      <point x="-6" y="1348"/>
      <point x="83" y="1348" type="qcurve" smooth="yes"/>
      <point x="172" y="1348"/>
      <point x="286" y="1227"/>
    </contour>
    <contour>
      <point x="261" y="-36" type="line" smooth="yes"/>
      <point x="268" y="-104"/>
      <point x="191" y="-236"/>
      <point x="87" y="-237" type="qcurve" smooth="yes"/>
      <point x="-17" y="-238"/>
      <point x="-102" y="-106"/>
      <point x="-95" y="-37" type="qcurve" smooth="yes"/>
      <point x="-72" y="218" type="line"/>
      <point x="11" y="526" type="line"/>
      <point x="37" y="819" type="line"/>
      <point x="131" y="819" type="line"/>
      <point x="158" y="526" type="line"/>
      <point x="238" y="218" type="line"/>
    </contour>
  </outline>
</glyph>
<glyph name="cent" format="2">
  <advance width="874"/>
  <unicode hex="00A2"/>
  <outline>
    <contour>
      <point x="-39" y="475" type="qcurve" smooth="yes"/>
      <point x="-39" y="714"/>
      <point x="222" y="1022"/>
      <point x="448" y="1022" type="qcurve" smooth="yes"/>
      <point x="511" y="1022"/>
      <point x="632" y="989"/>
      <point x="662" y="965" type="qcurve"/>
      <point x="694" y="1019" type="line"/>
      <point x="782" y="990" type="line"/>
      <point x="798" y="664" type="line"/>
      <point x="700" y="647" type="line"/>
      <point x="681" y="715" type="line" smooth="yes"/>
      <point x="659" y="794"/>
      <point x="523" y="911"/>
      <point x="449" y="911" type="qcurve" smooth="yes"/>
      <point x="310" y="911"/>
      <point x="141" y="711"/>
      <point x="141" y="517" type="qcurve" smooth="yes"/>
      <point x="141" y="315"/>
      <point x="341" y="108"/>
      <point x="511" y="108" type="qcurve" smooth="yes"/>
      <point x="615" y="108"/>
      <point x="757" y="177"/>
      <point x="812" y="228" type="qcurve"/>
      <point x="863" y="168" type="line"/>
      <point x="816" y="105"/>
      <point x="622" y="-22"/>
      <point x="472" y="-22" type="qcurve" smooth="yes"/>
      <point x="241" y="-22"/>
      <point x="-39" y="246"/>
    </contour>
    <contour>
      <point x="371" y="-210" type="line"/>
      <point x="371" y="52" type="line"/>
      <point x="398" y="52" type="line"/>
      <point x="398" y="520" type="line"/>
      <point x="502" y="478" type="line"/>
      <point x="502" y="52" type="line"/>
      <point x="531" y="52" type="line"/>
      <point x="531" y="-160" type="line"/>
    </contour>
    <contour>
      <point x="370" y="1170" type="line"/>
      <point x="530" y="1209" type="line"/>
      <point x="530" y="988" type="line"/>
      <point x="502" y="988" type="line"/>
      <point x="502" y="478" type="line"/>
      <point x="398" y="520" type="line"/>
      <point x="398" y="988" type="line"/>
      <point x="370" y="988" type="line"/>
    </contour>
  </outline>
</glyph>
<glyph name="sterling" format="2">
  <advance width="880"/>
  <unicode hex="00A3"/>
  <outline>
    <contour>
      <point x="611" y="550" type="qcurve" smooth="yes"/>
      <point x="611" y="414"/>
      <point x="535" y="185"/>
      <point x="489" y="141" type="qcurve"/>
      <point x="497" y="108" type="line"/>
      <point x="653" y="108" type="line"/>
      <point x="787" y="372" type="line"/>
      <point x="899" y="372" type="line"/>
      <point x="800" y="0" type="line"/>
      <point x="70" y="0" type="line"/>
      <point x="10" y="100" type="line"/>
      <point x="37" y="125" type="line"/>
      <point x="129" y="115"/>
      <point x="226" y="346"/>
      <point x="226" y="434" type="qcurve" smooth="yes"/>
      <point x="226" y="524"/>
      <point x="188" y="676"/>
      <point x="162" y="747" type="qcurve" smooth="yes"/>
      <point x="127" y="842"/>
      <point x="61" y="1039"/>
      <point x="61" y="1146" type="qcurve" smooth="yes"/>
      <point x="61" y="1279"/>
      <point x="297" y="1501"/>
      <point x="477" y="1501" type="qcurve" smooth="yes"/>
      <point x="613" y="1501"/>
      <point x="777" y="1404"/>
      <point x="850" y="1310" type="qcurve"/>
      <point x="755" y="1222" type="line"/>
      <point x="725" y="1279"/>
      <point x="640" y="1371"/>
      <point x="581" y="1371" type="qcurve" smooth="yes"/>
      <point x="512" y="1371"/>
      <point x="443" y="1246"/>
      <point x="443" y="1163" type="qcurve" smooth="yes"/>
      <point x="443" y="1087"/>
      <point x="502" y="923"/>
      <point x="535" y="836" type="qcurve" smooth="yes"/>
      <point x="564" y="759"/>
      <point x="611" y="609"/>
    </contour>
    <contour>
      <point x="98" y="571" type="line"/>
      <point x="74" y="707" type="line"/>
      <point x="760" y="707" type="line"/>
      <point x="730" y="571" type="line"/>
    </contour>
  </outline>
</glyph>
<glyph name="currency" format="2">
  <advance width="1231"/>
  <unicode hex="00A4"/>
  <outline>
    <contour>
      <point x="84" y="760" type="qcurve" smooth="yes"/>
      <point x="84" y="977"/>
      <point x="370" y="1282"/>
      <point x="602" y="1282" type="qcurve" smooth="yes"/>
      <point x="835" y="1282"/>
      <point x="1124" y="997"/>
      <point x="1124" y="766" type="qcurve" smooth="yes"/>
      <point x="1124" y="550"/>
      <point x="840" y="238"/>
      <point x="608" y="238" type="qcurve" smooth="yes"/>
      <point x="375" y="238"/>
      <point x="84" y="527"/>
    </contour>
    <contour>
      <point x="236" y="779" type="qcurve" smooth="yes"/>
      <point x="237" y="609"/>
      <point x="436" y="374"/>
      <point x="600" y="374" type="qcurve" smooth="yes"/>
      <point x="776" y="374"/>
      <point x="966" y="588"/>
      <point x="966" y="765" type="qcurve" smooth="yes"/>
      <point x="966" y="928"/>
      <point x="767" y="1140"/>
      <point x="602" y="1140" type="qcurve" smooth="yes"/>
      <point x="424" y="1140"/>
      <point x="235" y="947"/>
    </contour>
    <contour>
      <point x="238" y="1018" type="line"/>
      <point x="-23" y="1279" type="line"/>
      <point x="93" y="1402" type="line"/>
      <point x="354" y="1141" type="line"/>
    </contour>
    <contour>
      <point x="993" y="1018" type="line"/>
      <point x="877" y="1141" type="line"/>
      <point x="1138" y="1402" type="line"/>
      <point x="1254" y="1279" type="line"/>
    </contour>
    <contour>
      <point x="238" y="482" type="line"/>
      <point x="354" y="359" type="line"/>
      <point x="93" y="98" type="line"/>
      <point x="-23" y="221" type="line"/>
    </contour>
    <contour>
      <point x="993" y="482" type="line"/>
      <point x="1254" y="221" type="line"/>
      <point x="1138" y="98" type="line"/>
      <point x="877" y="359" type="line"/>
    </contour>
  </outline>
</glyph>
<glyph name="yen" format="2">
  <advance width="1272"/>
  <unicode hex="00A5"/>
  <outline>
    <contour>
      <point x="80" y="631" type="line"/>
      <point x="50" y="757" type="line"/>
      <point x="1222" y="757" type="line"/>
      <point x="1192" y="631" type="line"/>
    </contour>
    <contour>
      <point x="451" y="649" type="line"/>
      <point x="324" y="1019" type="line"/>
      <point x="189" y="1360" type="line"/>
      <point x="28" y="1386" type="line"/>
      <point x="28" y="1500" type="line"/>
      <point x="752" y="1500" type="line"/>
      <point x="752" y="1386" type="line"/>
      <point x="596" y="1351" type="line"/>
      <point x="680" y="1085" type="line"/>
      <point x="766" y="831" type="line"/>
      <point x="841" y="1078" type="line"/>
      <point x="923" y="1358" type="line"/>
      <point x="737" y="1386" type="line"/>
      <point x="737" y="1500" type="line"/>
      <point x="1244" y="1500" type="line"/>
      <point x="1244" y="1386" type="line"/>
      <point x="1077" y="1359" type="line"/>
      <point x="960" y="1040" type="line"/>
      <point x="825" y="654" type="line"/>
      <point x="827" y="135" type="line"/>
      <point x="1045" y="100" type="line"/>
      <point x="1045" y="0" type="line"/>
      <point x="228" y="0" type="line"/>
      <point x="228" y="100" type="line"/>
      <point x="449" y="135" type="line"/>
    </contour>
    <contour>
      <point x="140" y="331" type="line"/>
      <point x="110" y="457" type="line"/>
      <point x="1162" y="457" type="line"/>
      <point x="1132" y="331" type="line"/>
    </contour>
  </outline>
</glyph>
<glyph name="brokenbar" format="2">
  <advance width="194"/>
  <unicode hex="00A6"/>
  <outline>
    <contour>
      <point x="17" y="688" type="line"/>
      <point x="26" y="900" type="line"/>
      <point x="14" y="1208" type="line"/>
      <point x="2" y="1480" type="line"/>
      <point x="192" y="1550" type="line"/>
      <point x="180" y="1208" type="line"/>
      <point x="166" y="900" type="line"/>
      <point x="168" y="738" type="line"/>
    </contour>
    <contour>
      <point x="2" y="-540" type="line"/>
      <point x="14" y="-128" type="line"/>
      <point x="28" y="180" type="line"/>
      <point x="26" y="348" type="line"/>
      <point x="177" y="408" type="line"/>
      <point x="168" y="180" type="line"/>
      <point x="180" y="-128" type="line"/>
      <point x="192" y="-451" type="line"/>
    </contour>
  </outline>
</glyph>
<glyph name="section" format="2">
  <advance width="619"/>
  <unicode hex="00A7"/>
  <outline>
    <contour>
      <point x="693" y="150" type="qcurve" smooth="yes"/>
      <point x="693" y="-35"/>
      <point x="501" y="-253"/>
      <point x="340" y="-253" type="qcurve" smooth="yes"/>
      <point x="239" y="-253"/>
      <point x="90" y="-187"/>
      <point x="44" y="-135" type="qcurve"/>
      <point x="3" y="-235" type="line"/>
      <point x="-93" y="-235" type="line"/>
      <point x="-93" y="196" type="line"/>
      <point x="13" y="196" type="line"/>
      <point x="31" y="103" type="line" smooth="yes"/>
      <point x="56" y="-26"/>
      <point x="172" y="-134"/>
      <point x="256" y="-134" type="qcurve" smooth="yes"/>
      <point x="352" y="-134"/>
      <point x="436" y="-29"/>
      <point x="436" y="69" type="qcurve" smooth="yes"/>
      <point x="436" y="175"/>
      <point x="297" y="282"/>
      <point x="135" y="344" type="qcurve" smooth="yes"/>
      <point x="-11" y="394"/>
      <point x="-88" y="568"/>
      <point x="-88" y="695" type="qcurve" smooth="yes"/>
      <point x="-88" y="803"/>
      <point x="41" y="940"/>
      <point x="192" y="989" type="qcurve"/>
      <point x="61" y="1028"/>
      <point x="-60" y="1156"/>
      <point x="-60" y="1247" type="qcurve" smooth="yes"/>
      <point x="-60" y="1358"/>
      <point x="114" y="1512"/>
      <point x="276" y="1512" type="qcurve" smooth="yes"/>
      <point x="356" y="1512"/>
      <point x="471" y="1472"/>
      <point x="510" y="1449" type="qcurve"/>
      <point x="524" y="1480" type="line"/>
      <point x="615" y="1480" type="line"/>
      <point x="615" y="1184" type="line"/>
      <point x="509" y="1184" type="line"/>
      <point x="488" y="1297" type="line" smooth="yes"/>
      <point x="480" y="1342"/>
      <point x="399" y="1401"/>
      <point x="338" y="1401" type="qcurve" smooth="yes"/>
      <point x="258" y="1401"/>
      <point x="197" y="1334"/>
      <point x="197" y="1281" type="qcurve" smooth="yes"/>
      <point x="197" y="1230"/>
      <point x="269" y="1171"/>
      <point x="397" y="1133" type="qcurve" smooth="yes"/>
      <point x="526" y="1096"/>
      <point x="678" y="929"/>
      <point x="678" y="793" type="qcurve" smooth="yes"/>
      <point x="678" y="693"/>
      <point x="535" y="579"/>
      <point x="396" y="549" type="qcurve"/>
      <point x="550" y="495"/>
      <point x="693" y="295"/>
    </contour>
    <contour>
      <point x="165" y="822" type="qcurve" smooth="yes"/>
      <point x="165" y="731"/>
      <point x="285" y="611"/>
      <point x="418" y="553" type="qcurve"/>
      <point x="428" y="600"/>
      <point x="424" y="681"/>
      <point x="424" y="740" type="qcurve" smooth="yes"/>
      <point x="424" y="810"/>
      <point x="352" y="889"/>
      <point x="341" y="910" type="qcurve" smooth="yes"/>
      <point x="276" y="935"/>
      <point x="236" y="967"/>
      <point x="213" y="985" type="qcurve"/>
      <point x="193" y="950"/>
      <point x="165" y="868"/>
    </contour>
  </outline>
</glyph>
<glyph name="copyright" format="2">
  <advance width="1626"/>
  <unicode hex="00A9"/>
  <outline>
    <contour>
      <point x="338" y="662" type="qcurve" smooth="yes"/>
      <point x="338" y="901"/>
      <point x="599" y="1209"/>
      <point x="825" y="1209" type="qcurve" smooth="yes"/>
      <point x="888" y="1209"/>
      <point x="1009" y="1176"/>
      <point x="1039" y="1152" type="qcurve"/>
      <point x="1071" y="1206" type="line"/>
      <point x="1159" y="1177" type="line"/>
      <point x="1175" y="851" type="line"/>
      <point x="1077" y="834" type="line"/>
      <point x="1028" y="1019" type="line"/>
      <point x="986" y="1053"/>
      <point x="883" y="1098"/>
      <point x="826" y="1098" type="qcurve" smooth="yes"/>
      <point x="687" y="1098"/>
      <point x="518" y="898"/>
      <point x="518" y="704" type="qcurve" smooth="yes"/>
      <point x="518" y="502"/>
      <point x="718" y="295"/>
      <point x="849" y="295" type="qcurve" smooth="yes"/>
      <point x="968" y="295"/>
      <point x="1151" y="398"/>
      <point x="1199" y="455" type="qcurve"/>
      <point x="1259" y="380" type="line"/>
      <point x="1197" y="287"/>
      <point x="959" y="165"/>
      <point x="849" y="165" type="qcurve" smooth="yes"/>
      <point x="618" y="165"/>
      <point x="338" y="433"/>
    </contour>
    <contour>
      <point x="-110" y="685" type="qcurve" smooth="yes"/>
      <point x="-110" y="1061"/>
      <point x="411" y="1570"/>
      <point x="815" y="1570" type="qcurve" smooth="yes"/>
      <point x="1217" y="1570"/>
      <point x="1736" y="1087"/>
      <point x="1736" y="706" type="qcurve" smooth="yes"/>
      <point x="1736" y="288"/>
      <point x="1224" y="-242"/>
      <point x="827" y="-242" type="qcurve" smooth="yes"/>
      <point x="418" y="-242"/>
      <point x="-110" y="276"/>
    </contour>
    <contour>
      <point x="55" y="681" type="qcurve" smooth="yes"/>
      <point x="55" y="335"/>
      <point x="512" y="-118"/>
      <point x="843" y="-118" type="qcurve" smooth="yes"/>
      <point x="1164" y="-118"/>
      <point x="1571" y="360"/>
      <point x="1571" y="698" type="qcurve" smooth="yes"/>
      <point x="1571" y="1007"/>
      <point x="1141" y="1446"/>
      <point x="795" y="1446" type="qcurve" smooth="yes"/>
      <point x="467" y="1446"/>
      <point x="55" y="998"/>
    </contour>
  </outline>
</glyph>
<glyph name="ordfeminine" format="2">
  <advance width="781"/>
  <unicode hex="00AA"/>
  <outline>
    <contour>
      <point x="-81" y="891" type="qcurve" smooth="yes"/>
      <point x="-81" y="1006"/>
      <point x="179" y="1174"/>
      <point x="430" y="1215" type="qcurve"/>
      <point x="434" y="1128" type="line"/>
      <point x="336" y="1104"/>
      <point x="215" y="1012"/>
      <point x="215" y="899" type="qcurve" smooth="yes"/>
      <point x="215" y="837"/>
      <point x="257" y="782"/>
      <point x="292" y="782" type="qcurve" smooth="yes"/>
      <point x="326" y="782"/>
      <point x="402" y="860"/>
      <point x="416" y="905" type="qcurve"/>
      <point x="418" y="1202" type="line" smooth="yes"/>
      <point x="419" y="1353"/>
      <point x="368" y="1444"/>
      <point x="320" y="1444" type="qcurve" smooth="yes"/>
      <point x="282" y="1444"/>
      <point x="223" y="1412"/>
      <point x="202" y="1385" type="qcurve"/>
      <point x="225" y="1367"/>
      <point x="249" y="1328"/>
      <point x="251" y="1306" type="qcurve" smooth="yes"/>
      <point x="255" y="1258"/>
      <point x="174" y="1210"/>
      <point x="113" y="1210" type="qcurve" smooth="yes"/>
      <point x="53" y="1210"/>
      <point x="-25" y="1275"/>
      <point x="-25" y="1332" type="qcurve" smooth="yes"/>
      <point x="-25" y="1423"/>
      <point x="210" y="1543"/>
      <point x="325" y="1543" type="qcurve" smooth="yes"/>
      <point x="512" y="1543"/>
      <point x="701" y="1386"/>
      <point x="703" y="1194" type="qcurve" smooth="yes"/>
      <point x="708" y="780" type="line"/>
      <point x="838" y="751" type="line"/>
      <point x="838" y="684" type="line"/>
      <point x="483" y="684" type="line"/>
      <point x="439" y="734" type="line"/>
      <point x="425" y="791" type="line"/>
      <point x="389" y="748"/>
      <point x="247" y="670"/>
      <point x="144" y="670" type="qcurve" smooth="yes"/>
      <point x="40" y="670"/>
      <point x="-81" y="794"/>
    </contour>
  </outline>
</glyph>
<glyph name="guillemotleft" format="2">
  <advance width="1333"/>
  <unicode hex="00AB"/>
  <outline>
    <contour>
      <point x="25" y="624" type="line"/>
      <point x="109" y="672"/>
      <point x="606" y="979"/>
      <point x="678" y="1024" type="qcurve" smooth="yes"/>
      <point x="748" y="1068"/>
      <point x="821" y="981"/>
      <point x="764" y="925" type="qcurve" smooth="yes"/>
      <point x="690" y="854"/>
      <point x="438" y="657"/>
      <point x="396" y="613" type="qcurve"/>
      <point x="439" y="565"/>
      <point x="693" y="357"/>
      <point x="768" y="283" type="qcurve" smooth="yes"/>
      <point x="822" y="229"/>
      <point x="770" y="136"/>
      <point x="697" y="174" type="qcurve" smooth="yes"/>
      <point x="631" y="208"/>
      <point x="100" y="536"/>
      <point x="25" y="584" type="qcurve"/>
    </contour>
    <contour>
      <point x="530" y="624" type="line"/>
      <point x="614" y="672"/>
      <point x="1111" y="979"/>
      <point x="1183" y="1024" type="qcurve" smooth="yes"/>
      <point x="1253" y="1068"/>
      <point x="1326" y="981"/>
      <point x="1269" y="925" type="qcurve" smooth="yes"/>
      <point x="1195" y="854"/>
      <point x="943" y="657"/>
      <point x="901" y="613" type="qcurve"/>
      <point x="944" y="565"/>
      <point x="1198" y="357"/>
      <point x="1273" y="283" type="qcurve" smooth="yes"/>
      <point x="1327" y="229"/>
      <point x="1275" y="136"/>
      <point x="1202" y="174" type="qcurve" smooth="yes"/>
      <point x="1136" y="208"/>
      <point x="605" y="536"/>
      <point x="530" y="584" type="qcurve"/>
    </contour>
  </outline>
</glyph>
<glyph name="logicalnot" format="2">
  <advance width="479"/>
  <unicode hex="00AC"/>
  <outline>
    <contour>
      <point x="-63" y="746" type="line"/>
      <point x="598" y="746" type="line"/>
      <point x="598" y="200" type="line"/>
      <point x="438" y="200" type="line"/>
      <point x="438" y="512" type="line"/>
      <point x="-63" y="512" type="line"/>
    </contour>
  </outline>
</glyph>
<glyph name="registered" format="2">
  <advance width="1702"/>
  <unicode hex="00AE"/>
  <outline>
    <contour>
      <point x="-72" y="685" type="qcurve" smooth="yes"/>
      <point x="-72" y="1061"/>
      <point x="449" y="1570"/>
      <point x="853" y="1570" type="qcurve" smooth="yes"/>
      <point x="1255" y="1570"/>
      <point x="1774" y="1087"/>
      <point x="1774" y="706" type="qcurve" smooth="yes"/>
      <point x="1774" y="288"/>
      <point x="1262" y="-242"/>
      <point x="865" y="-242" type="qcurve" smooth="yes"/>
      <point x="456" y="-242"/>
      <point x="-72" y="276"/>
    </contour>
    <contour>
      <point x="93" y="681" type="qcurve" smooth="yes"/>
      <point x="93" y="335"/>
      <point x="550" y="-118"/>
      <point x="881" y="-118" type="qcurve" smooth="yes"/>
      <point x="1202" y="-118"/>
      <point x="1609" y="360"/>
      <point x="1609" y="698" type="qcurve" smooth="yes"/>
      <point x="1609" y="1007"/>
      <point x="1179" y="1446"/>
      <point x="833" y="1446" type="qcurve" smooth="yes"/>
      <point x="505" y="1446"/>
      <point x="93" y="998"/>
    </contour>
    <contour>
      <point x="422" y="176" type="line"/>
      <point x="412" y="266" type="line"/>
      <point x="529" y="290" type="line"/>
      <point x="540" y="723" type="line"/>
      <point x="529" y="1088" type="line"/>
      <point x="402" y="1111" type="line"/>
      <point x="402" y="1209" type="line"/>
      <point x="875" y="1209" type="line" smooth="yes"/>
      <point x="1033" y="1209"/>
      <point x="1186" y="1082"/>
      <point x="1186" y="968" type="qcurve" smooth="yes"/>
      <point x="1186" y="841"/>
      <point x="999" y="664"/>
      <point x="873" y="664" type="qcurve" smooth="yes"/>
      <point x="822" y="664"/>
      <point x="682" y="673"/>
      <point x="658" y="673" type="qcurve"/>
      <point x="658" y="758" type="line"/>
      <point x="815" y="758" type="line" smooth="yes"/>
      <point x="934" y="758"/>
      <point x="1018" y="868"/>
      <point x="1018" y="959" type="qcurve" smooth="yes"/>
      <point x="1018" y="1039"/>
      <point x="926" y="1108"/>
      <point x="823" y="1108" type="qcurve" smooth="yes"/>
      <point x="716" y="1108" type="line"/>
      <point x="695" y="1095" type="line"/>
      <point x="682" y="723" type="line"/>
      <point x="693" y="290" type="line"/>
      <point x="825" y="266" type="line"/>
      <point x="825" y="176" type="line"/>
    </contour>
    <contour>
      <point x="776" y="710" type="line"/>
      <point x="927" y="738" type="line"/>
      <point x="1177" y="393" type="line" smooth="yes"/>
      <point x="1248" y="295"/>
      <point x="1343" y="266"/>
      <point x="1385" y="266" type="qcurve"/>
      <point x="1385" y="176" type="line"/>
      <point x="1194" y="176" type="line"/>
      <point x="1152" y="190" type="line"/>
    </contour>
  </outline>
</glyph>
<glyph name="degree" format="2">
  <advance width="449"/>
  <unicode hex="00B0"/>
  <outline>
    <contour>
      <point x="-93" y="1243" type="qcurve" smooth="yes"/>
      <point x="-93" y="1371"/>
      <point x="85" y="1560"/>
      <point x="224" y="1560" type="qcurve" smooth="yes"/>
      <point x="363" y="1560"/>
      <point x="541" y="1371"/>
      <point x="541" y="1243" type="qcurve" smooth="yes"/>
      <point x="541" y="1118"/>
      <point x="363" y="928"/>
      <point x="224" y="928" type="qcurve" smooth="yes"/>
      <point x="85" y="928"/>
      <point x="-93" y="1118"/>
    </contour>
    <contour>
      <point x="28" y="1243" type="qcurve" smooth="yes"/>
      <point x="28" y="1167"/>
      <point x="139" y="1049"/>
      <point x="224" y="1049" type="qcurve" smooth="yes"/>
      <point x="310" y="1049"/>
      <point x="420" y="1167"/>
      <point x="420" y="1243" type="qcurve" smooth="yes"/>
      <point x="420" y="1323"/>
      <point x="310" y="1439"/>
      <point x="224" y="1439" type="qcurve" smooth="yes"/>
      <point x="139" y="1439"/>
      <point x="28" y="1323"/>
    </contour>
  </outline>
</glyph>
<glyph name="plusminus" format="2">
  <advance width="756"/>
  <unicode hex="00B1"/>
  <outline>
    <contour>
      <point x="-54" y="556" type="line"/>
      <point x="-54" y="708" type="line"/>
      <point x="810" y="708" type="line"/>
      <point x="810" y="556" type="line"/>
    </contour>
    <contour>
      <point x="298" y="238" type="line"/>
      <point x="298" y="1064" type="line"/>
      <point x="458" y="1064" type="line"/>
      <point x="458" y="238" type="line"/>
    </contour>
    <contour>
      <point x="-54" y="26" type="line"/>
      <point x="-54" y="171" type="line"/>
      <point x="810" y="171" type="line"/>
      <point x="810" y="26" type="line"/>
    </contour>
  </outline>
</glyph>
<glyph name="twosuperior" format="2">
  <advance width="526"/>
  <unicode hex="00B2"/>
  <outline>
    <contour>
      <point x="-40" y="671" type="line"/>
      <point x="-42" y="845" type="line"/>
      <point x="-26" y="913"/>
      <point x="94" y="1036"/>
      <point x="164" y="1106" type="qcurve" smooth="yes"/>
      <point x="223" y="1163"/>
      <point x="257" y="1240"/>
      <point x="256" y="1298" type="qcurve" smooth="yes"/>
      <point x="254" y="1355"/>
      <point x="204" y="1409"/>
      <point x="172" y="1409" type="qcurve" smooth="yes"/>
      <point x="122" y="1409"/>
      <point x="59" y="1365"/>
      <point x="26" y="1315" type="qcurve"/>
      <point x="-46" y="1398" type="line"/>
      <point x="6" y="1452"/>
      <point x="153" y="1520"/>
      <point x="277" y="1520" type="qcurve" smooth="yes"/>
      <point x="395" y="1520"/>
      <point x="565" y="1413"/>
      <point x="565" y="1312" type="qcurve" smooth="yes"/>
      <point x="565" y="1203"/>
      <point x="445" y="1067"/>
      <point x="309" y="1025" type="qcurve" smooth="yes"/>
      <point x="201" y="981"/>
      <point x="116" y="919"/>
      <point x="94" y="894" type="qcurve"/>
      <point x="94" y="868" type="line"/>
      <point x="575" y="868" type="line"/>
      <point x="575" y="671" type="line"/>
    </contour>
  </outline>
</glyph>
<glyph name="threesuperior" format="2">
  <advance width="502"/>
  <unicode hex="00B3"/>
  <outline>
    <contour>
      <point x="-19" y="721" type="qcurve"/>
      <point x="26" y="814" type="line"/>
      <point x="58" y="782"/>
      <point x="123" y="755"/>
      <point x="158" y="755" type="qcurve" smooth="yes"/>
      <point x="204" y="755"/>
      <point x="252" y="825"/>
      <point x="252" y="908" type="qcurve" smooth="yes"/>
      <point x="252" y="989"/>
      <point x="182" y="1059"/>
      <point x="115" y="1059" type="qcurve" smooth="yes"/>
      <point x="99" y="1059" type="line"/>
      <point x="90" y="1154" type="line"/>
      <point x="123" y="1157" type="line" smooth="yes"/>
      <point x="184" y="1163"/>
      <point x="239" y="1240"/>
      <point x="239" y="1310" type="qcurve" smooth="yes"/>
      <point x="239" y="1364"/>
      <point x="205" y="1416"/>
      <point x="166" y="1416" type="qcurve" smooth="yes"/>
      <point x="137" y="1416"/>
      <point x="77" y="1394"/>
      <point x="43" y="1365" type="qcurve"/>
      <point x="4" y="1440" type="line"/>
      <point x="58" y="1481"/>
      <point x="196" y="1520"/>
      <point x="267" y="1520" type="qcurve" smooth="yes"/>
      <point x="396" y="1520"/>
      <point x="531" y="1417"/>
      <point x="531" y="1337" type="qcurve" smooth="yes"/>
      <point x="531" y="1252"/>
      <point x="413" y="1140"/>
      <point x="298" y="1118" type="qcurve"/>
      <point x="298" y="1114" type="line"/>
      <point x="417" y="1111"/>
      <point x="553" y="1001"/>
      <point x="553" y="905" type="qcurve" smooth="yes"/>
      <point x="553" y="783"/>
      <point x="395" y="649"/>
      <point x="246" y="649" type="qcurve" smooth="yes"/>
      <point x="157" y="649"/>
      <point x="39" y="679"/>
    </contour>
  </outline>
</glyph>
<glyph name="micro" format="2">
  <advance width="1097"/>
  <unicode hex="00B5"/>
  <outline>
    <contour>
      <point x="-15" y="-317" type="line"/>
      <point x="21" y="-295" type="line"/>
      <point x="60" y="-137"/>
      <point x="121" y="112"/>
      <point x="133" y="181" type="qcurve" smooth="yes"/>
      <point x="245" y="822" type="line"/>
      <point x="103" y="819" type="line"/>
      <point x="105" y="915" type="line"/>
      <point x="521" y="1002" type="line"/>
      <point x="566" y="1002" type="line"/>
      <point x="608" y="923" type="line"/>
      <point x="491" y="312" type="line" smooth="yes"/>
      <point x="477" y="239"/>
      <point x="509" y="167"/>
      <point x="549" y="167" type="qcurve" smooth="yes"/>
      <point x="596" y="167"/>
      <point x="704" y="285"/>
      <point x="736" y="352" type="qcurve"/>
      <point x="850" y="976" type="line"/>
      <point x="841" y="1000" type="line"/>
      <point x="1162" y="1021" type="line"/>
      <point x="1204" y="942" type="line"/>
      <point x="1087" y="362" type="line"/>
      <point x="1061" y="134" type="line"/>
      <point x="1197" y="134" type="line"/>
      <point x="1199" y="47" type="line"/>
      <point x="753" y="-15" type="line"/>
      <point x="711" y="76" type="line"/>
      <point x="719" y="215" type="line"/>
      <point x="677" y="136"/>
      <point x="550" y="23"/>
      <point x="496" y="23" type="qcurve" smooth="yes"/>
      <point x="478" y="23"/>
      <point x="451" y="36"/>
      <point x="437" y="48" type="qcurve"/>
      <point x="380" y="-274" type="line"/>
      <point x="526" y="-282" type="line"/>
      <point x="518" y="-371" type="line"/>
      <point x="8" y="-399" type="line"/>
    </contour>
  </outline>
</glyph>
<glyph name="paragraph" format="2">
  <advance width="786"/>
  <unicode hex="00B6"/>
  <outline>
    <contour>
      <point x="781" y="100" type="line"/>
      <point x="781" y="0" type="line"/>
      <point x="28" y="0" type="line"/>
      <point x="28" y="100" type="line"/>
      <point x="506" y="132" type="line"/>
      <point x="508" y="787" type="line"/>
      <point x="480" y="781"/>
      <point x="342" y="773"/>
      <point x="300" y="773" type="qcurve" smooth="yes"/>
      <point x="159" y="773"/>
      <point x="-10" y="989"/>
      <point x="-10" y="1155" type="qcurve" smooth="yes"/>
      <point x="-10" y="1326"/>
      <point x="151" y="1500"/>
      <point x="289" y="1500" type="qcurve" smooth="yes"/>
      <point x="834" y="1500" type="line"/>
      <point x="834" y="1386" type="line"/>
      <point x="633" y="1352" type="line"/>
      <point x="631" y="754" type="line"/>
      <point x="633" y="137" type="line"/>
    </contour>
    <contour>
      <point x="353" y="46" type="line"/>
      <point x="216" y="46" type="line"/>
      <point x="218" y="907" type="line"/>
      <point x="351" y="907" type="line"/>
    </contour>
  </outline>
</glyph>
<glyph name="periodcentered" format="2">
  <advance width="177"/>
  <unicode hex="00B7"/>
  <outline>
    <contour>
      <point x="-114" y="674" type="qcurve" smooth="yes"/>
      <point x="-114" y="756"/>
      <point x="0" y="877"/>
      <point x="89" y="877" type="qcurve" smooth="yes"/>
      <point x="177" y="877"/>
      <point x="291" y="756"/>
      <point x="291" y="674" type="qcurve" smooth="yes"/>
      <point x="291" y="595"/>
      <point x="177" y="473"/>
      <point x="89" y="473" type="qcurve" smooth="yes"/>
      <point x="0" y="473"/>
      <point x="-114" y="595"/>
    </contour>
  </outline>
</glyph>
<glyph name="onesuperior" format="2">
  <advance width="408"/>
  <unicode hex="00B9"/>
  <outline>
    <contour>
      <point x="-80" y="670" type="line"/>
      <point x="-80" y="754" type="line"/>
      <point x="43" y="784" type="line"/>
      <point x="46" y="1109" type="line"/>
      <point x="43" y="1377" type="line"/>
      <point x="-82" y="1396" type="line"/>
      <point x="-82" y="1480" type="line"/>
      <point x="312" y="1513" type="line"/>
      <point x="344" y="1478" type="line"/>
      <point x="338" y="1109" type="line"/>
      <point x="340" y="784" type="line"/>
      <point x="463" y="754" type="line"/>
      <point x="463" y="670" type="line"/>
    </contour>
  </outline>
</glyph>
<glyph name="ordmasculine" format="2">
  <advance width="816"/>
  <unicode hex="00BA"/>
  <outline>
    <contour>
      <point x="-47" y="1094" type="qcurve" smooth="yes"/>
      <point x="-47" y="1280"/>
      <point x="198" y="1542"/>
      <point x="406" y="1542" type="qcurve" smooth="yes"/>
      <point x="615" y="1542"/>
      <point x="863" y="1297"/>
      <point x="863" y="1099" type="qcurve" smooth="yes"/>
      <point x="863" y="914"/>
      <point x="620" y="646"/>
      <point x="411" y="646" type="qcurve" smooth="yes"/>
      <point x="202" y="646"/>
      <point x="-47" y="894"/>
    </contour>
    <contour>
      <point x="131" y="1111" type="qcurve" smooth="yes"/>
      <point x="131" y="954"/>
      <point x="283" y="732"/>
      <point x="404" y="732" type="qcurve" smooth="yes"/>
      <point x="534" y="732"/>
      <point x="679" y="934"/>
      <point x="679" y="1098" type="qcurve" smooth="yes"/>
      <point x="679" y="1250"/>
      <point x="527" y="1450"/>
      <point x="406" y="1450" type="qcurve" smooth="yes"/>
      <point x="274" y="1450"/>
      <point x="130" y="1269"/>
    </contour>
  </outline>
</glyph>
<glyph name="guillemotright" format="2">
  <advance width="1333"/>
  <unicode hex="00BB"/>
  <outline>
    <contour>
      <point x="1301" y="585" type="line"/>
      <point x="1217" y="532"/>
      <point x="720" y="225"/>
      <point x="648" y="185" type="qcurve" smooth="yes"/>
      <point x="578" y="136"/>
      <point x="505" y="223"/>
      <point x="562" y="284" type="qcurve" smooth="yes"/>
      <point x="636" y="350"/>
      <point x="888" y="547"/>
      <point x="930" y="596" type="qcurve"/>
      <point x="887" y="639"/>
      <point x="633" y="847"/>
      <point x="558" y="926" type="qcurve" smooth="yes"/>
      <point x="504" y="975"/>
      <point x="556" y="1068"/>
      <point x="629" y="1035" type="qcurve" smooth="yes"/>
      <point x="695" y="996"/>
      <point x="1226" y="668"/>
      <point x="1301" y="625" type="qcurve"/>
    </contour>
    <contour>
      <point x="796" y="585" type="line"/>
      <point x="712" y="532"/>
      <point x="215" y="225"/>
      <point x="143" y="185" type="qcurve" smooth="yes"/>
      <point x="73" y="136"/>
      <point x="0" y="223"/>
      <point x="57" y="284" type="qcurve" smooth="yes"/>
      <point x="131" y="350"/>
      <point x="383" y="547"/>
      <point x="425" y="596" type="qcurve"/>
      <point x="382" y="639"/>
      <point x="128" y="847"/>
      <point x="53" y="926" type="qcurve" smooth="yes"/>
      <point x="-1" y="975"/>
      <point x="51" y="1068"/>
      <point x="124" y="1035" type="qcurve" smooth="yes"/>
      <point x="190" y="996"/>
      <point x="721" y="668"/>
      <point x="796" y="625" type="qcurve"/>
    </contour>
  </outline>
</glyph>
<glyph name="questiondown" format="2">
  <advance width="887"/>
  <unicode hex="00BF"/>
  <outline>
    <contour>
      <point x="673" y="1147" type="qcurve" smooth="yes"/>
      <point x="673" y="1065"/>
      <point x="559" y="944"/>
      <point x="471" y="944" type="qcurve" smooth="yes"/>
      <point x="382" y="944"/>
      <point x="268" y="1065"/>
      <point x="268" y="1147" type="qcurve" smooth="yes"/>
      <point x="268" y="1227"/>
      <point x="382" y="1348"/>
      <point x="471" y="1348" type="qcurve" smooth="yes"/>
      <point x="559" y="1348"/>
      <point x="673" y="1227"/>
    </contour>
    <contour>
      <point x="898" y="119" type="qcurve" smooth="yes"/>
      <point x="898" y="-23"/>
      <point x="694" y="-214"/>
      <point x="480" y="-214" type="qcurve" smooth="yes"/>
      <point x="229" y="-214"/>
      <point x="1" y="-12"/>
      <point x="1" y="163" type="qcurve" smooth="yes"/>
      <point x="1" y="315"/>
      <point x="151" y="482"/>
      <point x="220" y="529" type="qcurve" smooth="yes"/>
      <point x="283" y="573"/>
      <point x="434" y="693"/>
      <point x="434" y="760" type="qcurve" smooth="yes"/>
      <point x="434" y="831" type="line"/>
      <point x="534" y="831" type="line"/>
      <point x="545" y="773" type="line" smooth="yes"/>
      <point x="559" y="700"/>
      <point x="526" y="552"/>
      <point x="461" y="487" type="qcurve" smooth="yes"/>
      <point x="407" y="432"/>
      <point x="326" y="315"/>
      <point x="326" y="179" type="qcurve" smooth="yes"/>
      <point x="326" y="40"/>
      <point x="425" y="-103"/>
      <point x="507" y="-103" type="qcurve" smooth="yes"/>
      <point x="582" y="-103"/>
      <point x="667" y="-20"/>
      <point x="667" y="35" type="qcurve" smooth="yes"/>
      <point x="667" y="72"/>
      <point x="531" y="144"/>
      <point x="529" y="207" type="qcurve" smooth="yes"/>
      <point x="525" y="258"/>
      <point x="610" y="341"/>
      <point x="692" y="341" type="qcurve" smooth="yes"/>
      <point x="783" y="341"/>
      <point x="898" y="221"/>
    </contour>
  </outline>
</glyph>
<glyph name="AE" format="2">
  <advance width="2161"/>
  <unicode hex="00C6"/>
  <anchor x="1190" y="1500" name="top"/>
  <outline>
    <contour>
      <point x="70" y="0" type="line"/>
      <point x="70" y="44" type="line"/>
      <point x="156" y="79" type="line"/>
      <point x="435" y="540" type="line"/>
      <point x="948" y="1431" type="line"/>
      <point x="841" y="1450" type="line"/>
      <point x="841" y="1500" type="line"/>
      <point x="1983" y="1500" type="line"/>
      <point x="1983" y="1183" type="line"/>
      <point x="1931" y="1183" type="line"/>
      <point x="1896" y="1451" type="line"/>
      <point x="1371" y="1451" type="line"/>
      <point x="1342" y="1431" type="line"/>
      <point x="1340" y="783" type="line"/>
      <point x="1342" y="69" type="line"/>
      <point x="1372" y="45" type="line"/>
      <point x="1959" y="45" type="line"/>
      <point x="2035" y="347" type="line"/>
      <point x="2087" y="347" type="line"/>
      <point x="2047" y="0" type="line"/>
      <point x="838" y="0" type="line"/>
      <point x="838" y="44" type="line"/>
      <point x="964" y="81" type="line"/>
      <point x="966" y="783" type="line"/>
      <point x="964" y="1309" type="line"/>
      <point x="940" y="1335" type="line"/>
      <point x="467" y="503" type="line"/>
      <point x="230" y="74" type="line"/>
      <point x="374" y="44" type="line"/>
      <point x="374" y="0" type="line"/>
    </contour>
    <contour>
      <point x="437" y="500" type="line"/>
      <point x="465" y="553" type="line"/>
      <point x="725" y="544" type="line"/>
      <point x="725" y="500" type="line"/>
    </contour>
    <contour>
      <point x="725" y="544" type="line"/>
      <point x="1069" y="554" type="line"/>
      <point x="1069" y="500" type="line"/>
      <point x="725" y="500" type="line"/>
    </contour>
    <contour>
      <point x="1254" y="763" type="line"/>
      <point x="1254" y="803" type="line"/>
      <point x="1750" y="813" type="line"/>
      <point x="1785" y="992" type="line"/>
      <point x="1837" y="992" type="line"/>
      <point x="1837" y="580" type="line"/>
      <point x="1785" y="580" type="line"/>
      <point x="1750" y="753" type="line"/>
    </contour>
  </outline>
</glyph>
<glyph name="multiply" format="2">
  <advance width="488"/>
  <unicode hex="00D7"/>
  <outline>
    <contour>
      <point x="-11" y="276" type="line"/>
      <point x="-112" y="377" type="line"/>
      <point x="499" y="988" type="line"/>
      <point x="600" y="887" type="line"/>
    </contour>
    <contour>
      <point x="494" y="271" type="line"/>
      <point x="-117" y="882" type="line"/>
      <point x="-6" y="993" type="line"/>
      <point x="605" y="382" type="line"/>
    </contour>
  </outline>
</glyph>
<glyph name="Thorn" format="2">
  <advance width="1053"/>
  <unicode hex="00DE"/>
  <outline>
    <contour>
      <point x="-56" y="0" type="line"/>
      <point x="-56" y="100" type="line"/>
      <point x="152" y="137" type="line"/>
      <point x="154" y="754" type="line"/>
      <point x="152" y="1352" type="line"/>
      <point x="-56" y="1386" type="line"/>
      <point x="-56" y="1500" type="line"/>
      <point x="560" y="1500" type="line"/>
      <point x="560" y="1400" type="line"/>
      <point x="333" y="1360" type="line"/>
      <point x="331" y="1226" type="line"/>
      <point x="591" y="1226" type="line" smooth="yes"/>
      <point x="830" y="1226"/>
      <point x="1080" y="1033"/>
      <point x="1080" y="845" type="qcurve" smooth="yes"/>
      <point x="1080" y="662"/>
      <point x="815" y="424"/>
      <point x="575" y="424" type="qcurve" smooth="yes"/>
      <point x="466" y="424"/>
      <point x="297" y="440"/>
      <point x="250" y="448" type="qcurve"/>
      <point x="259" y="494" type="line"/>
      <point x="318" y="481"/>
      <point x="433" y="472"/>
      <point x="535" y="472" type="qcurve" smooth="yes"/>
      <point x="706" y="472"/>
      <point x="885" y="673"/>
      <point x="885" y="851" type="qcurve" smooth="yes"/>
      <point x="885" y="1014"/>
      <point x="715" y="1177"/>
      <point x="555" y="1177" type="qcurve" smooth="yes"/>
      <point x="332" y="1177" type="line"/>
      <point x="330" y="764" type="line"/>
      <point x="332" y="132" type="line"/>
      <point x="560" y="100" type="line"/>
      <point x="560" y="0" type="line"/>
    </contour>
  </outline>
</glyph>
<glyph name="germandbls" format="2">
  <advance width="1554"/>
  <unicode hex="00DF"/>
  <outline>
    <contour>
      <point x="1225" y="1247" type="qcurve" smooth="yes"/>
      <point x="1225" y="1155"/>
      <point x="1121" y="1052"/>
      <point x="1003" y="1011" type="qcurve" smooth="yes"/>
      <point x="926" y="981"/>
      <point x="862" y="916"/>
      <point x="862" y="866" type="qcurve" smooth="yes"/>
      <point x="862" y="800"/>
      <point x="993" y="720"/>
      <point x="1147" y="680" type="qcurve" smooth="yes"/>
      <point x="1354" y="627"/>
      <point x="1578" y="472"/>
      <point x="1578" y="320" type="qcurve" smooth="yes"/>
      <point x="1578" y="166"/>
      <point x="1313" y="-23"/>
      <point x="1128" y="-23" type="qcurve" smooth="yes"/>
      <point x="1000" y="-23"/>
      <point x="831" y="31"/>
      <point x="757" y="73" type="qcurve"/>
      <point x="717" y="0" type="line"/>
      <point x="664" y="0" type="line"/>
      <point x="664" y="322" type="line"/>
      <point x="726" y="322" type="line"/>
      <point x="737" y="240" type="line" smooth="yes"/>
      <point x="753" y="131"/>
      <point x="934" y="23"/>
      <point x="1040" y="23" type="qcurve" smooth="yes"/>
      <point x="1130" y="23"/>
      <point x="1269" y="122"/>
      <point x="1269" y="223" type="qcurve" smooth="yes"/>
      <point x="1269" y="325"/>
      <point x="1129" y="422"/>
      <point x="978" y="469" type="qcurve" smooth="yes"/>
      <point x="805" y="523"/>
      <point x="678" y="650"/>
      <point x="678" y="758" type="qcurve" smooth="yes"/>
      <point x="678" y="864"/>
      <point x="797" y="977"/>
      <point x="893" y="1019" type="qcurve" smooth="yes"/>
      <point x="974" y="1054"/>
      <point x="1080" y="1155"/>
      <point x="1080" y="1244" type="qcurve" smooth="yes"/>
      <point x="1080" y="1344"/>
      <point x="942" y="1471"/>
      <point x="810" y="1471" type="qcurve" smooth="yes"/>
      <point x="660" y="1471"/>
      <point x="490" y="1287"/>
      <point x="492" y="1112" type="qcurve"/>
      <point x="496" y="527" type="line"/>
      <point x="509" y="45" type="line"/>
      <point x="480" y="0" type="line"/>
      <point x="20" y="0" type="line"/>
      <point x="20" y="46" type="line"/>
      <point x="138" y="81" type="line"/>
      <point x="140" y="527" type="line"/>
      <point x="143" y="1104" type="line" smooth="yes"/>
      <point x="144" y="1287"/>
      <point x="520" y="1518"/>
      <point x="783" y="1518" type="qcurve" smooth="yes"/>
      <point x="998" y="1518"/>
      <point x="1225" y="1366"/>
    </contour>
  </outline>
</glyph>
<glyph name="ae" format="2">
  <advance width="1550"/>
  <unicode hex="00E6"/>
  <anchor x="762" y="953" name="top"/>
  <outline>
    <contour>
      <point x="-55" y="227" type="qcurve" smooth="yes"/>
      <point x="-55" y="366"/>
      <point x="263" y="541"/>
      <point x="674" y="583" type="qcurve"/>
      <point x="666" y="550" type="line"/>
      <point x="478" y="510"/>
      <point x="303" y="362"/>
      <point x="305" y="235" type="qcurve" smooth="yes"/>
      <point x="306" y="125"/>
      <point x="363" y="39"/>
      <point x="407" y="39" type="qcurve" smooth="yes"/>
      <point x="443" y="39"/>
      <point x="580" y="162"/>
      <point x="619" y="211" type="qcurve"/>
      <point x="595" y="247"/>
      <point x="563" y="379"/>
      <point x="563" y="462" type="qcurve" smooth="yes"/>
      <point x="563" y="579" type="line" smooth="yes"/>
      <point x="563" y="792"/>
      <point x="493" y="924"/>
      <point x="437" y="924" type="qcurve" smooth="yes"/>
      <point x="391" y="924"/>
      <point x="307" y="878"/>
      <point x="268" y="828" type="qcurve"/>
      <point x="307" y="798"/>
      <point x="375" y="723"/>
      <point x="383" y="685" type="qcurve" smooth="yes"/>
      <point x="394" y="636"/>
      <point x="292" y="556"/>
      <point x="207" y="556" type="qcurve" smooth="yes"/>
      <point x="112" y="556"/>
      <point x="-3" y="631"/>
      <point x="-3" y="712" type="qcurve" smooth="yes"/>
      <point x="-3" y="832"/>
      <point x="252" y="971"/>
      <point x="415" y="971" type="qcurve" smooth="yes"/>
      <point x="565" y="971"/>
      <point x="724" y="878"/>
      <point x="755" y="811" type="qcurve"/>
      <point x="763" y="811" type="line"/>
      <point x="804" y="881"/>
      <point x="1002" y="970"/>
      <point x="1139" y="970" type="qcurve" smooth="yes"/>
      <point x="1346" y="970"/>
      <point x="1575" y="753"/>
      <point x="1596" y="558" type="qcurve"/>
      <point x="1596" y="517" type="line"/>
      <point x="849" y="517" type="line"/>
      <point x="849" y="558" type="line"/>
      <point x="1249" y="558" type="line"/>
      <point x="1240" y="736"/>
      <point x="1154" y="922"/>
      <point x="1091" y="922" type="qcurve" smooth="yes"/>
      <point x="1011" y="922"/>
      <point x="923" y="661"/>
      <point x="924" y="441" type="qcurve" smooth="yes"/>
      <point x="925" y="254"/>
      <point x="1046" y="34"/>
      <point x="1211" y="34" type="qcurve" smooth="yes"/>
      <point x="1292" y="34"/>
      <point x="1461" y="107"/>
      <point x="1528" y="182" type="qcurve"/>
      <point x="1564" y="150" type="line"/>
      <point x="1512" y="77"/>
      <point x="1294" y="-22"/>
      <point x="1142" y="-22" type="qcurve" smooth="yes"/>
      <point x="965" y="-22"/>
      <point x="752" y="95"/>
      <point x="702" y="174" type="qcurve"/>
      <point x="644" y="112"/>
      <point x="419" y="-16"/>
      <point x="265" y="-16" type="qcurve" smooth="yes"/>
      <point x="81" y="-16"/>
      <point x="-55" y="126"/>
    </contour>
  </outline>
</glyph>
<glyph name="eth" format="2">
  <advance width="1351"/>
  <unicode hex="00F0"/>
  <outline>
    <contour>
      <point x="-39" y="490" type="qcurve" smooth="yes"/>
      <point x="-39" y="707"/>
      <point x="352" y="1004"/>
      <point x="668" y="1004" type="qcurve" smooth="yes"/>
      <point x="986" y="1004"/>
      <point x="1281" y="721"/>
      <point x="1297" y="504" type="qcurve"/>
      <point x="1014" y="504" type="line"/>
      <point x="1034" y="690"/>
      <point x="847" y="956"/>
      <point x="670" y="956" type="qcurve" smooth="yes"/>
      <point x="506" y="956"/>
      <point x="331" y="723"/>
      <point x="332" y="510" type="qcurve" smooth="yes"/>
      <point x="333" y="265"/>
      <point x="517" y="23"/>
      <point x="668" y="24" type="qcurve" smooth="yes"/>
      <point x="841" y="25"/>
      <point x="1019" y="299"/>
      <point x="1019" y="621" type="qcurve" smooth="yes"/>
      <point x="1019" y="981"/>
      <point x="664" y="1387"/>
      <point x="366" y="1486" type="qcurve"/>
      <point x="402" y="1584" type="line"/>
      <point x="888" y="1474"/>
      <point x="1387" y="952"/>
      <point x="1387" y="624" type="qcurve" smooth="yes"/>
      <point x="1387" y="325"/>
      <point x="1016" y="-22"/>
      <point x="675" y="-22" type="qcurve" smooth="yes"/>
      <point x="357" y="-22"/>
      <point x="-39" y="257"/>
    </contour>
    <contour>
      <point x="510" y="1214" type="line"/>
      <point x="1021" y="1565" type="line"/>
      <point x="1088" y="1476" type="line"/>
      <point x="577" y="1125" type="line"/>
    </contour>
  </outline>
</glyph>
<glyph name="divide" format="2">
  <advance width="555"/>
  <unicode hex="00F7"/>
  <outline>
    <contour>
      <point x="-30" y="512" type="line"/>
      <point x="-30" y="746" type="line"/>
      <point x="585" y="746" type="line"/>
      <point x="585" y="512" type="line"/>
    </contour>
    <contour>
      <point x="107" y="268" type="qcurve" smooth="yes"/>
      <point x="107" y="334"/>
      <point x="200" y="433"/>
      <point x="272" y="433" type="qcurve" smooth="yes"/>
      <point x="344" y="433"/>
      <point x="437" y="334"/>
      <point x="437" y="268" type="qcurve" smooth="yes"/>
      <point x="437" y="203"/>
      <point x="344" y="104"/>
      <point x="272" y="104" type="qcurve" smooth="yes"/>
      <point x="200" y="104"/>
      <point x="107" y="203"/>
    </contour>
    <contour>
      <point x="107" y="993" type="qcurve" smooth="yes"/>
      <point x="107" y="1059"/>
      <point x="200" y="1157"/>
      <point x="272" y="1157" type="qcurve" smooth="yes"/>
      <point x="344" y="1157"/>
      <point x="437" y="1059"/>
      <point x="437" y="993" type="qcurve" smooth="yes"/>
      <point x="437" y="928"/>
      <point x="344" y="829"/>
      <point x="272" y="829" type="qcurve" smooth="yes"/>
      <point x="200" y="829"/>
      <point x="107" y="928"/>
    </contour>
  </outline>
</glyph>
<glyph name="thorn" format="2">
  <advance width="1252"/>
  <unicode hex="00FE"/>
  <outline>
    <contour>
      <point x="62" y="-460" type="line"/>
      <point x="62" y="-414" type="line"/>
      <point x="162" y="-379" type="line"/>
      <point x="164" y="427" type="line"/>
      <point x="163" y="1394" type="line"/>
      <point x="46" y="1424" type="line"/>
      <point x="46" y="1484" type="line"/>
      <point x="460" y="1512" type="line"/>
      <point x="492" y="1512" type="line"/>
      <point x="520" y="1480" type="line"/>
      <point x="519" y="819" type="line"/>
      <point x="563" y="886"/>
      <point x="711" y="970"/>
      <point x="815" y="970" type="qcurve" smooth="yes"/>
      <point x="975" y="970"/>
      <point x="1184" y="717"/>
      <point x="1184" y="503" type="qcurve" smooth="yes"/>
      <point x="1184" y="272"/>
      <point x="967" y="-12"/>
      <point x="786" y="-12" type="qcurve" smooth="yes"/>
      <point x="695" y="-12"/>
      <point x="557" y="45"/>
      <point x="517" y="84" type="qcurve"/>
      <point x="519" y="-379" type="line"/>
      <point x="626" y="-414" type="line"/>
      <point x="626" y="-460" type="line"/>
    </contour>
    <contour>
      <point x="516" y="186" type="line"/>
      <point x="534" y="125"/>
      <point x="610" y="35"/>
      <point x="661" y="35" type="qcurve" smooth="yes"/>
      <point x="730" y="35"/>
      <point x="810" y="277"/>
      <point x="810" y="487" type="qcurve" smooth="yes"/>
      <point x="810" y="687"/>
      <point x="731" y="910"/>
      <point x="663" y="910" type="qcurve" smooth="yes"/>
      <point x="613" y="910"/>
      <point x="539" y="828"/>
      <point x="516" y="765" type="qcurve"/>
      <point x="515" y="423" type="line"/>
    </contour>
  </outline>
</glyph>
<glyph name="idotless" format="2">
  <advance width="826"/>
  <unicode hex="0131"/>
  <anchor x="418" y="0" name="bottom"/>
  <anchor x="418" y="942" name="top"/>
  <anchor x="651" y="0" name="ogonek"/>
  <outline>
    <contour>
      <point x="127" y="0" type="line"/>
      <point x="127" y="46" type="line"/>
      <point x="245" y="81" type="line"/>
      <point x="247" y="527" type="line"/>
      <point x="240" y="835" type="line"/>
      <point x="122" y="865" type="line"/>
      <point x="122" y="925" type="line"/>
      <point x="537" y="954" type="line"/>
      <point x="584" y="954" type="line"/>
      <point x="607" y="915" type="line"/>
      <point x="600" y="527" type="line"/>
      <point x="602" y="81" type="line"/>
      <point x="720" y="46" type="line"/>
      <point x="720" y="0" type="line"/>
    </contour>
  </outline>
</glyph>
<glyph name="kgreenlandic" format="2">
  <advance width="1152"/>
  <unicode hex="0138"/>
  <outline>
    <contour>
      <point x="75" y="0" type="line"/>
      <point x="75" y="46" type="line"/>
      <point x="214" y="81" type="line"/>
      <point x="216" y="527" type="line"/>
      <point x="214" y="919" type="line"/>
      <point x="75" y="954" type="line"/>
      <point x="75" y="1000" type="line"/>
      <point x="522" y="1000" type="line"/>
      <point x="522" y="954" type="line"/>
      <point x="384" y="919" type="line"/>
      <point x="382" y="507" type="line"/>
      <point x="384" y="81" type="line"/>
      <point x="522" y="46" type="line"/>
      <point x="522" y="0" type="line"/>
    </contour>
    <contour>
      <point x="722" y="718" type="line"/>
      <point x="722" y="779" type="line"/>
      <point x="873" y="914" type="line"/>
      <point x="710" y="954" type="line"/>
      <point x="710" y="1000" type="line"/>
      <point x="1030" y="1000" type="line"/>
      <point x="1030" y="954" type="line"/>
      <point x="929" y="909" type="line"/>
    </contour>
    <contour>
      <point x="443" y="589" type="line"/>
      <point x="636" y="596" type="line"/>
      <point x="1036" y="81" type="line"/>
      <point x="1128" y="46" type="line"/>
      <point x="1128" y="0" type="line"/>
      <point x="759" y="0" type="line"/>
      <point x="752" y="45" type="line"/>
      <point x="837" y="77" type="line"/>
    </contour>
  </outline>
</glyph>
<glyph name="OE" format="2">
  <advance width="2058"/>
  <unicode hex="0152"/>
  <outline>
    <contour>
      <point x="80" y="737" type="qcurve" smooth="yes"/>
      <point x="80" y="1068"/>
      <point x="475" y="1518"/>
      <point x="812" y="1518" type="qcurve" smooth="yes"/>
      <point x="873" y="1518"/>
      <point x="1150" y="1500"/>
      <point x="1210" y="1500" type="qcurve" smooth="yes"/>
      <point x="1906" y="1500" type="line"/>
      <point x="1906" y="1177" type="line"/>
      <point x="1796" y="1177" type="line"/>
      <point x="1761" y="1451" type="line"/>
      <point x="1298" y="1451" type="line"/>
      <point x="1269" y="1431" type="line"/>
      <point x="1267" y="783" type="line"/>
      <point x="1269" y="69" type="line"/>
      <point x="1299" y="45" type="line"/>
      <point x="1824" y="45" type="line"/>
      <point x="1900" y="353" type="line"/>
      <point x="2010" y="353" type="line"/>
      <point x="1970" y="0" type="line"/>
      <point x="1270" y="0" type="line" smooth="yes"/>
      <point x="1207" y="0"/>
      <point x="901" y="-26"/>
      <point x="816" y="-26" type="qcurve" smooth="yes"/>
      <point x="487" y="-26"/>
      <point x="80" y="396"/>
    </contour>
    <contour>
      <point x="271" y="777" type="qcurve" smooth="yes"/>
      <point x="271" y="450"/>
      <point x="564" y="25"/>
      <point x="814" y="25" type="qcurve" smooth="yes"/>
      <point x="892" y="25"/>
      <point x="1032" y="42"/>
      <point x="1090" y="59" type="qcurve"/>
      <point x="1092" y="790" type="line"/>
      <point x="1090" y="1433" type="line"/>
      <point x="1052" y="1440"/>
      <point x="889" y="1464"/>
      <point x="814" y="1464" type="qcurve" smooth="yes"/>
      <point x="541" y="1464"/>
      <point x="271" y="1091"/>
    </contour>
    <contour>
      <point x="1181" y="764" type="line"/>
      <point x="1181" y="804" type="line"/>
      <point x="1615" y="814" type="line"/>
      <point x="1650" y="979" type="line"/>
      <point x="1760" y="979" type="line"/>
      <point x="1760" y="593" type="line"/>
      <point x="1650" y="593" type="line"/>
      <point x="1615" y="754" type="line"/>
    </contour>
  </outline>
</glyph>
<glyph name="oe" format="2">
  <advance width="1948"/>
  <unicode hex="0153"/>
  <outline>
    <contour>
      <point x="64" y="476" type="qcurve" smooth="yes"/>
      <point x="64" y="684"/>
      <point x="360" y="976"/>
      <point x="599" y="976" type="qcurve" smooth="yes"/>
      <point x="772" y="976"/>
      <point x="998" y="838"/>
      <point x="1040" y="766" type="qcurve"/>
      <point x="1052" y="766" type="line"/>
      <point x="1085" y="845"/>
      <point x="1280" y="976"/>
      <point x="1424" y="976" type="qcurve" smooth="yes"/>
      <point x="1626" y="976"/>
      <point x="1854" y="755"/>
      <point x="1875" y="561" type="qcurve"/>
      <point x="1875" y="525" type="line"/>
      <point x="1131" y="525" type="line"/>
      <point x="1131" y="566" type="line"/>
      <point x="1529" y="566" type="line"/>
      <point x="1520" y="761"/>
      <point x="1434" y="929"/>
      <point x="1370" y="929" type="qcurve" smooth="yes"/>
      <point x="1290" y="929"/>
      <point x="1203" y="738"/>
      <point x="1203" y="489" type="qcurve" smooth="yes"/>
      <point x="1203" y="234"/>
      <point x="1330" y="32"/>
      <point x="1495" y="32" type="qcurve" smooth="yes"/>
      <point x="1581" y="32"/>
      <point x="1746" y="117"/>
      <point x="1810" y="184" type="qcurve"/>
      <point x="1846" y="157" type="line"/>
      <point x="1792" y="81"/>
      <point x="1572" y="-23"/>
      <point x="1459" y="-23" type="qcurve" smooth="yes"/>
      <point x="1301" y="-23"/>
      <point x="1065" y="108"/>
      <point x="1022" y="194" type="qcurve"/>
      <point x="1018" y="194" type="line"/>
      <point x="986" y="113"/>
      <point x="758" y="-24"/>
      <point x="602" y="-24" type="qcurve" smooth="yes"/>
      <point x="363" y="-24"/>
      <point x="64" y="253"/>
    </contour>
    <contour>
      <point x="436" y="500" type="qcurve" smooth="yes"/>
      <point x="436" y="301"/>
      <point x="543" y="22"/>
      <point x="630" y="22" type="qcurve" smooth="yes"/>
      <point x="723" y="22"/>
      <point x="826" y="276"/>
      <point x="826" y="485" type="qcurve" smooth="yes"/>
      <point x="826" y="677"/>
      <point x="720" y="928"/>
      <point x="632" y="928" type="qcurve" smooth="yes"/>
      <point x="537" y="928"/>
      <point x="435" y="700"/>
    </contour>
  </outline>
</glyph>
<glyph name="Schwa" format="2">
  <advance width="1402"/>
  <unicode hex="018F"/>
  <outline>
    <contour>
      <point x="106" y="1199" type="line"/>
      <point x="203" y="1363"/>
      <point x="480" y="1519"/>
      <point x="677" y="1519" type="qcurve" smooth="yes"/>
      <point x="986" y="1519"/>
      <point x="1322" y="1103"/>
      <point x="1322" y="789" type="qcurve" smooth="yes"/>
      <point x="1322" y="445"/>
      <point x="982" y="-30"/>
      <point x="660" y="-30" type="qcurve" smooth="yes"/>
      <point x="357" y="-30"/>
      <point x="93" y="295"/>
      <point x="93" y="578" type="qcurve" smooth="yes"/>
      <point x="93" y="675" type="line"/>
      <point x="792" y="675" type="line"/>
      <point x="876" y="619" type="line"/>
      <point x="684" y="621" type="line"/>
      <point x="482" y="618" type="line"/>
      <point x="482" y="454" type="line" smooth="yes"/>
      <point x="482" y="268"/>
      <point x="587" y="23"/>
      <point x="689" y="23" type="qcurve" smooth="yes"/>
      <point x="796" y="23"/>
      <point x="932" y="432"/>
      <point x="931" y="755" type="qcurve" smooth="yes"/>
      <point x="929" y="1090"/>
      <point x="721" y="1460"/>
      <point x="576" y="1460" type="qcurve" smooth="yes"/>
      <point x="442" y="1460"/>
      <point x="259" y="1313"/>
      <point x="175" y="1167" type="qcurve"/>
    </contour>
  </outline>
</glyph>
<glyph name="florin" format="2">
  <advance width="690"/>
  <unicode hex="0192"/>
  <outline>
    <contour>
      <point x="536" y="-75" type="line" smooth="yes"/>
      <point x="538" y="-175"/>
      <point x="361" y="-311"/>
      <point x="225" y="-311" type="qcurve" smooth="yes"/>
      <point x="163" y="-311"/>
      <point x="80" y="-303"/>
      <point x="40" y="-295" type="qcurve" smooth="yes"/>
      <point x="13" y="-290" type="line"/>
      <point x="28" y="-185" type="line"/>
      <point x="44" y="-190" type="line" smooth="yes"/>
      <point x="50" y="-192"/>
      <point x="74" y="-197"/>
      <point x="85" y="-197" type="qcurve" smooth="yes"/>
      <point x="128" y="-197"/>
      <point x="174" y="-127"/>
      <point x="172" y="-49" type="qcurve" smooth="yes"/>
      <point x="153" y="860" type="line"/>
      <point x="28" y="872" type="line"/>
      <point x="19" y="966" type="line"/>
      <point x="147" y="984" type="line"/>
      <point x="139" y="1304" type="line" smooth="yes"/>
      <point x="137" y="1404"/>
      <point x="318" y="1520"/>
      <point x="453" y="1520" type="qcurve" smooth="yes"/>
      <point x="507" y="1520"/>
      <point x="609" y="1511"/>
      <point x="633" y="1504" type="qcurve" smooth="yes"/>
      <point x="661" y="1498" type="line"/>
      <point x="644" y="1394" type="line"/>
      <point x="630" y="1399" type="line" smooth="yes"/>
      <point x="622" y="1402"/>
      <point x="604" y="1406"/>
      <point x="590" y="1406" type="qcurve" smooth="yes"/>
      <point x="552" y="1406"/>
      <point x="502" y="1342"/>
      <point x="505" y="1269" type="qcurve" smooth="yes"/>
      <point x="516" y="985" type="line"/>
      <point x="650" y="985" type="line"/>
      <point x="650" y="883" type="line"/>
      <point x="517" y="872" type="line"/>
    </contour>
  </outline>
</glyph>
<glyph name="schwa" format="2">
  <advance width="1181"/>
  <unicode hex="0259"/>
  <outline>
    <contour>
      <point x="1117" y="475" type="qcurve" smooth="yes"/>
      <point x="1117" y="270"/>
      <point x="832" y="-22"/>
      <point x="576" y="-22" type="qcurve" smooth="yes"/>
      <point x="353" y="-22"/>
      <point x="91" y="198"/>
      <point x="73" y="392" type="qcurve"/>
      <point x="73" y="427" type="line"/>
      <point x="849" y="427" type="line"/>
      <point x="849" y="386" type="line"/>
      <point x="420" y="386" type="line"/>
      <point x="434" y="211"/>
      <point x="515" y="26"/>
      <point x="579" y="26" type="qcurve" smooth="yes"/>
      <point x="658" y="26"/>
      <point x="747" y="250"/>
      <point x="746" y="455" type="qcurve" smooth="yes"/>
      <point x="746" y="680"/>
      <point x="622" y="919"/>
      <point x="468" y="919" type="qcurve" smooth="yes"/>
      <point x="378" y="919"/>
      <point x="205" y="840"/>
      <point x="140" y="766" type="qcurve"/>
      <point x="105" y="795" type="line"/>
      <point x="160" y="871"/>
      <point x="381" y="975"/>
      <point x="508" y="975" type="qcurve" smooth="yes"/>
      <point x="852" y="975"/>
      <point x="1117" y="710"/>
    </contour>
  </outline>
</glyph>
<glyph name="gravecomb" format="2">
  <advance width="1946"/>
  <unicode hex="0300"/>
  <anchor x="973" y="1000" name="_top"/>
  <anchor x="973" y="1497" name="top"/>
  <outline>
    <contour>
      <point x="692" y="1422" type="qcurve" smooth="yes"/>
      <point x="692" y="1469"/>
      <point x="769" y="1536"/>
      <point x="824" y="1536" type="qcurve" smooth="yes"/>
      <point x="878" y="1536"/>
      <point x="989" y="1434"/>
      <point x="1031" y="1380" type="qcurve" smooth="yes"/>
      <point x="1141" y="1204" type="line"/>
      <point x="1109" y="1171" type="line"/>
      <point x="826" y="1274" type="line" smooth="yes"/>
      <point x="764" y="1294"/>
      <point x="692" y="1359"/>
    </contour>
  </outline>
</glyph>
<glyph name="acutecomb" format="2">
  <advance width="1946"/>
  <unicode hex="0301"/>
  <anchor x="973" y="1000" name="_top"/>
  <anchor x="973" y="1524" name="top"/>
  <outline>
    <contour>
      <point x="1253" y="1426" type="qcurve" smooth="yes"/>
      <point x="1253" y="1363"/>
      <point x="1179" y="1302"/>
      <point x="1118" y="1277" type="qcurve" smooth="yes"/>
      <point x="855" y="1150" type="line"/>
      <point x="781" y="1226" type="line"/>
      <point x="913" y="1384" type="line" smooth="yes"/>
      <point x="955" y="1438"/>
      <point x="1067" y="1539"/>
      <point x="1121" y="1539" type="qcurve" smooth="yes"/>
      <point x="1175" y="1539"/>
      <point x="1253" y="1472"/>
    </contour>
  </outline>
</glyph>
<glyph name="circumflexcomb" format="2">
  <advance width="1946"/>
  <unicode hex="0302"/>
  <anchor x="973" y="1000" name="_top"/>
  <anchor x="973" y="1539" name="top"/>
  <outline>
    <contour>
      <point x="973" y="1539" type="qcurve" smooth="yes"/>
      <point x="1007" y="1539"/>
      <point x="1055" y="1507"/>
      <point x="1083" y="1471" type="qcurve" smooth="yes"/>
      <point x="1290" y="1214" type="line"/>
      <point x="1225" y="1150" type="line"/>
      <point x="973" y="1325" type="line"/>
      <point x="721" y="1150" type="line"/>
      <point x="656" y="1214" type="line"/>
      <point x="863" y="1471" type="line" smooth="yes"/>
      <point x="892" y="1508"/>
      <point x="939" y="1539"/>
    </contour>
  </outline>
</glyph>
<glyph name="tildecomb" format="2">
  <advance width="1946"/>
  <unicode hex="0303"/>
  <anchor x="982" y="1000" name="_top"/>
  <anchor x="982" y="1402" name="top"/>
  <outline>
    <contour>
      <point x="593" y="1234" type="line"/>
      <point x="624" y="1298"/>
      <point x="757" y="1452"/>
      <point x="823" y="1452" type="qcurve" smooth="yes"/>
      <point x="865" y="1452"/>
      <point x="961" y="1419"/>
      <point x="998" y="1398" type="qcurve" smooth="yes"/>
      <point x="1031" y="1381"/>
      <point x="1144" y="1329"/>
      <point x="1187" y="1329" type="qcurve" smooth="yes"/>
      <point x="1224" y="1329"/>
      <point x="1289" y="1382"/>
      <point x="1310" y="1419" type="qcurve"/>
      <point x="1374" y="1340" type="line"/>
      <point x="1340" y="1264"/>
      <point x="1210" y="1132"/>
      <point x="1159" y="1132" type="qcurve" smooth="yes"/>
      <point x="1110" y="1132"/>
      <point x="1004" y="1177"/>
      <point x="965" y="1197" type="qcurve" smooth="yes"/>
      <point x="932" y="1216"/>
      <point x="826" y="1255"/>
      <point x="796" y="1255" type="qcurve" smooth="yes"/>
      <point x="751" y="1255"/>
      <point x="680" y="1183"/>
      <point x="663" y="1155" type="qcurve"/>
    </contour>
  </outline>
</glyph>
<glyph name="macroncomb" format="2">
  <advance width="1963"/>
  <unicode hex="0304"/>
  <anchor x="980" y="1000" name="_top"/>
  <anchor x="980" y="1281" name="top"/>
  <outline>
    <contour>
      <point x="683" y="1147" type="line"/>
      <point x="683" y="1281" type="line"/>
      <point x="1275" y="1281" type="line"/>
      <point x="1275" y="1147" type="line"/>
    </contour>
  </outline>
</glyph>
<glyph name="brevecomb" format="2">
  <advance width="1963"/>
  <unicode hex="0306"/>
  <anchor x="981" y="1000" name="_top"/>
  <anchor x="981" y="1464" name="top"/>
  <outline>
    <contour>
      <point x="1257" y="1463" type="qcurve"/>
      <point x="1335" y="1410" type="line"/>
      <point x="1322" y="1317"/>
      <point x="1111" y="1143"/>
      <point x="982" y="1143" type="qcurve" smooth="yes"/>
      <point x="853" y="1143"/>
      <point x="649" y="1297"/>
      <point x="627" y="1407" type="qcurve"/>
      <point x="709" y="1464" type="line"/>
      <point x="741" y="1407"/>
      <point x="886" y="1301"/>
      <point x="983" y="1299" type="qcurve" smooth="yes"/>
      <point x="1083" y="1301"/>
      <point x="1230" y="1409"/>
    </contour>
  </outline>
</glyph>
<glyph name="dotaccentcomb" format="2">
  <advance width="1946"/>
  <unicode hex="0307"/>
  <anchor x="973" y="1000" name="_top"/>
  <anchor x="973" y="1430" name="top"/>
  <outline>
    <contour>
      <point x="780" y="1254" type="qcurve" smooth="yes"/>
      <point x="780" y="1344"/>
      <point x="880" y="1442"/>
      <point x="973" y="1442" type="qcurve" smooth="yes"/>
      <point x="1060" y="1442"/>
      <point x="1166" y="1339"/>
      <point x="1166" y="1254" type="qcurve" smooth="yes"/>
      <point x="1166" y="1164"/>
      <point x="1067" y="1067"/>
      <point x="973" y="1067" type="qcurve" smooth="yes"/>
      <point x="885" y="1067"/>
      <point x="780" y="1170"/>
    </contour>
  </outline>
</glyph>
<glyph name="dieresiscomb" format="2">
  <advance width="1963"/>
  <unicode hex="0308"/>
  <anchor x="981" y="1000" name="_top"/>
  <anchor x="981" y="1327" name="top"/>
  <anchor x="981" y="1000" name="_GRKtop"/>
  <outline>
    <contour>
      <point x="1095" y="1213" type="qcurve" smooth="yes"/>
      <point x="1095" y="1268"/>
      <point x="1155" y="1327"/>
      <point x="1211" y="1327" type="qcurve" smooth="yes"/>
      <point x="1264" y="1327"/>
      <point x="1327" y="1264"/>
      <point x="1327" y="1213" type="qcurve" smooth="yes"/>
      <point x="1327" y="1159"/>
      <point x="1268" y="1100"/>
      <point x="1211" y="1100" type="qcurve" smooth="yes"/>
      <point x="1158" y="1100"/>
      <point x="1095" y="1162"/>
    </contour>
    <contour>
      <point x="635" y="1213" type="qcurve" smooth="yes"/>
      <point x="635" y="1268"/>
      <point x="695" y="1327"/>
      <point x="751" y="1327" type="qcurve" smooth="yes"/>
      <point x="804" y="1327"/>
      <point x="867" y="1264"/>
      <point x="867" y="1213" type="qcurve" smooth="yes"/>
      <point x="867" y="1159"/>
      <point x="808" y="1100"/>
      <point x="751" y="1100" type="qcurve" smooth="yes"/>
      <point x="698" y="1100"/>
      <point x="635" y="1162"/>
    </contour>
  </outline>
</glyph>
<glyph name="hookabovecomb" format="2">
  <advance width="1963"/>
  <unicode hex="0309"/>
  <anchor x="981" y="1000" name="_top"/>
  <anchor x="981" y="1597" name="top"/>
  <outline>
    <contour>
      <point x="865" y="1150" type="line"/>
      <point x="865" y="1233" type="line"/>
      <point x="944" y="1321" type="line"/>
      <point x="961" y="1315"/>
      <point x="993" y="1310"/>
      <point x="1007" y="1310" type="qcurve" smooth="yes"/>
      <point x="1048" y="1310"/>
      <point x="1099" y="1354"/>
      <point x="1099" y="1396" type="qcurve" smooth="yes"/>
      <point x="1099" y="1436"/>
      <point x="1044" y="1478"/>
      <point x="998" y="1478" type="qcurve" smooth="yes"/>
      <point x="951" y="1478"/>
      <point x="854" y="1454"/>
      <point x="815" y="1435" type="qcurve"/>
      <point x="771" y="1539" type="line"/>
      <point x="831" y="1565"/>
      <point x="944" y="1597"/>
      <point x="995" y="1597" type="qcurve" smooth="yes"/>
      <point x="1103" y="1597"/>
      <point x="1241" y="1492"/>
      <point x="1241" y="1389" type="qcurve" smooth="yes"/>
      <point x="1241" y="1304"/>
      <point x="1147" y="1197"/>
      <point x="1081" y="1197" type="qcurve" smooth="yes"/>
      <point x="1056" y="1197"/>
      <point x="1008" y="1206"/>
      <point x="992" y="1210" type="qcurve"/>
      <point x="992" y="1150" type="line"/>
    </contour>
  </outline>
</glyph>
<glyph name="ringcomb" format="2">
  <advance width="1963"/>
  <unicode hex="030A"/>
  <anchor x="981" y="1000" name="_top"/>
  <anchor x="981" y="1565" name="top"/>
  <outline>
    <contour>
      <point x="754" y="1347" type="qcurve" smooth="yes"/>
      <point x="754" y="1438"/>
      <point x="886" y="1565"/>
      <point x="981" y="1565" type="qcurve" smooth="yes"/>
      <point x="1076" y="1565"/>
      <point x="1208" y="1438"/>
      <point x="1208" y="1347" type="qcurve" smooth="yes"/>
      <point x="1208" y="1256"/>
      <point x="1076" y="1129"/>
      <point x="981" y="1129" type="qcurve" smooth="yes"/>
      <point x="886" y="1129"/>
      <point x="754" y="1256"/>
    </contour>
    <contour>
      <point x="878" y="1347" type="qcurve" smooth="yes"/>
      <point x="878" y="1301"/>
      <point x="934" y="1244"/>
      <point x="981" y="1244" type="qcurve" smooth="yes"/>
      <point x="1031" y="1244"/>
      <point x="1084" y="1297"/>
      <point x="1084" y="1347" type="qcurve" smooth="yes"/>
      <point x="1084" y="1393"/>
      <point x="1028" y="1450"/>
      <point x="981" y="1450" type="qcurve" smooth="yes"/>
      <point x="931" y="1450"/>
      <point x="878" y="1397"/>
    </contour>
  </outline>
</glyph>
<glyph name="hungarumlautcomb" format="2">
  <advance width="1963"/>
  <unicode hex="030B"/>
  <anchor x="1117" y="1000" name="_top"/>
  <anchor x="1117" y="1534" name="top"/>
  <outline>
    <contour>
      <point x="1121" y="1474" type="qcurve" smooth="yes"/>
      <point x="1121" y="1427"/>
      <point x="1078" y="1390"/>
      <point x="1040" y="1357" type="qcurve" smooth="yes"/>
      <point x="797" y="1150" type="line"/>
      <point x="723" y="1226" type="line"/>
      <point x="902" y="1453" type="line" smooth="yes"/>
      <point x="934" y="1493"/>
      <point x="989" y="1552"/>
      <point x="1026" y="1552" type="qcurve" smooth="yes"/>
      <point x="1060" y="1552"/>
      <point x="1121" y="1509"/>
    </contour>
    <contour>
      <point x="1511" y="1474" type="qcurve" smooth="yes"/>
      <point x="1511" y="1427"/>
      <point x="1468" y="1390"/>
      <point x="1430" y="1357" type="qcurve" smooth="yes"/>
      <point x="1187" y="1150" type="line"/>
      <point x="1113" y="1226" type="line"/>
      <point x="1293" y="1453" type="line" smooth="yes"/>
      <point x="1325" y="1493"/>
      <point x="1379" y="1552"/>
      <point x="1416" y="1552" type="qcurve" smooth="yes"/>
      <point x="1450" y="1552"/>
      <point x="1511" y="1509"/>
    </contour>
  </outline>
</glyph>
<glyph name="caroncomb" format="2">
  <advance width="1963"/>
  <unicode hex="030C"/>
  <anchor x="981" y="1000" name="_top"/>
  <anchor x="981" y="1511" name="top"/>
  <outline>
    <contour>
      <point x="981" y="1122" type="qcurve" smooth="yes"/>
      <point x="947" y="1122"/>
      <point x="902" y="1153"/>
      <point x="871" y="1195" type="qcurve" smooth="yes"/>
      <point x="668" y="1438" type="line"/>
      <point x="746" y="1511" type="line"/>
      <point x="981" y="1296" type="line"/>
      <point x="1216" y="1511" type="line"/>
      <point x="1294" y="1438" type="line"/>
      <point x="1091" y="1195" type="line" smooth="yes"/>
      <point x="1050" y="1146"/>
      <point x="1015" y="1122"/>
    </contour>
  </outline>
</glyph>
<glyph name="breveinvertedcomb" format="2">
  <advance width="1963"/>
  <unicode hex="030F"/>
  <anchor x="981" y="1000" name="_top"/>
  <anchor x="981" y="1470" name="top"/>
  <outline>
    <contour>
      <point x="707" y="1150" type="qcurve"/>
      <point x="629" y="1203" type="line"/>
      <point x="644" y="1296"/>
      <point x="855" y="1470"/>
      <point x="980" y="1470" type="qcurve"/>
      <point x="1109" y="1470"/>
      <point x="1320" y="1296"/>
      <point x="1333" y="1203" type="qcurve"/>
      <point x="1255" y="1150" type="line"/>
      <point x="1228" y="1204"/>
      <point x="1080" y="1314"/>
      <point x="981" y="1314" type="qcurve"/>
      <point x="884" y="1314"/>
      <point x="736" y="1204"/>
    </contour>
  </outline>
</glyph>
<glyph name="dblgravecomb" format="2">
  <advance width="1963"/>
  <unicode hex="0311"/>
  <anchor x="981" y="1000" name="_top"/>
  <anchor x="981" y="1585" name="top"/>
  <outline>
    <contour>
      <point x="462" y="1492" type="qcurve"/>
      <point x="462" y="1532"/>
      <point x="519" y="1577"/>
      <point x="555" y="1577" type="qcurve" smooth="yes"/>
      <point x="597" y="1577"/>
      <point x="654" y="1524"/>
      <point x="688" y="1478" type="qcurve" smooth="yes"/>
      <point x="869" y="1230" type="line"/>
      <point x="782" y="1151" type="line"/>
      <point x="555" y="1353" type="line" smooth="yes"/>
      <point x="522" y="1383"/>
      <point x="462" y="1454"/>
    </contour>
    <contour>
      <point x="859" y="1492" type="qcurve"/>
      <point x="859" y="1532"/>
      <point x="916" y="1577"/>
      <point x="952" y="1577" type="qcurve" smooth="yes"/>
      <point x="994" y="1577"/>
      <point x="1052" y="1523"/>
      <point x="1086" y="1477" type="qcurve" smooth="yes"/>
      <point x="1266" y="1230" type="line"/>
      <point x="1179" y="1151" type="line"/>
      <point x="952" y="1353" type="line" smooth="yes"/>
      <point x="919" y="1383"/>
      <point x="859" y="1454"/>
    </contour>
  </outline>
</glyph>
<glyph name="dotbelowcomb" format="2">
  <advance width="1963"/>
  <unicode hex="0323"/>
  <anchor x="981" y="0" name="_bottom"/>
  <anchor x="981" y="-422" name="bottom"/>
  <outline>
    <contour>
      <point x="863" y="-306" type="qcurve" smooth="yes"/>
      <point x="863" y="-251"/>
      <point x="923" y="-191"/>
      <point x="981" y="-191" type="qcurve" smooth="yes"/>
      <point x="1035" y="-191"/>
      <point x="1099" y="-255"/>
      <point x="1099" y="-306" type="qcurve" smooth="yes"/>
      <point x="1099" y="-362"/>
      <point x="1039" y="-422"/>
      <point x="981" y="-422" type="qcurve" smooth="yes"/>
      <point x="927" y="-422"/>
      <point x="863" y="-358"/>
    </contour>
  </outline>
</glyph>
